<ttFont>
    <TTGlyph name=".notdef" xMin="180" yMin="0" xMax="570" yMax="701">
      <contour>
        <pt x="234" y="651" on="1"/>
        <pt x="234" y="50" on="1"/>
        <pt x="516" y="50" on="1"/>
        <pt x="516" y="651" on="1"/>
      </contour>
      <contour>
        <pt x="180" y="0" on="1"/>
        <pt x="180" y="701" on="1"/>
        <pt x="570" y="701" on="1"/>
        <pt x="570" y="0" on="1"/>
      </contour>
    </TTGlyph>
    <TTGlyph name="A" xMin="47" yMin="17" xMax="553" yMax="722">
      <contour>
        <pt x="367" y="722" on="1"/>
        <pt x="395" y="722" on="0"/>
        <pt x="444" y="524" on="0"/>
        <pt x="460" y="381" on="1"/>
        <pt x="472" y="383" on="0"/>
        <pt x="505" y="389" on="1"/>
        <pt x="553" y="397" on="0"/>
        <pt x="553" y="369" on="1"/>
        <pt x="553" y="355" on="0"/>
        <pt x="465" y="331" on="1"/>
        <pt x="479" y="189" on="0"/>
        <pt x="471" y="17" on="0"/>
        <pt x="452" y="17" on="1"/>
        <pt x="423" y="17" on="0"/>
        <pt x="419" y="96" on="1"/>
        <pt x="413" y="213" on="0"/>
        <pt x="404" y="314" on="1"/>
        <pt x="239" y="270" on="0"/>
        <pt x="187" y="256" on="1"/>
        <pt x="102" y="47" on="0"/>
        <pt x="82" y="17" on="0"/>
        <pt x="79" y="17" on="1"/>
        <pt x="67" y="17" on="0"/>
        <pt x="47" y="46" on="0"/>
        <pt x="47" y="65" on="1"/>
        <pt x="47" y="72" on="0"/>
        <pt x="118" y="237" on="1"/>
        <pt x="95" y="232" on="0"/>
        <pt x="88" y="232" on="1"/>
        <pt x="48" y="232" on="0"/>
        <pt x="48" y="257" on="1"/>
        <pt x="48" y="273" on="0"/>
        <pt x="146" y="303" on="1"/>
        <pt x="262" y="581" on="0"/>
        <pt x="318" y="695" on="0"/>
        <pt x="343" y="722" on="0"/>
      </contour>
      <contour>
        <pt x="215" y="323" on="1"/>
        <pt x="294" y="344" on="0"/>
        <pt x="399" y="368" on="1"/>
        <pt x="381" y="531" on="0"/>
        <pt x="354" y="645" on="1"/>
        <pt x="278" y="480" on="0"/>
      </contour>
    </TTGlyph>
    <TTGlyph name="AE" xMin="20" yMin="22" xMax="774" yMax="688">
      <contour>
        <pt x="47" y="24" on="1"/>
        <pt x="20" y="24" on="0"/>
        <pt x="20" y="62" on="1"/>
        <pt x="20" y="71" on="0"/>
        <pt x="53" y="147" on="0"/>
        <pt x="119" y="298" on="0"/>
        <pt x="162" y="407" on="0"/>
        <pt x="212" y="532" on="0"/>
        <pt x="244" y="613" on="0"/>
        <pt x="253" y="632" on="1"/>
        <pt x="269" y="665" on="0"/>
        <pt x="399" y="688" on="0"/>
        <pt x="625" y="688" on="0"/>
        <pt x="743" y="683" on="0"/>
        <pt x="774" y="674" on="0"/>
        <pt x="774" y="666" on="1"/>
        <pt x="774" y="640" on="0"/>
        <pt x="573" y="640" on="1"/>
        <pt x="513" y="639" on="1"/>
        <pt x="521" y="626" on="0"/>
        <pt x="521" y="610" on="1"/>
        <pt x="521" y="541" on="0"/>
        <pt x="474" y="372" on="1"/>
        <pt x="622" y="389" on="0"/>
        <pt x="670" y="389" on="1"/>
        <pt x="706" y="388" on="0"/>
        <pt x="704" y="364" on="1"/>
        <pt x="704" y="355" on="0"/>
        <pt x="601" y="338" on="0"/>
        <pt x="459" y="321" on="1"/>
        <pt x="404" y="130" on="0"/>
        <pt x="404" y="109" on="1"/>
        <pt x="404" y="70" on="0"/>
        <pt x="434" y="70" on="1"/>
        <pt x="523" y="70" on="0"/>
        <pt x="726" y="122" on="0"/>
        <pt x="755" y="122" on="0"/>
        <pt x="755" y="109" on="1"/>
        <pt x="755" y="86" on="0"/>
        <pt x="538" y="22" on="0"/>
        <pt x="450" y="22" on="1"/>
        <pt x="396" y="22" on="0"/>
        <pt x="340" y="62" on="0"/>
        <pt x="340" y="93" on="1"/>
        <pt x="340" y="121" on="0"/>
        <pt x="347" y="149" on="1"/>
        <pt x="366" y="227" on="0"/>
        <pt x="376" y="257" on="0"/>
        <pt x="390" y="304" on="0"/>
        <pt x="393" y="313" on="1"/>
        <pt x="290" y="301" on="0"/>
        <pt x="179" y="282" on="0"/>
        <pt x="170" y="282" on="1"/>
        <pt x="162" y="263" on="0"/>
        <pt x="141" y="211" on="0"/>
        <pt x="127" y="177" on="0"/>
        <pt x="108" y="132" on="0"/>
        <pt x="95" y="103" on="0"/>
        <pt x="80" y="70" on="0"/>
        <pt x="70" y="50" on="0"/>
        <pt x="64" y="41" on="1"/>
        <pt x="54" y="24" on="0"/>
      </contour>
      <contour>
        <pt x="461" y="631" on="1"/>
        <pt x="461" y="638" on="1"/>
        <pt x="332" y="633" on="0"/>
        <pt x="315" y="620" on="1"/>
        <pt x="289" y="583" on="0"/>
        <pt x="190" y="330" on="1"/>
        <pt x="277" y="348" on="0"/>
        <pt x="409" y="364" on="1"/>
        <pt x="461" y="541" on="0"/>
      </contour>
    </TTGlyph>
    <TTGlyph name="Aacute" xMin="47" yMin="17" xMax="553" yMax="943">
      <contour>
        <pt x="367" y="722" on="1"/>
        <pt x="395" y="722" on="0"/>
        <pt x="444" y="524" on="0"/>
        <pt x="460" y="381" on="1"/>
        <pt x="472" y="383" on="0"/>
        <pt x="505" y="389" on="1"/>
        <pt x="553" y="397" on="0"/>
        <pt x="553" y="369" on="1"/>
        <pt x="553" y="355" on="0"/>
        <pt x="465" y="331" on="1"/>
        <pt x="479" y="189" on="0"/>
        <pt x="471" y="17" on="0"/>
        <pt x="452" y="17" on="1"/>
        <pt x="423" y="17" on="0"/>
        <pt x="419" y="96" on="1"/>
        <pt x="413" y="213" on="0"/>
        <pt x="404" y="314" on="1"/>
        <pt x="239" y="270" on="0"/>
        <pt x="187" y="256" on="1"/>
        <pt x="102" y="47" on="0"/>
        <pt x="82" y="17" on="0"/>
        <pt x="79" y="17" on="1"/>
        <pt x="67" y="17" on="0"/>
        <pt x="47" y="46" on="0"/>
        <pt x="47" y="65" on="1"/>
        <pt x="47" y="72" on="0"/>
        <pt x="118" y="237" on="1"/>
        <pt x="95" y="232" on="0"/>
        <pt x="88" y="232" on="1"/>
        <pt x="48" y="232" on="0"/>
        <pt x="48" y="257" on="1"/>
        <pt x="48" y="273" on="0"/>
        <pt x="146" y="303" on="1"/>
        <pt x="262" y="581" on="0"/>
        <pt x="318" y="695" on="0"/>
        <pt x="343" y="722" on="0"/>
      </contour>
      <contour>
        <pt x="215" y="323" on="1"/>
        <pt x="294" y="344" on="0"/>
        <pt x="399" y="368" on="1"/>
        <pt x="381" y="531" on="0"/>
        <pt x="354" y="645" on="1"/>
        <pt x="278" y="480" on="0"/>
      </contour>
      <contour>
        <pt x="546" y="928" on="0"/>
        <pt x="546" y="891" on="0"/>
        <pt x="537" y="885" on="1"/>
        <pt x="420" y="792" on="1"/>
        <pt x="391" y="771" on="0"/>
        <pt x="363" y="804" on="0"/>
        <pt x="387" y="828" on="1"/>
        <pt x="497" y="943" on="1"/>
        <pt x="516" y="961" on="0"/>
        <pt x="534" y="940" on="1"/>
      </contour>
    </TTGlyph>
    <TTGlyph name="Abreve" xMin="47" yMin="17" xMax="553" yMax="925">
      <contour>
        <pt x="367" y="722" on="1"/>
        <pt x="395" y="722" on="0"/>
        <pt x="444" y="524" on="0"/>
        <pt x="460" y="381" on="1"/>
        <pt x="472" y="383" on="0"/>
        <pt x="505" y="389" on="1"/>
        <pt x="553" y="397" on="0"/>
        <pt x="553" y="369" on="1"/>
        <pt x="553" y="355" on="0"/>
        <pt x="465" y="331" on="1"/>
        <pt x="479" y="189" on="0"/>
        <pt x="471" y="17" on="0"/>
        <pt x="452" y="17" on="1"/>
        <pt x="423" y="17" on="0"/>
        <pt x="419" y="96" on="1"/>
        <pt x="413" y="213" on="0"/>
        <pt x="404" y="314" on="1"/>
        <pt x="239" y="270" on="0"/>
        <pt x="187" y="256" on="1"/>
        <pt x="102" y="47" on="0"/>
        <pt x="82" y="17" on="0"/>
        <pt x="79" y="17" on="1"/>
        <pt x="67" y="17" on="0"/>
        <pt x="47" y="46" on="0"/>
        <pt x="47" y="65" on="1"/>
        <pt x="47" y="72" on="0"/>
        <pt x="118" y="237" on="1"/>
        <pt x="95" y="232" on="0"/>
        <pt x="88" y="232" on="1"/>
        <pt x="48" y="232" on="0"/>
        <pt x="48" y="257" on="1"/>
        <pt x="48" y="273" on="0"/>
        <pt x="146" y="303" on="1"/>
        <pt x="262" y="581" on="0"/>
        <pt x="318" y="695" on="0"/>
        <pt x="343" y="722" on="0"/>
      </contour>
      <contour>
        <pt x="215" y="323" on="1"/>
        <pt x="294" y="344" on="0"/>
        <pt x="399" y="368" on="1"/>
        <pt x="381" y="531" on="0"/>
        <pt x="354" y="645" on="1"/>
        <pt x="278" y="480" on="0"/>
      </contour>
      <contour>
        <pt x="551" y="849" on="0"/>
        <pt x="458" y="788" on="0"/>
        <pt x="372" y="788" on="0"/>
        <pt x="293" y="851" on="0"/>
        <pt x="293" y="883" on="1"/>
        <pt x="293" y="901" on="0"/>
        <pt x="313" y="925" on="0"/>
        <pt x="333" y="925" on="0"/>
        <pt x="349" y="898" on="0"/>
        <pt x="363" y="866" on="0"/>
        <pt x="398" y="839" on="0"/>
        <pt x="450" y="839" on="0"/>
        <pt x="492" y="867" on="0"/>
        <pt x="521" y="895" on="0"/>
        <pt x="532" y="895" on="1"/>
        <pt x="551" y="895" on="0"/>
        <pt x="551" y="876" on="1"/>
      </contour>
    </TTGlyph>
    <TTGlyph name="Acircumflex" xMin="47" yMin="17" xMax="553" yMax="939">
      <contour>
        <pt x="367" y="722" on="1"/>
        <pt x="395" y="722" on="0"/>
        <pt x="444" y="524" on="0"/>
        <pt x="460" y="381" on="1"/>
        <pt x="472" y="383" on="0"/>
        <pt x="505" y="389" on="1"/>
        <pt x="553" y="397" on="0"/>
        <pt x="553" y="369" on="1"/>
        <pt x="553" y="355" on="0"/>
        <pt x="465" y="331" on="1"/>
        <pt x="479" y="189" on="0"/>
        <pt x="471" y="17" on="0"/>
        <pt x="452" y="17" on="1"/>
        <pt x="423" y="17" on="0"/>
        <pt x="419" y="96" on="1"/>
        <pt x="413" y="213" on="0"/>
        <pt x="404" y="314" on="1"/>
        <pt x="239" y="270" on="0"/>
        <pt x="187" y="256" on="1"/>
        <pt x="102" y="47" on="0"/>
        <pt x="82" y="17" on="0"/>
        <pt x="79" y="17" on="1"/>
        <pt x="67" y="17" on="0"/>
        <pt x="47" y="46" on="0"/>
        <pt x="47" y="65" on="1"/>
        <pt x="47" y="72" on="0"/>
        <pt x="118" y="237" on="1"/>
        <pt x="95" y="232" on="0"/>
        <pt x="88" y="232" on="1"/>
        <pt x="48" y="232" on="0"/>
        <pt x="48" y="257" on="1"/>
        <pt x="48" y="273" on="0"/>
        <pt x="146" y="303" on="1"/>
        <pt x="262" y="581" on="0"/>
        <pt x="318" y="695" on="0"/>
        <pt x="343" y="722" on="0"/>
      </contour>
      <contour>
        <pt x="215" y="323" on="1"/>
        <pt x="294" y="344" on="0"/>
        <pt x="399" y="368" on="1"/>
        <pt x="381" y="531" on="0"/>
        <pt x="354" y="645" on="1"/>
        <pt x="278" y="480" on="0"/>
      </contour>
      <contour>
        <pt x="313" y="821" on="0"/>
        <pt x="268" y="788" on="0"/>
        <pt x="245" y="788" on="0"/>
        <pt x="229" y="800" on="0"/>
        <pt x="229" y="830" on="0"/>
        <pt x="259" y="861" on="0"/>
        <pt x="308" y="889" on="0"/>
        <pt x="340" y="909" on="0"/>
        <pt x="360" y="921" on="0"/>
        <pt x="383" y="933" on="0"/>
        <pt x="400" y="939" on="0"/>
        <pt x="410" y="939" on="0"/>
        <pt x="418" y="937" on="0"/>
        <pt x="425" y="935" on="0"/>
        <pt x="433" y="929" on="0"/>
        <pt x="438" y="926" on="0"/>
        <pt x="447" y="916" on="0"/>
        <pt x="449" y="914" on="1"/>
        <pt x="463" y="896" on="0"/>
        <pt x="466" y="893" on="1"/>
        <pt x="533" y="813" on="0"/>
        <pt x="533" y="778" on="0"/>
        <pt x="495" y="778" on="0"/>
        <pt x="465" y="806" on="0"/>
        <pt x="413" y="880" on="0"/>
        <pt x="408" y="887" on="1"/>
        <pt x="380" y="872" on="0"/>
      </contour>
    </TTGlyph>
    <TTGlyph name="Adieresis" xMin="47" yMin="17" xMax="553" yMax="905">
      <contour>
        <pt x="367" y="722" on="1"/>
        <pt x="395" y="722" on="0"/>
        <pt x="444" y="524" on="0"/>
        <pt x="460" y="381" on="1"/>
        <pt x="472" y="383" on="0"/>
        <pt x="505" y="389" on="1"/>
        <pt x="553" y="397" on="0"/>
        <pt x="553" y="369" on="1"/>
        <pt x="553" y="355" on="0"/>
        <pt x="465" y="331" on="1"/>
        <pt x="479" y="189" on="0"/>
        <pt x="471" y="17" on="0"/>
        <pt x="452" y="17" on="1"/>
        <pt x="423" y="17" on="0"/>
        <pt x="419" y="96" on="1"/>
        <pt x="413" y="213" on="0"/>
        <pt x="404" y="314" on="1"/>
        <pt x="239" y="270" on="0"/>
        <pt x="187" y="256" on="1"/>
        <pt x="102" y="47" on="0"/>
        <pt x="82" y="17" on="0"/>
        <pt x="79" y="17" on="1"/>
        <pt x="67" y="17" on="0"/>
        <pt x="47" y="46" on="0"/>
        <pt x="47" y="65" on="1"/>
        <pt x="47" y="72" on="0"/>
        <pt x="118" y="237" on="1"/>
        <pt x="95" y="232" on="0"/>
        <pt x="88" y="232" on="1"/>
        <pt x="48" y="232" on="0"/>
        <pt x="48" y="257" on="1"/>
        <pt x="48" y="273" on="0"/>
        <pt x="146" y="303" on="1"/>
        <pt x="262" y="581" on="0"/>
        <pt x="318" y="695" on="0"/>
        <pt x="343" y="722" on="0"/>
      </contour>
      <contour>
        <pt x="215" y="323" on="1"/>
        <pt x="294" y="344" on="0"/>
        <pt x="399" y="368" on="1"/>
        <pt x="381" y="531" on="0"/>
        <pt x="354" y="645" on="1"/>
        <pt x="278" y="480" on="0"/>
      </contour>
      <contour>
        <pt x="352" y="799" on="1"/>
        <pt x="332" y="799" on="0"/>
        <pt x="284" y="846" on="0"/>
        <pt x="284" y="878" on="0"/>
        <pt x="306" y="905" on="0"/>
        <pt x="333" y="905" on="0"/>
        <pt x="368" y="838" on="0"/>
        <pt x="368" y="824" on="1"/>
        <pt x="368" y="799" on="0"/>
      </contour>
      <contour>
        <pt x="488" y="799" on="1"/>
        <pt x="468" y="799" on="0"/>
        <pt x="420" y="846" on="0"/>
        <pt x="420" y="878" on="0"/>
        <pt x="442" y="905" on="0"/>
        <pt x="469" y="905" on="0"/>
        <pt x="504" y="838" on="0"/>
        <pt x="504" y="824" on="1"/>
        <pt x="504" y="799" on="0"/>
      </contour>
    </TTGlyph>
    <TTGlyph name="Agrave" xMin="47" yMin="17" xMax="553" yMax="937">
      <contour>
        <pt x="367" y="722" on="1"/>
        <pt x="395" y="722" on="0"/>
        <pt x="444" y="524" on="0"/>
        <pt x="460" y="381" on="1"/>
        <pt x="472" y="383" on="0"/>
        <pt x="505" y="389" on="1"/>
        <pt x="553" y="397" on="0"/>
        <pt x="553" y="369" on="1"/>
        <pt x="553" y="355" on="0"/>
        <pt x="465" y="331" on="1"/>
        <pt x="479" y="189" on="0"/>
        <pt x="471" y="17" on="0"/>
        <pt x="452" y="17" on="1"/>
        <pt x="423" y="17" on="0"/>
        <pt x="419" y="96" on="1"/>
        <pt x="413" y="213" on="0"/>
        <pt x="404" y="314" on="1"/>
        <pt x="239" y="270" on="0"/>
        <pt x="187" y="256" on="1"/>
        <pt x="102" y="47" on="0"/>
        <pt x="82" y="17" on="0"/>
        <pt x="79" y="17" on="1"/>
        <pt x="67" y="17" on="0"/>
        <pt x="47" y="46" on="0"/>
        <pt x="47" y="65" on="1"/>
        <pt x="47" y="72" on="0"/>
        <pt x="118" y="237" on="1"/>
        <pt x="95" y="232" on="0"/>
        <pt x="88" y="232" on="1"/>
        <pt x="48" y="232" on="0"/>
        <pt x="48" y="257" on="1"/>
        <pt x="48" y="273" on="0"/>
        <pt x="146" y="303" on="1"/>
        <pt x="262" y="581" on="0"/>
        <pt x="318" y="695" on="0"/>
        <pt x="343" y="722" on="0"/>
      </contour>
      <contour>
        <pt x="215" y="323" on="1"/>
        <pt x="294" y="344" on="0"/>
        <pt x="399" y="368" on="1"/>
        <pt x="381" y="531" on="0"/>
        <pt x="354" y="645" on="1"/>
        <pt x="278" y="480" on="0"/>
      </contour>
      <contour>
        <pt x="391" y="793" on="1"/>
        <pt x="279" y="880" on="1"/>
        <pt x="269" y="887" on="0"/>
        <pt x="268" y="919" on="0"/>
        <pt x="280" y="932" on="1"/>
        <pt x="302" y="957" on="0"/>
        <pt x="322" y="937" on="1"/>
        <pt x="423" y="827" on="1"/>
        <pt x="447" y="802" on="0"/>
        <pt x="417" y="771" on="0"/>
      </contour>
    </TTGlyph>
    <TTGlyph name="Amacron" xMin="47" yMin="17" xMax="553" yMax="854">
      <contour>
        <pt x="367" y="722" on="1"/>
        <pt x="395" y="722" on="0"/>
        <pt x="444" y="524" on="0"/>
        <pt x="460" y="381" on="1"/>
        <pt x="472" y="383" on="0"/>
        <pt x="505" y="389" on="1"/>
        <pt x="553" y="397" on="0"/>
        <pt x="553" y="369" on="1"/>
        <pt x="553" y="355" on="0"/>
        <pt x="465" y="331" on="1"/>
        <pt x="479" y="189" on="0"/>
        <pt x="471" y="17" on="0"/>
        <pt x="452" y="17" on="1"/>
        <pt x="423" y="17" on="0"/>
        <pt x="419" y="96" on="1"/>
        <pt x="413" y="213" on="0"/>
        <pt x="404" y="314" on="1"/>
        <pt x="239" y="270" on="0"/>
        <pt x="187" y="256" on="1"/>
        <pt x="102" y="47" on="0"/>
        <pt x="82" y="17" on="0"/>
        <pt x="79" y="17" on="1"/>
        <pt x="67" y="17" on="0"/>
        <pt x="47" y="46" on="0"/>
        <pt x="47" y="65" on="1"/>
        <pt x="47" y="72" on="0"/>
        <pt x="118" y="237" on="1"/>
        <pt x="95" y="232" on="0"/>
        <pt x="88" y="232" on="1"/>
        <pt x="48" y="232" on="0"/>
        <pt x="48" y="257" on="1"/>
        <pt x="48" y="273" on="0"/>
        <pt x="146" y="303" on="1"/>
        <pt x="262" y="581" on="0"/>
        <pt x="318" y="695" on="0"/>
        <pt x="343" y="722" on="0"/>
      </contour>
      <contour>
        <pt x="215" y="323" on="1"/>
        <pt x="294" y="344" on="0"/>
        <pt x="399" y="368" on="1"/>
        <pt x="381" y="531" on="0"/>
        <pt x="354" y="645" on="1"/>
        <pt x="278" y="480" on="0"/>
      </contour>
      <contour>
        <pt x="310" y="797" on="0"/>
        <pt x="277" y="794" on="0"/>
        <pt x="248" y="794" on="0"/>
        <pt x="214" y="822" on="0"/>
        <pt x="214" y="834" on="1"/>
        <pt x="214" y="860" on="0"/>
        <pt x="497" y="854" on="1"/>
        <pt x="531" y="853" on="0"/>
        <pt x="553" y="845" on="0"/>
        <pt x="553" y="835" on="1"/>
        <pt x="552" y="823" on="0"/>
        <pt x="495" y="813" on="0"/>
        <pt x="371" y="804" on="0"/>
      </contour>
    </TTGlyph>
    <TTGlyph name="Aogonek" xMin="47" yMin="-190" xMax="553" yMax="722">
      <contour>
        <pt x="465" y="331" on="1"/>
        <pt x="489" y="85" on="0"/>
        <pt x="462" y="25" on="1"/>
        <pt x="469" y="19" on="0"/>
        <pt x="458" y="-14" on="0"/>
        <pt x="439" y="-29" on="1"/>
        <pt x="367" y="-85" on="0"/>
        <pt x="367" y="-117" on="1"/>
        <pt x="367" y="-140" on="0"/>
        <pt x="410" y="-140" on="1"/>
        <pt x="426" y="-140" on="0"/>
        <pt x="461" y="-124" on="0"/>
        <pt x="466" y="-124" on="1"/>
        <pt x="486" y="-122" on="0"/>
        <pt x="489" y="-142" on="1"/>
        <pt x="491" y="-163" on="0"/>
        <pt x="423" y="-190" on="0"/>
        <pt x="362" y="-190" on="0"/>
        <pt x="311" y="-151" on="0"/>
        <pt x="311" y="-124" on="1"/>
        <pt x="311" y="-58" on="0"/>
        <pt x="413" y="21" on="1"/>
        <pt x="422" y="27" on="0"/>
        <pt x="432" y="30" on="1"/>
        <pt x="422" y="47" on="0"/>
        <pt x="419" y="96" on="1"/>
        <pt x="413" y="213" on="0"/>
        <pt x="404" y="314" on="1"/>
        <pt x="239" y="270" on="0"/>
        <pt x="187" y="256" on="1"/>
        <pt x="102" y="47" on="0"/>
        <pt x="82" y="17" on="0"/>
        <pt x="79" y="17" on="1"/>
        <pt x="67" y="17" on="0"/>
        <pt x="47" y="46" on="0"/>
        <pt x="47" y="65" on="1"/>
        <pt x="47" y="72" on="0"/>
        <pt x="118" y="237" on="1"/>
        <pt x="95" y="232" on="0"/>
        <pt x="88" y="232" on="1"/>
        <pt x="48" y="232" on="0"/>
        <pt x="48" y="257" on="1"/>
        <pt x="48" y="273" on="0"/>
        <pt x="146" y="303" on="1"/>
        <pt x="262" y="581" on="0"/>
        <pt x="318" y="695" on="0"/>
        <pt x="343" y="722" on="0"/>
        <pt x="367" y="722" on="1"/>
        <pt x="395" y="722" on="0"/>
        <pt x="444" y="524" on="0"/>
        <pt x="460" y="381" on="1"/>
        <pt x="472" y="383" on="0"/>
        <pt x="505" y="389" on="1"/>
        <pt x="553" y="397" on="0"/>
        <pt x="553" y="369" on="1"/>
        <pt x="553" y="355" on="0"/>
      </contour>
      <contour>
        <pt x="215" y="323" on="1"/>
        <pt x="294" y="344" on="0"/>
        <pt x="399" y="368" on="1"/>
        <pt x="381" y="531" on="0"/>
        <pt x="354" y="645" on="1"/>
        <pt x="278" y="480" on="0"/>
      </contour>
    </TTGlyph>
    <TTGlyph name="Aring" xMin="47" yMin="17" xMax="553" yMax="944">
      <contour>
        <pt x="367" y="722" on="1"/>
        <pt x="395" y="722" on="0"/>
        <pt x="444" y="524" on="0"/>
        <pt x="460" y="381" on="1"/>
        <pt x="472" y="383" on="0"/>
        <pt x="505" y="389" on="1"/>
        <pt x="553" y="397" on="0"/>
        <pt x="553" y="369" on="1"/>
        <pt x="553" y="355" on="0"/>
        <pt x="465" y="331" on="1"/>
        <pt x="479" y="189" on="0"/>
        <pt x="471" y="17" on="0"/>
        <pt x="452" y="17" on="1"/>
        <pt x="423" y="17" on="0"/>
        <pt x="419" y="96" on="1"/>
        <pt x="413" y="213" on="0"/>
        <pt x="404" y="314" on="1"/>
        <pt x="239" y="270" on="0"/>
        <pt x="187" y="256" on="1"/>
        <pt x="102" y="47" on="0"/>
        <pt x="82" y="17" on="0"/>
        <pt x="79" y="17" on="1"/>
        <pt x="67" y="17" on="0"/>
        <pt x="47" y="46" on="0"/>
        <pt x="47" y="65" on="1"/>
        <pt x="47" y="72" on="0"/>
        <pt x="118" y="237" on="1"/>
        <pt x="95" y="232" on="0"/>
        <pt x="88" y="232" on="1"/>
        <pt x="48" y="232" on="0"/>
        <pt x="48" y="257" on="1"/>
        <pt x="48" y="273" on="0"/>
        <pt x="146" y="303" on="1"/>
        <pt x="262" y="581" on="0"/>
        <pt x="318" y="695" on="0"/>
        <pt x="343" y="722" on="0"/>
      </contour>
      <contour>
        <pt x="215" y="323" on="1"/>
        <pt x="294" y="344" on="0"/>
        <pt x="399" y="368" on="1"/>
        <pt x="381" y="531" on="0"/>
        <pt x="354" y="645" on="1"/>
        <pt x="278" y="480" on="0"/>
      </contour>
      <contour>
        <pt x="479" y="817" on="0"/>
        <pt x="427" y="764" on="0"/>
        <pt x="364" y="764" on="0"/>
        <pt x="324" y="817" on="0"/>
        <pt x="334" y="891" on="0"/>
        <pt x="386" y="944" on="0"/>
        <pt x="449" y="944" on="0"/>
        <pt x="489" y="891" on="0"/>
      </contour>
      <contour>
        <pt x="388" y="807" on="0"/>
        <pt x="414" y="807" on="0"/>
        <pt x="436" y="834" on="0"/>
        <pt x="440" y="871" on="0"/>
        <pt x="424" y="899" on="0"/>
        <pt x="398" y="899" on="0"/>
        <pt x="376" y="871" on="0"/>
        <pt x="372" y="834" on="0"/>
      </contour>
    </TTGlyph>
    <TTGlyph name="Atilde" xMin="47" yMin="17" xMax="556" yMax="908">
      <contour>
        <pt x="367" y="722" on="1"/>
        <pt x="395" y="722" on="0"/>
        <pt x="444" y="524" on="0"/>
        <pt x="460" y="381" on="1"/>
        <pt x="472" y="383" on="0"/>
        <pt x="505" y="389" on="1"/>
        <pt x="553" y="397" on="0"/>
        <pt x="553" y="369" on="1"/>
        <pt x="553" y="355" on="0"/>
        <pt x="465" y="331" on="1"/>
        <pt x="479" y="189" on="0"/>
        <pt x="471" y="17" on="0"/>
        <pt x="452" y="17" on="1"/>
        <pt x="423" y="17" on="0"/>
        <pt x="419" y="96" on="1"/>
        <pt x="413" y="213" on="0"/>
        <pt x="404" y="314" on="1"/>
        <pt x="239" y="270" on="0"/>
        <pt x="187" y="256" on="1"/>
        <pt x="102" y="47" on="0"/>
        <pt x="82" y="17" on="0"/>
        <pt x="79" y="17" on="1"/>
        <pt x="67" y="17" on="0"/>
        <pt x="47" y="46" on="0"/>
        <pt x="47" y="65" on="1"/>
        <pt x="47" y="72" on="0"/>
        <pt x="118" y="237" on="1"/>
        <pt x="95" y="232" on="0"/>
        <pt x="88" y="232" on="1"/>
        <pt x="48" y="232" on="0"/>
        <pt x="48" y="257" on="1"/>
        <pt x="48" y="273" on="0"/>
        <pt x="146" y="303" on="1"/>
        <pt x="262" y="581" on="0"/>
        <pt x="318" y="695" on="0"/>
        <pt x="343" y="722" on="0"/>
      </contour>
      <contour>
        <pt x="215" y="323" on="1"/>
        <pt x="294" y="344" on="0"/>
        <pt x="399" y="368" on="1"/>
        <pt x="381" y="531" on="0"/>
        <pt x="354" y="645" on="1"/>
        <pt x="278" y="480" on="0"/>
      </contour>
      <contour>
        <pt x="275" y="783" on="1"/>
        <pt x="253" y="783" on="0"/>
        <pt x="253" y="804" on="1"/>
        <pt x="253" y="836" on="0"/>
        <pt x="326" y="908" on="0"/>
        <pt x="362" y="908" on="1"/>
        <pt x="400" y="908" on="0"/>
        <pt x="422" y="871" on="1"/>
        <pt x="445" y="834" on="0"/>
        <pt x="465" y="832" on="1"/>
        <pt x="478" y="833" on="0"/>
        <pt x="500" y="853" on="0"/>
        <pt x="506" y="864" on="1"/>
        <pt x="522" y="895" on="0"/>
        <pt x="556" y="895" on="0"/>
        <pt x="556" y="840" on="0"/>
        <pt x="501" y="779" on="0"/>
        <pt x="463" y="779" on="1"/>
        <pt x="415" y="779" on="0"/>
        <pt x="359" y="858" on="1"/>
        <pt x="338" y="848" on="0"/>
        <pt x="306" y="810" on="0"/>
        <pt x="285" y="783" on="0"/>
      </contour>
    </TTGlyph>
    <TTGlyph name="B" xMin="7" yMin="22" xMax="580" yMax="703">
      <contour>
        <pt x="222" y="634" on="1"/>
        <pt x="193" y="633" on="1"/>
        <pt x="177" y="633" on="0"/>
        <pt x="149" y="661" on="0"/>
        <pt x="149" y="684" on="0"/>
        <pt x="232" y="703" on="0"/>
        <pt x="288" y="703" on="1"/>
        <pt x="428" y="703" on="0"/>
        <pt x="571" y="625" on="0"/>
        <pt x="571" y="559" on="1"/>
        <pt x="571" y="422" on="0"/>
        <pt x="336" y="378" on="1"/>
        <pt x="454" y="383" on="0"/>
        <pt x="580" y="302" on="0"/>
        <pt x="580" y="250" on="1"/>
        <pt x="580" y="162" on="0"/>
        <pt x="329" y="22" on="0"/>
        <pt x="165" y="22" on="1"/>
        <pt x="95" y="22" on="0"/>
        <pt x="7" y="75" on="0"/>
        <pt x="7" y="106" on="1"/>
        <pt x="7" y="125" on="0"/>
        <pt x="18" y="125" on="1"/>
        <pt x="24" y="125" on="0"/>
        <pt x="37" y="114" on="1"/>
        <pt x="77" y="80" on="0"/>
        <pt x="131" y="77" on="1"/>
        <pt x="107" y="93" on="0"/>
        <pt x="105" y="127" on="1"/>
        <pt x="105" y="142" on="0"/>
        <pt x="134" y="233" on="1"/>
        <pt x="223" y="505" on="0"/>
        <pt x="221" y="625" on="1"/>
        <pt x="221" y="632" on="0"/>
      </contour>
      <contour>
        <pt x="351" y="645" on="1"/>
        <pt x="316" y="645" on="0"/>
        <pt x="255" y="638" on="1"/>
        <pt x="278" y="617" on="0"/>
        <pt x="280" y="592" on="1"/>
        <pt x="280" y="559" on="0"/>
        <pt x="236" y="385" on="1"/>
        <pt x="248" y="395" on="0"/>
        <pt x="310" y="414" on="0"/>
        <pt x="317" y="417" on="1"/>
        <pt x="507" y="473" on="0"/>
        <pt x="507" y="556" on="1"/>
        <pt x="507" y="595" on="0"/>
        <pt x="415" y="645" on="0"/>
      </contour>
      <contour>
        <pt x="514" y="254" on="1"/>
        <pt x="514" y="289" on="0"/>
        <pt x="363" y="337" on="0"/>
        <pt x="276" y="337" on="1"/>
        <pt x="262" y="337" on="0"/>
        <pt x="235" y="353" on="0"/>
        <pt x="230" y="363" on="1"/>
        <pt x="212" y="292" on="0"/>
        <pt x="182" y="190" on="0"/>
        <pt x="169" y="142" on="0"/>
        <pt x="163" y="119" on="0"/>
        <pt x="159" y="106" on="1"/>
        <pt x="151" y="80" on="0"/>
        <pt x="147" y="76" on="1"/>
        <pt x="285" y="76" on="0"/>
        <pt x="514" y="186" on="0"/>
      </contour>
    </TTGlyph>
    <TTGlyph name="C" xMin="81" yMin="25" xMax="560" yMax="702">
      <contour>
        <pt x="512" y="702" on="0"/>
        <pt x="560" y="654" on="0"/>
        <pt x="560" y="623" on="0"/>
        <pt x="549" y="623" on="0"/>
        <pt x="505" y="641" on="0"/>
        <pt x="485" y="641" on="1"/>
        <pt x="446" y="641" on="0"/>
        <pt x="329" y="560" on="0"/>
        <pt x="222" y="438" on="0"/>
        <pt x="145" y="277" on="0"/>
        <pt x="145" y="151" on="0"/>
        <pt x="222" y="89" on="0"/>
        <pt x="334" y="89" on="0"/>
        <pt x="443" y="134" on="0"/>
        <pt x="511" y="178" on="0"/>
        <pt x="525" y="178" on="0"/>
        <pt x="533" y="169" on="0"/>
        <pt x="533" y="164" on="1"/>
        <pt x="533" y="147" on="0"/>
        <pt x="449" y="81" on="0"/>
        <pt x="321" y="25" on="0"/>
        <pt x="271" y="25" on="1"/>
        <pt x="197" y="25" on="0"/>
        <pt x="81" y="131" on="0"/>
        <pt x="81" y="276" on="0"/>
        <pt x="157" y="451" on="0"/>
        <pt x="271" y="600" on="0"/>
        <pt x="420" y="702" on="0"/>
        <pt x="487" y="702" on="1"/>
      </contour>
    </TTGlyph>
    <TTGlyph name="Cacute" xMin="81" yMin="25" xMax="685" yMax="943">
      <contour>
        <pt x="512" y="702" on="0"/>
        <pt x="560" y="654" on="0"/>
        <pt x="560" y="623" on="0"/>
        <pt x="549" y="623" on="0"/>
        <pt x="505" y="641" on="0"/>
        <pt x="485" y="641" on="1"/>
        <pt x="446" y="641" on="0"/>
        <pt x="329" y="560" on="0"/>
        <pt x="222" y="438" on="0"/>
        <pt x="145" y="277" on="0"/>
        <pt x="145" y="151" on="0"/>
        <pt x="222" y="89" on="0"/>
        <pt x="334" y="89" on="0"/>
        <pt x="443" y="134" on="0"/>
        <pt x="511" y="178" on="0"/>
        <pt x="525" y="178" on="0"/>
        <pt x="533" y="169" on="0"/>
        <pt x="533" y="164" on="1"/>
        <pt x="533" y="147" on="0"/>
        <pt x="449" y="81" on="0"/>
        <pt x="321" y="25" on="0"/>
        <pt x="271" y="25" on="1"/>
        <pt x="197" y="25" on="0"/>
        <pt x="81" y="131" on="0"/>
        <pt x="81" y="276" on="0"/>
        <pt x="157" y="451" on="0"/>
        <pt x="271" y="600" on="0"/>
        <pt x="420" y="702" on="0"/>
        <pt x="487" y="702" on="1"/>
      </contour>
      <contour>
        <pt x="685" y="928" on="0"/>
        <pt x="685" y="891" on="0"/>
        <pt x="676" y="885" on="1"/>
        <pt x="559" y="792" on="1"/>
        <pt x="530" y="771" on="0"/>
        <pt x="502" y="804" on="0"/>
        <pt x="526" y="828" on="1"/>
        <pt x="636" y="943" on="1"/>
        <pt x="655" y="961" on="0"/>
        <pt x="673" y="940" on="1"/>
      </contour>
    </TTGlyph>
    <TTGlyph name="Ccaron" xMin="81" yMin="25" xMax="697" yMax="965">
      <contour>
        <pt x="512" y="702" on="0"/>
        <pt x="560" y="654" on="0"/>
        <pt x="560" y="623" on="0"/>
        <pt x="549" y="623" on="0"/>
        <pt x="505" y="641" on="0"/>
        <pt x="485" y="641" on="1"/>
        <pt x="446" y="641" on="0"/>
        <pt x="329" y="560" on="0"/>
        <pt x="222" y="438" on="0"/>
        <pt x="145" y="277" on="0"/>
        <pt x="145" y="151" on="0"/>
        <pt x="222" y="89" on="0"/>
        <pt x="334" y="89" on="0"/>
        <pt x="443" y="134" on="0"/>
        <pt x="511" y="178" on="0"/>
        <pt x="525" y="178" on="0"/>
        <pt x="533" y="169" on="0"/>
        <pt x="533" y="164" on="1"/>
        <pt x="533" y="147" on="0"/>
        <pt x="449" y="81" on="0"/>
        <pt x="321" y="25" on="0"/>
        <pt x="271" y="25" on="1"/>
        <pt x="197" y="25" on="0"/>
        <pt x="81" y="131" on="0"/>
        <pt x="81" y="276" on="0"/>
        <pt x="157" y="451" on="0"/>
        <pt x="271" y="600" on="0"/>
        <pt x="420" y="702" on="0"/>
        <pt x="487" y="702" on="1"/>
      </contour>
      <contour>
        <pt x="576" y="878" on="0"/>
        <pt x="656" y="931" on="0"/>
        <pt x="697" y="931" on="0"/>
        <pt x="697" y="911" on="1"/>
        <pt x="697" y="897" on="0"/>
        <pt x="673" y="876" on="0"/>
        <pt x="619" y="844" on="0"/>
        <pt x="592" y="824" on="0"/>
        <pt x="572" y="806" on="1"/>
        <pt x="532" y="770" on="0"/>
        <pt x="509" y="770" on="0"/>
        <pt x="436" y="830" on="0"/>
        <pt x="369" y="913" on="0"/>
        <pt x="369" y="938" on="1"/>
        <pt x="369" y="950" on="0"/>
        <pt x="383" y="965" on="0"/>
        <pt x="403" y="965" on="0"/>
        <pt x="426" y="939" on="0"/>
        <pt x="447" y="902" on="0"/>
        <pt x="493" y="847" on="0"/>
        <pt x="522" y="825" on="1"/>
      </contour>
    </TTGlyph>
    <TTGlyph name="Ccedilla" xMin="81" yMin="-177" xMax="560" yMax="702">
      <contour>
        <pt x="271" y="25" on="1"/>
        <pt x="267" y="25" on="1"/>
        <pt x="262" y="3" on="0"/>
        <pt x="239" y="-37" on="1"/>
        <pt x="285" y="-34" on="0"/>
        <pt x="336" y="-72" on="0"/>
        <pt x="337" y="-89" on="1"/>
        <pt x="338" y="-120" on="0"/>
        <pt x="260" y="-171" on="0"/>
        <pt x="133" y="-182" on="0"/>
        <pt x="132" y="-162" on="1"/>
        <pt x="131" y="-151" on="0"/>
        <pt x="187" y="-140" on="0"/>
        <pt x="259" y="-120" on="0"/>
        <pt x="272" y="-98" on="1"/>
        <pt x="267" y="-90" on="0"/>
        <pt x="242" y="-83" on="0"/>
        <pt x="222" y="-80" on="1"/>
        <pt x="183" y="-73" on="0"/>
        <pt x="182" y="-60" on="1"/>
        <pt x="181" y="-50" on="0"/>
        <pt x="190" y="-31" on="1"/>
        <pt x="208" y="6" on="0"/>
        <pt x="218" y="33" on="1"/>
        <pt x="160" y="50" on="0"/>
        <pt x="81" y="146" on="0"/>
        <pt x="81" y="276" on="0"/>
        <pt x="157" y="451" on="0"/>
        <pt x="271" y="600" on="0"/>
        <pt x="420" y="702" on="0"/>
        <pt x="487" y="702" on="1"/>
        <pt x="512" y="702" on="0"/>
        <pt x="560" y="654" on="0"/>
        <pt x="560" y="623" on="0"/>
        <pt x="549" y="623" on="0"/>
        <pt x="505" y="641" on="0"/>
        <pt x="485" y="641" on="1"/>
        <pt x="446" y="641" on="0"/>
        <pt x="329" y="560" on="0"/>
        <pt x="222" y="438" on="0"/>
        <pt x="145" y="277" on="0"/>
        <pt x="145" y="151" on="0"/>
        <pt x="222" y="89" on="0"/>
        <pt x="334" y="89" on="0"/>
        <pt x="443" y="134" on="0"/>
        <pt x="511" y="178" on="0"/>
        <pt x="525" y="178" on="0"/>
        <pt x="533" y="169" on="0"/>
        <pt x="533" y="164" on="1"/>
        <pt x="533" y="147" on="0"/>
        <pt x="449" y="81" on="0"/>
        <pt x="321" y="25" on="0"/>
      </contour>
    </TTGlyph>
    <TTGlyph name="D" xMin="95" yMin="15" xMax="598" yMax="707">
      <contour>
        <pt x="173" y="707" on="1"/>
        <pt x="260" y="707" on="0"/>
        <pt x="457" y="612" on="0"/>
        <pt x="598" y="445" on="0"/>
        <pt x="598" y="356" on="1"/>
        <pt x="598" y="293" on="0"/>
        <pt x="436" y="129" on="0"/>
        <pt x="222" y="15" on="0"/>
        <pt x="150" y="15" on="1"/>
        <pt x="130" y="15" on="0"/>
        <pt x="95" y="67" on="0"/>
        <pt x="95" y="134" on="0"/>
        <pt x="207" y="544" on="0"/>
        <pt x="211" y="619" on="1"/>
        <pt x="211" y="642" on="1"/>
        <pt x="184" y="649" on="0"/>
        <pt x="153" y="676" on="0"/>
        <pt x="153" y="689" on="1"/>
        <pt x="153" y="707" on="0"/>
      </contour>
      <contour>
        <pt x="534" y="358" on="1"/>
        <pt x="534" y="439" on="0"/>
        <pt x="357" y="614" on="0"/>
        <pt x="255" y="634" on="1"/>
        <pt x="268" y="608" on="0"/>
        <pt x="268" y="566" on="0"/>
        <pt x="265" y="541" on="0"/>
        <pt x="257" y="504" on="0"/>
        <pt x="249" y="471" on="0"/>
        <pt x="233" y="413" on="0"/>
        <pt x="221" y="368" on="0"/>
        <pt x="198" y="286" on="0"/>
        <pt x="190" y="256" on="1"/>
        <pt x="166" y="175" on="0"/>
        <pt x="155" y="77" on="1"/>
        <pt x="210" y="79" on="0"/>
        <pt x="349" y="147" on="0"/>
        <pt x="458" y="237" on="0"/>
        <pt x="534" y="330" on="0"/>
      </contour>
    </TTGlyph>
    <TTGlyph name="Dcaron" xMin="95" yMin="15" xMax="638" yMax="915">
      <contour>
        <pt x="517" y="828" on="0"/>
        <pt x="597" y="881" on="0"/>
        <pt x="638" y="881" on="0"/>
        <pt x="638" y="861" on="1"/>
        <pt x="638" y="847" on="0"/>
        <pt x="614" y="826" on="0"/>
        <pt x="560" y="794" on="0"/>
        <pt x="533" y="774" on="0"/>
        <pt x="513" y="756" on="1"/>
        <pt x="473" y="720" on="0"/>
        <pt x="450" y="720" on="0"/>
        <pt x="377" y="780" on="0"/>
        <pt x="310" y="863" on="0"/>
        <pt x="310" y="888" on="1"/>
        <pt x="310" y="900" on="0"/>
        <pt x="324" y="915" on="0"/>
        <pt x="344" y="915" on="0"/>
        <pt x="367" y="889" on="0"/>
        <pt x="388" y="852" on="0"/>
        <pt x="434" y="797" on="0"/>
        <pt x="463" y="775" on="1"/>
      </contour>
      <contour>
        <pt x="173" y="707" on="1"/>
        <pt x="260" y="707" on="0"/>
        <pt x="457" y="612" on="0"/>
        <pt x="598" y="445" on="0"/>
        <pt x="598" y="356" on="1"/>
        <pt x="598" y="293" on="0"/>
        <pt x="436" y="129" on="0"/>
        <pt x="222" y="15" on="0"/>
        <pt x="150" y="15" on="1"/>
        <pt x="130" y="15" on="0"/>
        <pt x="95" y="67" on="0"/>
        <pt x="95" y="134" on="0"/>
        <pt x="207" y="544" on="0"/>
        <pt x="211" y="619" on="1"/>
        <pt x="211" y="642" on="1"/>
        <pt x="184" y="649" on="0"/>
        <pt x="153" y="676" on="0"/>
        <pt x="153" y="689" on="1"/>
        <pt x="153" y="707" on="0"/>
      </contour>
      <contour>
        <pt x="534" y="358" on="1"/>
        <pt x="534" y="439" on="0"/>
        <pt x="357" y="614" on="0"/>
        <pt x="255" y="634" on="1"/>
        <pt x="268" y="608" on="0"/>
        <pt x="268" y="566" on="0"/>
        <pt x="265" y="541" on="0"/>
        <pt x="257" y="504" on="0"/>
        <pt x="249" y="471" on="0"/>
        <pt x="233" y="413" on="0"/>
        <pt x="221" y="368" on="0"/>
        <pt x="198" y="286" on="0"/>
        <pt x="190" y="256" on="1"/>
        <pt x="166" y="175" on="0"/>
        <pt x="155" y="77" on="1"/>
        <pt x="210" y="79" on="0"/>
        <pt x="349" y="147" on="0"/>
        <pt x="458" y="237" on="0"/>
        <pt x="534" y="330" on="0"/>
      </contour>
    </TTGlyph>
    <TTGlyph name="Dcroat" xMin="2" yMin="15" xMax="603" yMax="707">
      <contour>
        <pt x="158" y="689" on="1"/>
        <pt x="158" y="707" on="0"/>
        <pt x="178" y="707" on="1"/>
        <pt x="265" y="707" on="0"/>
        <pt x="462" y="612" on="0"/>
        <pt x="603" y="445" on="0"/>
        <pt x="603" y="356" on="1"/>
        <pt x="603" y="293" on="0"/>
        <pt x="441" y="129" on="0"/>
        <pt x="227" y="15" on="0"/>
        <pt x="155" y="15" on="1"/>
        <pt x="135" y="15" on="0"/>
        <pt x="100" y="67" on="0"/>
        <pt x="100" y="133" on="0"/>
        <pt x="138" y="271" on="1"/>
        <pt x="58" y="262" on="1"/>
        <pt x="34" y="259" on="0"/>
        <pt x="4" y="272" on="0"/>
        <pt x="1" y="293" on="0"/>
        <pt x="30" y="311" on="0"/>
        <pt x="54" y="314" on="1"/>
        <pt x="152" y="325" on="1"/>
        <pt x="212" y="544" on="0"/>
        <pt x="216" y="619" on="1"/>
        <pt x="216" y="642" on="1"/>
        <pt x="189" y="649" on="0"/>
        <pt x="158" y="676" on="0"/>
      </contour>
      <contour>
        <pt x="539" y="358" on="1"/>
        <pt x="539" y="439" on="0"/>
        <pt x="362" y="614" on="0"/>
        <pt x="260" y="634" on="1"/>
        <pt x="273" y="608" on="0"/>
        <pt x="273" y="539" on="0"/>
        <pt x="216" y="332" on="1"/>
        <pt x="323" y="344" on="0"/>
        <pt x="328" y="310" on="1"/>
        <pt x="331" y="294" on="0"/>
        <pt x="292" y="289" on="1"/>
        <pt x="201" y="279" on="1"/>
        <pt x="195" y="256" on="1"/>
        <pt x="171" y="175" on="0"/>
        <pt x="160" y="77" on="1"/>
        <pt x="215" y="79" on="0"/>
        <pt x="354" y="147" on="0"/>
        <pt x="463" y="237" on="0"/>
        <pt x="539" y="330" on="0"/>
      </contour>
    </TTGlyph>
    <TTGlyph name="E" xMin="83" yMin="12" xMax="612" yMax="701">
      <contour>
        <pt x="208" y="341" on="1"/>
        <pt x="145" y="143" on="0"/>
        <pt x="145" y="104" on="1"/>
        <pt x="145" y="89" on="0"/>
        <pt x="164" y="72" on="0"/>
        <pt x="178" y="72" on="1"/>
        <pt x="305" y="72" on="0"/>
        <pt x="443" y="112" on="1"/>
        <pt x="490" y="125" on="0"/>
        <pt x="497" y="125" on="1"/>
        <pt x="509" y="125" on="0"/>
        <pt x="509" y="107" on="1"/>
        <pt x="509" y="80" on="0"/>
        <pt x="288" y="12" on="0"/>
        <pt x="195" y="12" on="1"/>
        <pt x="149" y="12" on="0"/>
        <pt x="83" y="59" on="0"/>
        <pt x="83" y="91" on="1"/>
        <pt x="83" y="137" on="0"/>
        <pt x="146" y="338" on="0"/>
        <pt x="209" y="564" on="0"/>
        <pt x="209" y="641" on="1"/>
        <pt x="209" y="655" on="0"/>
        <pt x="214" y="665" on="1"/>
        <pt x="222" y="701" on="0"/>
        <pt x="612" y="701" on="0"/>
        <pt x="612" y="682" on="1"/>
        <pt x="612" y="668" on="0"/>
        <pt x="541" y="657" on="0"/>
        <pt x="489" y="653" on="1"/>
        <pt x="424" y="648" on="0"/>
        <pt x="403" y="647" on="0"/>
        <pt x="362" y="644" on="0"/>
        <pt x="273" y="632" on="0"/>
        <pt x="268" y="631" on="1"/>
        <pt x="268" y="621" on="1"/>
        <pt x="268" y="553" on="0"/>
        <pt x="223" y="392" on="1"/>
        <pt x="234" y="391" on="0"/>
        <pt x="266" y="391" on="1"/>
        <pt x="449" y="401" on="1"/>
        <pt x="486" y="401" on="0"/>
        <pt x="486" y="392" on="1"/>
        <pt x="486" y="340" on="0"/>
        <pt x="218" y="340" on="1"/>
        <pt x="211" y="340" on="0"/>
      </contour>
    </TTGlyph>
    <TTGlyph name="Eacute" xMin="83" yMin="12" xMax="612" yMax="943">
      <contour>
        <pt x="208" y="341" on="1"/>
        <pt x="145" y="143" on="0"/>
        <pt x="145" y="104" on="1"/>
        <pt x="145" y="89" on="0"/>
        <pt x="164" y="72" on="0"/>
        <pt x="178" y="72" on="1"/>
        <pt x="305" y="72" on="0"/>
        <pt x="443" y="112" on="1"/>
        <pt x="490" y="125" on="0"/>
        <pt x="497" y="125" on="1"/>
        <pt x="509" y="125" on="0"/>
        <pt x="509" y="107" on="1"/>
        <pt x="509" y="80" on="0"/>
        <pt x="288" y="12" on="0"/>
        <pt x="195" y="12" on="1"/>
        <pt x="149" y="12" on="0"/>
        <pt x="83" y="59" on="0"/>
        <pt x="83" y="91" on="1"/>
        <pt x="83" y="137" on="0"/>
        <pt x="146" y="338" on="0"/>
        <pt x="209" y="564" on="0"/>
        <pt x="209" y="641" on="1"/>
        <pt x="209" y="655" on="0"/>
        <pt x="214" y="665" on="1"/>
        <pt x="222" y="701" on="0"/>
        <pt x="612" y="701" on="0"/>
        <pt x="612" y="682" on="1"/>
        <pt x="612" y="668" on="0"/>
        <pt x="541" y="657" on="0"/>
        <pt x="489" y="653" on="1"/>
        <pt x="424" y="648" on="0"/>
        <pt x="403" y="647" on="0"/>
        <pt x="362" y="644" on="0"/>
        <pt x="273" y="632" on="0"/>
        <pt x="268" y="631" on="1"/>
        <pt x="268" y="621" on="1"/>
        <pt x="268" y="553" on="0"/>
        <pt x="223" y="392" on="1"/>
        <pt x="234" y="391" on="0"/>
        <pt x="266" y="391" on="1"/>
        <pt x="449" y="401" on="1"/>
        <pt x="486" y="401" on="0"/>
        <pt x="486" y="392" on="1"/>
        <pt x="486" y="340" on="0"/>
        <pt x="218" y="340" on="1"/>
        <pt x="211" y="340" on="0"/>
      </contour>
      <contour>
        <pt x="598" y="928" on="0"/>
        <pt x="598" y="891" on="0"/>
        <pt x="589" y="885" on="1"/>
        <pt x="472" y="792" on="1"/>
        <pt x="443" y="771" on="0"/>
        <pt x="415" y="804" on="0"/>
        <pt x="439" y="828" on="1"/>
        <pt x="549" y="943" on="1"/>
        <pt x="568" y="961" on="0"/>
        <pt x="586" y="940" on="1"/>
      </contour>
    </TTGlyph>
    <TTGlyph name="Ecaron" xMin="83" yMin="12" xMax="612" yMax="965">
      <contour>
        <pt x="208" y="341" on="1"/>
        <pt x="145" y="143" on="0"/>
        <pt x="145" y="104" on="1"/>
        <pt x="145" y="89" on="0"/>
        <pt x="164" y="72" on="0"/>
        <pt x="178" y="72" on="1"/>
        <pt x="305" y="72" on="0"/>
        <pt x="443" y="112" on="1"/>
        <pt x="490" y="125" on="0"/>
        <pt x="497" y="125" on="1"/>
        <pt x="509" y="125" on="0"/>
        <pt x="509" y="107" on="1"/>
        <pt x="509" y="80" on="0"/>
        <pt x="288" y="12" on="0"/>
        <pt x="195" y="12" on="1"/>
        <pt x="149" y="12" on="0"/>
        <pt x="83" y="59" on="0"/>
        <pt x="83" y="91" on="1"/>
        <pt x="83" y="137" on="0"/>
        <pt x="146" y="338" on="0"/>
        <pt x="209" y="564" on="0"/>
        <pt x="209" y="641" on="1"/>
        <pt x="209" y="655" on="0"/>
        <pt x="214" y="665" on="1"/>
        <pt x="222" y="701" on="0"/>
        <pt x="612" y="701" on="0"/>
        <pt x="612" y="682" on="1"/>
        <pt x="612" y="668" on="0"/>
        <pt x="541" y="657" on="0"/>
        <pt x="489" y="653" on="1"/>
        <pt x="424" y="648" on="0"/>
        <pt x="403" y="647" on="0"/>
        <pt x="362" y="644" on="0"/>
        <pt x="273" y="632" on="0"/>
        <pt x="268" y="631" on="1"/>
        <pt x="268" y="621" on="1"/>
        <pt x="268" y="553" on="0"/>
        <pt x="223" y="392" on="1"/>
        <pt x="234" y="391" on="0"/>
        <pt x="266" y="391" on="1"/>
        <pt x="449" y="401" on="1"/>
        <pt x="486" y="401" on="0"/>
        <pt x="486" y="392" on="1"/>
        <pt x="486" y="340" on="0"/>
        <pt x="218" y="340" on="1"/>
        <pt x="211" y="340" on="0"/>
      </contour>
      <contour>
        <pt x="465" y="788" on="0"/>
        <pt x="441" y="770" on="0"/>
        <pt x="422" y="770" on="0"/>
        <pt x="349" y="830" on="0"/>
        <pt x="282" y="913" on="0"/>
        <pt x="282" y="938" on="1"/>
        <pt x="282" y="950" on="0"/>
        <pt x="296" y="965" on="0"/>
        <pt x="316" y="965" on="0"/>
        <pt x="339" y="939" on="0"/>
        <pt x="360" y="902" on="0"/>
        <pt x="406" y="847" on="0"/>
        <pt x="435" y="825" on="1"/>
        <pt x="489" y="878" on="0"/>
        <pt x="569" y="931" on="0"/>
        <pt x="610" y="931" on="0"/>
        <pt x="610" y="911" on="1"/>
        <pt x="610" y="897" on="0"/>
        <pt x="586" y="876" on="0"/>
        <pt x="532" y="844" on="0"/>
        <pt x="505" y="824" on="0"/>
      </contour>
    </TTGlyph>
    <TTGlyph name="Ecircumflex" xMin="83" yMin="12" xMax="612" yMax="939">
      <contour>
        <pt x="208" y="341" on="1"/>
        <pt x="145" y="143" on="0"/>
        <pt x="145" y="104" on="1"/>
        <pt x="145" y="89" on="0"/>
        <pt x="164" y="72" on="0"/>
        <pt x="178" y="72" on="1"/>
        <pt x="305" y="72" on="0"/>
        <pt x="443" y="112" on="1"/>
        <pt x="490" y="125" on="0"/>
        <pt x="497" y="125" on="1"/>
        <pt x="509" y="125" on="0"/>
        <pt x="509" y="107" on="1"/>
        <pt x="509" y="80" on="0"/>
        <pt x="288" y="12" on="0"/>
        <pt x="195" y="12" on="1"/>
        <pt x="149" y="12" on="0"/>
        <pt x="83" y="59" on="0"/>
        <pt x="83" y="91" on="1"/>
        <pt x="83" y="137" on="0"/>
        <pt x="146" y="338" on="0"/>
        <pt x="209" y="564" on="0"/>
        <pt x="209" y="641" on="1"/>
        <pt x="209" y="655" on="0"/>
        <pt x="214" y="665" on="1"/>
        <pt x="222" y="701" on="0"/>
        <pt x="612" y="701" on="0"/>
        <pt x="612" y="682" on="1"/>
        <pt x="612" y="668" on="0"/>
        <pt x="541" y="657" on="0"/>
        <pt x="489" y="653" on="1"/>
        <pt x="424" y="648" on="0"/>
        <pt x="403" y="647" on="0"/>
        <pt x="362" y="644" on="0"/>
        <pt x="273" y="632" on="0"/>
        <pt x="268" y="631" on="1"/>
        <pt x="268" y="621" on="1"/>
        <pt x="268" y="553" on="0"/>
        <pt x="223" y="392" on="1"/>
        <pt x="234" y="391" on="0"/>
        <pt x="266" y="391" on="1"/>
        <pt x="449" y="401" on="1"/>
        <pt x="486" y="401" on="0"/>
        <pt x="486" y="392" on="1"/>
        <pt x="486" y="340" on="0"/>
        <pt x="218" y="340" on="1"/>
        <pt x="211" y="340" on="0"/>
      </contour>
      <contour>
        <pt x="365" y="821" on="0"/>
        <pt x="320" y="788" on="0"/>
        <pt x="297" y="788" on="0"/>
        <pt x="281" y="800" on="0"/>
        <pt x="281" y="830" on="0"/>
        <pt x="311" y="861" on="0"/>
        <pt x="360" y="889" on="0"/>
        <pt x="392" y="909" on="0"/>
        <pt x="412" y="921" on="0"/>
        <pt x="435" y="933" on="0"/>
        <pt x="452" y="939" on="0"/>
        <pt x="462" y="939" on="0"/>
        <pt x="470" y="937" on="0"/>
        <pt x="477" y="935" on="0"/>
        <pt x="485" y="929" on="0"/>
        <pt x="490" y="926" on="0"/>
        <pt x="499" y="916" on="0"/>
        <pt x="501" y="914" on="1"/>
        <pt x="515" y="896" on="0"/>
        <pt x="518" y="893" on="1"/>
        <pt x="585" y="813" on="0"/>
        <pt x="585" y="778" on="0"/>
        <pt x="547" y="778" on="0"/>
        <pt x="517" y="806" on="0"/>
        <pt x="465" y="880" on="0"/>
        <pt x="460" y="887" on="1"/>
        <pt x="432" y="872" on="0"/>
      </contour>
    </TTGlyph>
    <TTGlyph name="Edieresis" xMin="83" yMin="12" xMax="612" yMax="905">
      <contour>
        <pt x="208" y="341" on="1"/>
        <pt x="145" y="143" on="0"/>
        <pt x="145" y="104" on="1"/>
        <pt x="145" y="89" on="0"/>
        <pt x="164" y="72" on="0"/>
        <pt x="178" y="72" on="1"/>
        <pt x="305" y="72" on="0"/>
        <pt x="443" y="112" on="1"/>
        <pt x="490" y="125" on="0"/>
        <pt x="497" y="125" on="1"/>
        <pt x="509" y="125" on="0"/>
        <pt x="509" y="107" on="1"/>
        <pt x="509" y="80" on="0"/>
        <pt x="288" y="12" on="0"/>
        <pt x="195" y="12" on="1"/>
        <pt x="149" y="12" on="0"/>
        <pt x="83" y="59" on="0"/>
        <pt x="83" y="91" on="1"/>
        <pt x="83" y="137" on="0"/>
        <pt x="146" y="338" on="0"/>
        <pt x="209" y="564" on="0"/>
        <pt x="209" y="641" on="1"/>
        <pt x="209" y="655" on="0"/>
        <pt x="214" y="665" on="1"/>
        <pt x="222" y="701" on="0"/>
        <pt x="612" y="701" on="0"/>
        <pt x="612" y="682" on="1"/>
        <pt x="612" y="668" on="0"/>
        <pt x="541" y="657" on="0"/>
        <pt x="489" y="653" on="1"/>
        <pt x="424" y="648" on="0"/>
        <pt x="403" y="647" on="0"/>
        <pt x="362" y="644" on="0"/>
        <pt x="273" y="632" on="0"/>
        <pt x="268" y="631" on="1"/>
        <pt x="268" y="621" on="1"/>
        <pt x="268" y="553" on="0"/>
        <pt x="223" y="392" on="1"/>
        <pt x="234" y="391" on="0"/>
        <pt x="266" y="391" on="1"/>
        <pt x="449" y="401" on="1"/>
        <pt x="486" y="401" on="0"/>
        <pt x="486" y="392" on="1"/>
        <pt x="486" y="340" on="0"/>
        <pt x="218" y="340" on="1"/>
        <pt x="211" y="340" on="0"/>
      </contour>
      <contour>
        <pt x="404" y="799" on="1"/>
        <pt x="384" y="799" on="0"/>
        <pt x="336" y="846" on="0"/>
        <pt x="336" y="878" on="0"/>
        <pt x="358" y="905" on="0"/>
        <pt x="385" y="905" on="0"/>
        <pt x="420" y="838" on="0"/>
        <pt x="420" y="824" on="1"/>
        <pt x="420" y="799" on="0"/>
      </contour>
      <contour>
        <pt x="540" y="799" on="1"/>
        <pt x="520" y="799" on="0"/>
        <pt x="472" y="846" on="0"/>
        <pt x="472" y="878" on="0"/>
        <pt x="494" y="905" on="0"/>
        <pt x="521" y="905" on="0"/>
        <pt x="556" y="838" on="0"/>
        <pt x="556" y="824" on="1"/>
        <pt x="556" y="799" on="0"/>
      </contour>
    </TTGlyph>
    <TTGlyph name="Edotaccent" xMin="83" yMin="12" xMax="612" yMax="906">
      <contour>
        <pt x="208" y="341" on="1"/>
        <pt x="145" y="143" on="0"/>
        <pt x="145" y="104" on="1"/>
        <pt x="145" y="89" on="0"/>
        <pt x="164" y="72" on="0"/>
        <pt x="178" y="72" on="1"/>
        <pt x="305" y="72" on="0"/>
        <pt x="443" y="112" on="1"/>
        <pt x="490" y="125" on="0"/>
        <pt x="497" y="125" on="1"/>
        <pt x="509" y="125" on="0"/>
        <pt x="509" y="107" on="1"/>
        <pt x="509" y="80" on="0"/>
        <pt x="288" y="12" on="0"/>
        <pt x="195" y="12" on="1"/>
        <pt x="149" y="12" on="0"/>
        <pt x="83" y="59" on="0"/>
        <pt x="83" y="91" on="1"/>
        <pt x="83" y="137" on="0"/>
        <pt x="146" y="338" on="0"/>
        <pt x="209" y="564" on="0"/>
        <pt x="209" y="641" on="1"/>
        <pt x="209" y="655" on="0"/>
        <pt x="214" y="665" on="1"/>
        <pt x="222" y="701" on="0"/>
        <pt x="612" y="701" on="0"/>
        <pt x="612" y="682" on="1"/>
        <pt x="612" y="668" on="0"/>
        <pt x="541" y="657" on="0"/>
        <pt x="489" y="653" on="1"/>
        <pt x="424" y="648" on="0"/>
        <pt x="403" y="647" on="0"/>
        <pt x="362" y="644" on="0"/>
        <pt x="273" y="632" on="0"/>
        <pt x="268" y="631" on="1"/>
        <pt x="268" y="621" on="1"/>
        <pt x="268" y="553" on="0"/>
        <pt x="223" y="392" on="1"/>
        <pt x="234" y="391" on="0"/>
        <pt x="266" y="391" on="1"/>
        <pt x="449" y="401" on="1"/>
        <pt x="486" y="401" on="0"/>
        <pt x="486" y="392" on="1"/>
        <pt x="486" y="340" on="0"/>
        <pt x="218" y="340" on="1"/>
        <pt x="211" y="340" on="0"/>
      </contour>
      <contour>
        <pt x="468" y="790" on="1"/>
        <pt x="449" y="790" on="0"/>
        <pt x="397" y="837" on="0"/>
        <pt x="397" y="872" on="0"/>
        <pt x="423" y="906" on="0"/>
        <pt x="451" y="906" on="0"/>
        <pt x="486" y="826" on="0"/>
        <pt x="486" y="804" on="1"/>
        <pt x="486" y="800" on="0"/>
        <pt x="474" y="790" on="0"/>
      </contour>
    </TTGlyph>
    <TTGlyph name="Egrave" xMin="83" yMin="12" xMax="612" yMax="937">
      <contour>
        <pt x="208" y="341" on="1"/>
        <pt x="145" y="143" on="0"/>
        <pt x="145" y="104" on="1"/>
        <pt x="145" y="89" on="0"/>
        <pt x="164" y="72" on="0"/>
        <pt x="178" y="72" on="1"/>
        <pt x="305" y="72" on="0"/>
        <pt x="443" y="112" on="1"/>
        <pt x="490" y="125" on="0"/>
        <pt x="497" y="125" on="1"/>
        <pt x="509" y="125" on="0"/>
        <pt x="509" y="107" on="1"/>
        <pt x="509" y="80" on="0"/>
        <pt x="288" y="12" on="0"/>
        <pt x="195" y="12" on="1"/>
        <pt x="149" y="12" on="0"/>
        <pt x="83" y="59" on="0"/>
        <pt x="83" y="91" on="1"/>
        <pt x="83" y="137" on="0"/>
        <pt x="146" y="338" on="0"/>
        <pt x="209" y="564" on="0"/>
        <pt x="209" y="641" on="1"/>
        <pt x="209" y="655" on="0"/>
        <pt x="214" y="665" on="1"/>
        <pt x="222" y="701" on="0"/>
        <pt x="612" y="701" on="0"/>
        <pt x="612" y="682" on="1"/>
        <pt x="612" y="668" on="0"/>
        <pt x="541" y="657" on="0"/>
        <pt x="489" y="653" on="1"/>
        <pt x="424" y="648" on="0"/>
        <pt x="403" y="647" on="0"/>
        <pt x="362" y="644" on="0"/>
        <pt x="273" y="632" on="0"/>
        <pt x="268" y="631" on="1"/>
        <pt x="268" y="621" on="1"/>
        <pt x="268" y="553" on="0"/>
        <pt x="223" y="392" on="1"/>
        <pt x="234" y="391" on="0"/>
        <pt x="266" y="391" on="1"/>
        <pt x="449" y="401" on="1"/>
        <pt x="486" y="401" on="0"/>
        <pt x="486" y="392" on="1"/>
        <pt x="486" y="340" on="0"/>
        <pt x="218" y="340" on="1"/>
        <pt x="211" y="340" on="0"/>
      </contour>
      <contour>
        <pt x="443" y="793" on="1"/>
        <pt x="331" y="880" on="1"/>
        <pt x="321" y="887" on="0"/>
        <pt x="320" y="919" on="0"/>
        <pt x="332" y="932" on="1"/>
        <pt x="354" y="957" on="0"/>
        <pt x="374" y="937" on="1"/>
        <pt x="475" y="827" on="1"/>
        <pt x="499" y="802" on="0"/>
        <pt x="469" y="771" on="0"/>
      </contour>
    </TTGlyph>
    <TTGlyph name="Emacron" xMin="83" yMin="12" xMax="612" yMax="854">
      <contour>
        <pt x="208" y="341" on="1"/>
        <pt x="145" y="143" on="0"/>
        <pt x="145" y="104" on="1"/>
        <pt x="145" y="89" on="0"/>
        <pt x="164" y="72" on="0"/>
        <pt x="178" y="72" on="1"/>
        <pt x="305" y="72" on="0"/>
        <pt x="443" y="112" on="1"/>
        <pt x="490" y="125" on="0"/>
        <pt x="497" y="125" on="1"/>
        <pt x="509" y="125" on="0"/>
        <pt x="509" y="107" on="1"/>
        <pt x="509" y="80" on="0"/>
        <pt x="288" y="12" on="0"/>
        <pt x="195" y="12" on="1"/>
        <pt x="149" y="12" on="0"/>
        <pt x="83" y="59" on="0"/>
        <pt x="83" y="91" on="1"/>
        <pt x="83" y="137" on="0"/>
        <pt x="146" y="338" on="0"/>
        <pt x="209" y="564" on="0"/>
        <pt x="209" y="641" on="1"/>
        <pt x="209" y="655" on="0"/>
        <pt x="214" y="665" on="1"/>
        <pt x="222" y="701" on="0"/>
        <pt x="612" y="701" on="0"/>
        <pt x="612" y="682" on="1"/>
        <pt x="612" y="668" on="0"/>
        <pt x="541" y="657" on="0"/>
        <pt x="489" y="653" on="1"/>
        <pt x="424" y="648" on="0"/>
        <pt x="403" y="647" on="0"/>
        <pt x="362" y="644" on="0"/>
        <pt x="273" y="632" on="0"/>
        <pt x="268" y="631" on="1"/>
        <pt x="268" y="621" on="1"/>
        <pt x="268" y="553" on="0"/>
        <pt x="223" y="392" on="1"/>
        <pt x="234" y="391" on="0"/>
        <pt x="266" y="391" on="1"/>
        <pt x="449" y="401" on="1"/>
        <pt x="486" y="401" on="0"/>
        <pt x="486" y="392" on="1"/>
        <pt x="486" y="340" on="0"/>
        <pt x="218" y="340" on="1"/>
        <pt x="211" y="340" on="0"/>
      </contour>
      <contour>
        <pt x="362" y="797" on="0"/>
        <pt x="329" y="794" on="0"/>
        <pt x="300" y="794" on="0"/>
        <pt x="266" y="822" on="0"/>
        <pt x="266" y="834" on="1"/>
        <pt x="266" y="860" on="0"/>
        <pt x="549" y="854" on="1"/>
        <pt x="583" y="853" on="0"/>
        <pt x="605" y="845" on="0"/>
        <pt x="605" y="835" on="1"/>
        <pt x="604" y="823" on="0"/>
        <pt x="547" y="813" on="0"/>
        <pt x="423" y="804" on="0"/>
      </contour>
    </TTGlyph>
    <TTGlyph name="Eogonek" xMin="83" yMin="-96" xMax="612" yMax="701">
      <contour>
        <pt x="208" y="341" on="1"/>
        <pt x="145" y="143" on="0"/>
        <pt x="145" y="104" on="1"/>
        <pt x="145" y="89" on="0"/>
        <pt x="164" y="72" on="0"/>
        <pt x="210" y="72" on="0"/>
        <pt x="277" y="78" on="0"/>
        <pt x="327" y="85" on="0"/>
        <pt x="389" y="98" on="0"/>
        <pt x="419" y="106" on="0"/>
        <pt x="470" y="120" on="0"/>
        <pt x="474" y="121" on="1"/>
        <pt x="499" y="132" on="0"/>
        <pt x="512" y="120" on="1"/>
        <pt x="520" y="114" on="0"/>
        <pt x="509" y="80" on="0"/>
        <pt x="490" y="65" on="1"/>
        <pt x="418" y="9" on="0"/>
        <pt x="418" y="-23" on="1"/>
        <pt x="418" y="-46" on="0"/>
        <pt x="461" y="-46" on="1"/>
        <pt x="477" y="-46" on="0"/>
        <pt x="512" y="-30" on="0"/>
        <pt x="517" y="-30" on="1"/>
        <pt x="537" y="-28" on="0"/>
        <pt x="540" y="-48" on="1"/>
        <pt x="542" y="-69" on="0"/>
        <pt x="474" y="-96" on="0"/>
        <pt x="413" y="-96" on="0"/>
        <pt x="362" y="-57" on="0"/>
        <pt x="362" y="4" on="0"/>
        <pt x="392" y="44" on="1"/>
        <pt x="284" y="12" on="0"/>
        <pt x="195" y="12" on="1"/>
        <pt x="149" y="12" on="0"/>
        <pt x="83" y="59" on="0"/>
        <pt x="83" y="91" on="1"/>
        <pt x="83" y="137" on="0"/>
        <pt x="146" y="338" on="0"/>
        <pt x="209" y="564" on="0"/>
        <pt x="209" y="641" on="1"/>
        <pt x="209" y="655" on="0"/>
        <pt x="214" y="665" on="1"/>
        <pt x="222" y="701" on="0"/>
        <pt x="612" y="701" on="0"/>
        <pt x="612" y="682" on="1"/>
        <pt x="612" y="668" on="0"/>
        <pt x="541" y="657" on="0"/>
        <pt x="489" y="653" on="1"/>
        <pt x="424" y="648" on="0"/>
        <pt x="403" y="647" on="0"/>
        <pt x="362" y="644" on="0"/>
        <pt x="273" y="632" on="0"/>
        <pt x="268" y="631" on="1"/>
        <pt x="268" y="621" on="1"/>
        <pt x="268" y="553" on="0"/>
        <pt x="223" y="392" on="1"/>
        <pt x="234" y="391" on="0"/>
        <pt x="266" y="391" on="1"/>
        <pt x="449" y="401" on="1"/>
        <pt x="486" y="401" on="0"/>
        <pt x="486" y="392" on="1"/>
        <pt x="486" y="340" on="0"/>
        <pt x="218" y="340" on="1"/>
        <pt x="211" y="340" on="0"/>
      </contour>
    </TTGlyph>
    <TTGlyph name="Eth" xMin="13" yMin="-17" xMax="596" yMax="675">
      <contour>
        <pt x="151" y="657" on="1"/>
        <pt x="151" y="675" on="0"/>
        <pt x="171" y="675" on="1"/>
        <pt x="258" y="675" on="0"/>
        <pt x="455" y="580" on="0"/>
        <pt x="596" y="413" on="0"/>
        <pt x="596" y="324" on="1"/>
        <pt x="596" y="261" on="0"/>
        <pt x="434" y="97" on="0"/>
        <pt x="220" y="-17" on="0"/>
        <pt x="148" y="-17" on="1"/>
        <pt x="128" y="-17" on="0"/>
        <pt x="93" y="35" on="0"/>
        <pt x="93" y="103" on="0"/>
        <pt x="140" y="272" on="1"/>
        <pt x="91" y="266" on="1"/>
        <pt x="70" y="264" on="0"/>
        <pt x="44" y="267" on="1"/>
        <pt x="9" y="271" on="0"/>
        <pt x="14" y="285" on="1"/>
        <pt x="17" y="298" on="0"/>
        <pt x="43" y="304" on="1"/>
        <pt x="43" y="306" on="0"/>
        <pt x="82" y="312" on="0"/>
        <pt x="92" y="314" on="1"/>
        <pt x="132" y="322" on="0"/>
        <pt x="154" y="324" on="1"/>
        <pt x="206" y="515" on="0"/>
        <pt x="209" y="587" on="1"/>
        <pt x="209" y="610" on="1"/>
        <pt x="182" y="617" on="0"/>
        <pt x="151" y="644" on="0"/>
      </contour>
      <contour>
        <pt x="532" y="326" on="1"/>
        <pt x="532" y="407" on="0"/>
        <pt x="355" y="582" on="0"/>
        <pt x="253" y="602" on="1"/>
        <pt x="266" y="576" on="0"/>
        <pt x="266" y="504" on="0"/>
        <pt x="218" y="332" on="1"/>
        <pt x="250" y="335" on="0"/>
        <pt x="310" y="327" on="0"/>
        <pt x="311" y="317" on="1"/>
        <pt x="325" y="311" on="0"/>
        <pt x="310" y="301" on="1"/>
        <pt x="306" y="299" on="0"/>
        <pt x="301" y="295" on="0"/>
        <pt x="204" y="281" on="1"/>
        <pt x="188" y="224" on="1"/>
        <pt x="164" y="143" on="0"/>
        <pt x="153" y="45" on="1"/>
        <pt x="208" y="47" on="0"/>
        <pt x="347" y="115" on="0"/>
        <pt x="456" y="205" on="0"/>
        <pt x="532" y="298" on="0"/>
      </contour>
    </TTGlyph>
    <TTGlyph name="Euro" xMin="20" yMin="17" xMax="544" yMax="644">
      <contour>
        <pt x="99" y="190" on="1"/>
        <pt x="99" y="198" on="1"/>
        <pt x="74" y="194" on="0"/>
        <pt x="43" y="194" on="0"/>
        <pt x="20" y="217" on="0"/>
        <pt x="20" y="226" on="1"/>
        <pt x="20" y="238" on="0"/>
        <pt x="107" y="254" on="1"/>
        <pt x="116" y="301" on="0"/>
        <pt x="145" y="360" on="1"/>
        <pt x="113" y="357" on="0"/>
        <pt x="84" y="358" on="0"/>
        <pt x="61" y="382" on="0"/>
        <pt x="62" y="391" on="1"/>
        <pt x="63" y="407" on="0"/>
        <pt x="177" y="418" on="1"/>
        <pt x="236" y="515" on="0"/>
        <pt x="398" y="644" on="0"/>
        <pt x="472" y="644" on="1"/>
        <pt x="496" y="644" on="0"/>
        <pt x="544" y="599" on="0"/>
        <pt x="544" y="561" on="0"/>
        <pt x="531" y="561" on="1"/>
        <pt x="524" y="561" on="0"/>
        <pt x="485" y="581" on="0"/>
        <pt x="469" y="581" on="1"/>
        <pt x="427" y="581" on="0"/>
        <pt x="305" y="492" on="0"/>
        <pt x="254" y="425" on="1"/>
        <pt x="390" y="433" on="0"/>
        <pt x="424" y="430" on="1"/>
        <pt x="486" y="423" on="0"/>
        <pt x="484" y="403" on="1"/>
        <pt x="483" y="392" on="0"/>
        <pt x="442" y="386" on="1"/>
        <pt x="364" y="376" on="0"/>
        <pt x="216" y="368" on="1"/>
        <pt x="184" y="310" on="0"/>
        <pt x="172" y="265" on="1"/>
        <pt x="333" y="287" on="0"/>
        <pt x="373" y="286" on="1"/>
        <pt x="446" y="283" on="0"/>
        <pt x="444" y="264" on="1"/>
        <pt x="444" y="252" on="0"/>
        <pt x="358" y="235" on="0"/>
        <pt x="189" y="212" on="1"/>
        <pt x="162" y="208" on="1"/>
        <pt x="162" y="195" on="1"/>
        <pt x="162" y="146" on="0"/>
        <pt x="226" y="80" on="0"/>
        <pt x="321" y="80" on="0"/>
        <pt x="402" y="104" on="0"/>
        <pt x="426" y="118" on="1"/>
        <pt x="492" y="157" on="0"/>
        <pt x="518" y="157" on="0"/>
        <pt x="518" y="141" on="1"/>
        <pt x="518" y="113" on="0"/>
        <pt x="348" y="17" on="0"/>
        <pt x="203" y="17" on="0"/>
        <pt x="99" y="119" on="0"/>
      </contour>
    </TTGlyph>
    <TTGlyph name="F" xMin="64" yMin="17" xMax="588" yMax="701">
      <contour>
        <pt x="197" y="334" on="1"/>
        <pt x="191" y="334" on="1"/>
        <pt x="118" y="37" on="0"/>
        <pt x="104" y="20" on="1"/>
        <pt x="101" y="17" on="0"/>
        <pt x="99" y="17" on="1"/>
        <pt x="89" y="17" on="0"/>
        <pt x="62" y="58" on="0"/>
        <pt x="64" y="72" on="1"/>
        <pt x="70" y="104" on="0"/>
        <pt x="102" y="220" on="1"/>
        <pt x="186" y="529" on="0"/>
        <pt x="189" y="641" on="1"/>
        <pt x="189" y="652" on="0"/>
        <pt x="193" y="662" on="1"/>
        <pt x="197" y="701" on="0"/>
        <pt x="588" y="701" on="0"/>
        <pt x="588" y="680" on="1"/>
        <pt x="588" y="665" on="0"/>
        <pt x="503" y="657" on="1"/>
        <pt x="481" y="655" on="0"/>
        <pt x="403" y="648" on="0"/>
        <pt x="269" y="634" on="0"/>
        <pt x="245" y="633" on="1"/>
        <pt x="246" y="628" on="0"/>
        <pt x="246" y="619" on="1"/>
        <pt x="246" y="559" on="0"/>
        <pt x="204" y="387" on="1"/>
        <pt x="248" y="387" on="1"/>
        <pt x="301" y="388" on="0"/>
        <pt x="417" y="397" on="0"/>
        <pt x="427" y="397" on="1"/>
        <pt x="464" y="397" on="0"/>
        <pt x="464" y="388" on="1"/>
        <pt x="464" y="377" on="0"/>
        <pt x="401" y="352" on="0"/>
        <pt x="274" y="334" on="0"/>
      </contour>
    </TTGlyph>
    <TTGlyph name="G" xMin="59" yMin="-93" xMax="540" yMax="704">
      <contour>
        <pt x="464" y="704" on="1"/>
        <pt x="491" y="704" on="0"/>
        <pt x="540" y="651" on="0"/>
        <pt x="540" y="619" on="0"/>
        <pt x="530" y="619" on="1"/>
        <pt x="526" y="619" on="0"/>
        <pt x="486" y="638" on="0"/>
        <pt x="466" y="638" on="1"/>
        <pt x="406" y="638" on="0"/>
        <pt x="244" y="500" on="0"/>
        <pt x="125" y="290" on="0"/>
        <pt x="125" y="200" on="1"/>
        <pt x="125" y="150" on="0"/>
        <pt x="187" y="80" on="0"/>
        <pt x="273" y="80" on="0"/>
        <pt x="397" y="195" on="0"/>
        <pt x="463" y="296" on="1"/>
        <pt x="394" y="273" on="0"/>
        <pt x="341" y="273" on="0"/>
        <pt x="309" y="297" on="0"/>
        <pt x="309" y="307" on="1"/>
        <pt x="309" y="335" on="0"/>
        <pt x="461" y="335" on="1"/>
        <pt x="484" y="335" on="0"/>
        <pt x="523" y="290" on="0"/>
        <pt x="523" y="269" on="1"/>
        <pt x="523" y="226" on="0"/>
        <pt x="417" y="-93" on="0"/>
        <pt x="400" y="-93" on="1"/>
        <pt x="377" y="-93" on="0"/>
        <pt x="377" y="-64" on="1"/>
        <pt x="377" y="-38" on="0"/>
        <pt x="449" y="168" on="0"/>
        <pt x="465" y="222" on="1"/>
        <pt x="415" y="127" on="0"/>
        <pt x="283" y="16" on="0"/>
        <pt x="165" y="16" on="0"/>
        <pt x="59" y="129" on="0"/>
        <pt x="59" y="195" on="1"/>
        <pt x="59" y="292" on="0"/>
        <pt x="186" y="532" on="0"/>
        <pt x="380" y="704" on="0"/>
      </contour>
    </TTGlyph>
    <TTGlyph name="Gbreve" xMin="59" yMin="-93" xMax="673" yMax="925">
      <contour>
        <pt x="654" y="895" on="1"/>
        <pt x="673" y="895" on="0"/>
        <pt x="673" y="876" on="1"/>
        <pt x="673" y="849" on="0"/>
        <pt x="580" y="788" on="0"/>
        <pt x="494" y="788" on="0"/>
        <pt x="415" y="851" on="0"/>
        <pt x="415" y="883" on="1"/>
        <pt x="415" y="901" on="0"/>
        <pt x="435" y="925" on="0"/>
        <pt x="455" y="925" on="0"/>
        <pt x="471" y="898" on="0"/>
        <pt x="485" y="866" on="0"/>
        <pt x="520" y="839" on="0"/>
        <pt x="572" y="839" on="0"/>
        <pt x="614" y="867" on="0"/>
        <pt x="643" y="895" on="0"/>
      </contour>
      <contour>
        <pt x="464" y="704" on="1"/>
        <pt x="491" y="704" on="0"/>
        <pt x="540" y="651" on="0"/>
        <pt x="540" y="619" on="0"/>
        <pt x="530" y="619" on="1"/>
        <pt x="526" y="619" on="0"/>
        <pt x="486" y="638" on="0"/>
        <pt x="466" y="638" on="1"/>
        <pt x="406" y="638" on="0"/>
        <pt x="244" y="500" on="0"/>
        <pt x="125" y="290" on="0"/>
        <pt x="125" y="200" on="1"/>
        <pt x="125" y="150" on="0"/>
        <pt x="187" y="80" on="0"/>
        <pt x="273" y="80" on="0"/>
        <pt x="397" y="195" on="0"/>
        <pt x="463" y="296" on="1"/>
        <pt x="394" y="273" on="0"/>
        <pt x="341" y="273" on="0"/>
        <pt x="309" y="297" on="0"/>
        <pt x="309" y="307" on="1"/>
        <pt x="309" y="335" on="0"/>
        <pt x="461" y="335" on="1"/>
        <pt x="484" y="335" on="0"/>
        <pt x="523" y="290" on="0"/>
        <pt x="523" y="269" on="1"/>
        <pt x="523" y="226" on="0"/>
        <pt x="417" y="-93" on="0"/>
        <pt x="400" y="-93" on="1"/>
        <pt x="377" y="-93" on="0"/>
        <pt x="377" y="-64" on="1"/>
        <pt x="377" y="-38" on="0"/>
        <pt x="449" y="168" on="0"/>
        <pt x="465" y="222" on="1"/>
        <pt x="415" y="127" on="0"/>
        <pt x="283" y="16" on="0"/>
        <pt x="165" y="16" on="0"/>
        <pt x="59" y="129" on="0"/>
        <pt x="59" y="195" on="1"/>
        <pt x="59" y="292" on="0"/>
        <pt x="186" y="532" on="0"/>
        <pt x="380" y="704" on="0"/>
      </contour>
    </TTGlyph>
    <TTGlyph name="H" xMin="75" yMin="19" xMax="628" yMax="707">
      <contour>
        <pt x="122" y="298" on="1"/>
        <pt x="111" y="298" on="0"/>
        <pt x="90" y="316" on="0"/>
        <pt x="90" y="329" on="1"/>
        <pt x="90" y="339" on="0"/>
        <pt x="143" y="352" on="1"/>
        <pt x="213" y="614" on="0"/>
        <pt x="213" y="678" on="1"/>
        <pt x="213" y="697" on="0"/>
        <pt x="218" y="707" on="0"/>
        <pt x="240" y="707" on="0"/>
        <pt x="268" y="662" on="0"/>
        <pt x="268" y="637" on="1"/>
        <pt x="268" y="580" on="0"/>
        <pt x="211" y="368" on="1"/>
        <pt x="389" y="402" on="0"/>
        <pt x="517" y="411" on="1"/>
        <pt x="571" y="616" on="0"/>
        <pt x="571" y="678" on="1"/>
        <pt x="571" y="695" on="0"/>
        <pt x="577" y="707" on="0"/>
        <pt x="599" y="707" on="0"/>
        <pt x="628" y="663" on="0"/>
        <pt x="628" y="594" on="0"/>
        <pt x="581" y="411" on="1"/>
        <pt x="624" y="408" on="0"/>
        <pt x="624" y="391" on="1"/>
        <pt x="624" y="376" on="0"/>
        <pt x="569" y="368" on="1"/>
        <pt x="550" y="299" on="0"/>
        <pt x="538" y="256" on="0"/>
        <pt x="515" y="169" on="0"/>
        <pt x="498" y="108" on="0"/>
        <pt x="490" y="78" on="1"/>
        <pt x="474" y="19" on="0"/>
        <pt x="468" y="19" on="1"/>
        <pt x="457" y="19" on="0"/>
        <pt x="434" y="47" on="0"/>
        <pt x="434" y="95" on="0"/>
        <pt x="504" y="359" on="1"/>
        <pt x="401" y="346" on="0"/>
        <pt x="322" y="333" on="0"/>
        <pt x="195" y="308" on="1"/>
        <pt x="178" y="249" on="0"/>
        <pt x="157" y="169" on="0"/>
        <pt x="140" y="108" on="0"/>
        <pt x="132" y="78" on="1"/>
        <pt x="116" y="19" on="0"/>
        <pt x="110" y="19" on="1"/>
        <pt x="99" y="19" on="0"/>
        <pt x="75" y="48" on="0"/>
        <pt x="75" y="97" on="0"/>
        <pt x="129" y="298" on="1"/>
      </contour>
    </TTGlyph>
    <TTGlyph name="I" xMin="77" yMin="22" xMax="266" yMax="704">
      <contour>
        <pt x="208" y="675" on="1"/>
        <pt x="208" y="693" on="0"/>
        <pt x="213" y="704" on="0"/>
        <pt x="237" y="704" on="0"/>
        <pt x="266" y="660" on="0"/>
        <pt x="266" y="635" on="1"/>
        <pt x="266" y="568" on="0"/>
        <pt x="192" y="296" on="1"/>
        <pt x="184" y="268" on="0"/>
        <pt x="160" y="173" on="0"/>
        <pt x="144" y="115" on="0"/>
        <pt x="135" y="84" on="1"/>
        <pt x="117" y="22" on="0"/>
        <pt x="111" y="22" on="1"/>
        <pt x="101" y="22" on="0"/>
        <pt x="77" y="51" on="0"/>
        <pt x="77" y="93" on="0"/>
        <pt x="208" y="611" on="0"/>
      </contour>
    </TTGlyph>
    <TTGlyph name="Iacute" xMin="77" yMin="22" xMax="428" yMax="943">
      <contour>
        <pt x="428" y="928" on="0"/>
        <pt x="428" y="891" on="0"/>
        <pt x="419" y="885" on="1"/>
        <pt x="302" y="792" on="1"/>
        <pt x="273" y="771" on="0"/>
        <pt x="245" y="804" on="0"/>
        <pt x="269" y="828" on="1"/>
        <pt x="379" y="943" on="1"/>
        <pt x="398" y="961" on="0"/>
        <pt x="416" y="940" on="1"/>
      </contour>
      <contour>
        <pt x="208" y="675" on="1"/>
        <pt x="208" y="693" on="0"/>
        <pt x="213" y="704" on="0"/>
        <pt x="237" y="704" on="0"/>
        <pt x="266" y="660" on="0"/>
        <pt x="266" y="635" on="1"/>
        <pt x="266" y="568" on="0"/>
        <pt x="192" y="296" on="1"/>
        <pt x="184" y="268" on="0"/>
        <pt x="160" y="173" on="0"/>
        <pt x="144" y="115" on="0"/>
        <pt x="135" y="84" on="1"/>
        <pt x="117" y="22" on="0"/>
        <pt x="111" y="22" on="1"/>
        <pt x="101" y="22" on="0"/>
        <pt x="77" y="51" on="0"/>
        <pt x="77" y="93" on="0"/>
        <pt x="208" y="611" on="0"/>
      </contour>
    </TTGlyph>
    <TTGlyph name="Icircumflex" xMin="77" yMin="22" xMax="415" yMax="939">
      <contour>
        <pt x="348" y="893" on="1"/>
        <pt x="415" y="813" on="0"/>
        <pt x="415" y="778" on="0"/>
        <pt x="377" y="778" on="0"/>
        <pt x="347" y="806" on="0"/>
        <pt x="295" y="880" on="0"/>
        <pt x="290" y="887" on="1"/>
        <pt x="262" y="872" on="0"/>
        <pt x="195" y="821" on="0"/>
        <pt x="150" y="788" on="0"/>
        <pt x="127" y="788" on="0"/>
        <pt x="111" y="800" on="0"/>
        <pt x="111" y="830" on="0"/>
        <pt x="141" y="861" on="0"/>
        <pt x="190" y="889" on="0"/>
        <pt x="222" y="909" on="0"/>
        <pt x="242" y="921" on="0"/>
        <pt x="265" y="933" on="0"/>
        <pt x="282" y="939" on="0"/>
        <pt x="292" y="939" on="0"/>
        <pt x="300" y="937" on="0"/>
        <pt x="307" y="935" on="0"/>
        <pt x="315" y="929" on="0"/>
        <pt x="320" y="926" on="0"/>
        <pt x="329" y="916" on="0"/>
        <pt x="331" y="914" on="1"/>
        <pt x="345" y="896" on="0"/>
      </contour>
      <contour>
        <pt x="208" y="675" on="1"/>
        <pt x="208" y="693" on="0"/>
        <pt x="213" y="704" on="0"/>
        <pt x="237" y="704" on="0"/>
        <pt x="266" y="660" on="0"/>
        <pt x="266" y="635" on="1"/>
        <pt x="266" y="568" on="0"/>
        <pt x="192" y="296" on="1"/>
        <pt x="184" y="268" on="0"/>
        <pt x="160" y="173" on="0"/>
        <pt x="144" y="115" on="0"/>
        <pt x="135" y="84" on="1"/>
        <pt x="117" y="22" on="0"/>
        <pt x="111" y="22" on="1"/>
        <pt x="101" y="22" on="0"/>
        <pt x="77" y="51" on="0"/>
        <pt x="77" y="93" on="0"/>
        <pt x="208" y="611" on="0"/>
      </contour>
    </TTGlyph>
    <TTGlyph name="Idieresis" xMin="77" yMin="22" xMax="386" yMax="905">
      <contour>
        <pt x="351" y="905" on="0"/>
        <pt x="386" y="838" on="0"/>
        <pt x="386" y="824" on="1"/>
        <pt x="386" y="799" on="0"/>
        <pt x="370" y="799" on="1"/>
        <pt x="350" y="799" on="0"/>
        <pt x="302" y="846" on="0"/>
        <pt x="302" y="878" on="0"/>
        <pt x="324" y="905" on="0"/>
      </contour>
      <contour>
        <pt x="215" y="905" on="0"/>
        <pt x="250" y="838" on="0"/>
        <pt x="250" y="824" on="1"/>
        <pt x="250" y="799" on="0"/>
        <pt x="234" y="799" on="1"/>
        <pt x="214" y="799" on="0"/>
        <pt x="166" y="846" on="0"/>
        <pt x="166" y="878" on="0"/>
        <pt x="188" y="905" on="0"/>
      </contour>
      <contour>
        <pt x="208" y="675" on="1"/>
        <pt x="208" y="693" on="0"/>
        <pt x="213" y="704" on="0"/>
        <pt x="237" y="704" on="0"/>
        <pt x="266" y="660" on="0"/>
        <pt x="266" y="635" on="1"/>
        <pt x="266" y="568" on="0"/>
        <pt x="192" y="296" on="1"/>
        <pt x="184" y="268" on="0"/>
        <pt x="160" y="173" on="0"/>
        <pt x="144" y="115" on="0"/>
        <pt x="135" y="84" on="1"/>
        <pt x="117" y="22" on="0"/>
        <pt x="111" y="22" on="1"/>
        <pt x="101" y="22" on="0"/>
        <pt x="77" y="51" on="0"/>
        <pt x="77" y="93" on="0"/>
        <pt x="208" y="611" on="0"/>
      </contour>
    </TTGlyph>
    <TTGlyph name="Idotaccent" xMin="77" yMin="22" xMax="316" yMax="906">
      <contour>
        <pt x="279" y="790" on="0"/>
        <pt x="227" y="837" on="0"/>
        <pt x="227" y="872" on="0"/>
        <pt x="253" y="906" on="0"/>
        <pt x="281" y="906" on="0"/>
        <pt x="316" y="826" on="0"/>
        <pt x="316" y="804" on="1"/>
        <pt x="316" y="800" on="0"/>
        <pt x="304" y="790" on="0"/>
        <pt x="298" y="790" on="1"/>
      </contour>
      <contour>
        <pt x="208" y="675" on="1"/>
        <pt x="208" y="693" on="0"/>
        <pt x="213" y="704" on="0"/>
        <pt x="237" y="704" on="0"/>
        <pt x="266" y="660" on="0"/>
        <pt x="266" y="635" on="1"/>
        <pt x="266" y="568" on="0"/>
        <pt x="192" y="296" on="1"/>
        <pt x="184" y="268" on="0"/>
        <pt x="160" y="173" on="0"/>
        <pt x="144" y="115" on="0"/>
        <pt x="135" y="84" on="1"/>
        <pt x="117" y="22" on="0"/>
        <pt x="111" y="22" on="1"/>
        <pt x="101" y="22" on="0"/>
        <pt x="77" y="51" on="0"/>
        <pt x="77" y="93" on="0"/>
        <pt x="208" y="611" on="0"/>
      </contour>
    </TTGlyph>
    <TTGlyph name="Igrave" xMin="77" yMin="22" xMax="314" yMax="937">
      <contour>
        <pt x="162" y="932" on="1"/>
        <pt x="184" y="957" on="0"/>
        <pt x="204" y="937" on="1"/>
        <pt x="305" y="827" on="1"/>
        <pt x="329" y="802" on="0"/>
        <pt x="299" y="771" on="0"/>
        <pt x="273" y="793" on="1"/>
        <pt x="161" y="880" on="1"/>
        <pt x="151" y="887" on="0"/>
        <pt x="150" y="919" on="0"/>
      </contour>
      <contour>
        <pt x="208" y="675" on="1"/>
        <pt x="208" y="693" on="0"/>
        <pt x="213" y="704" on="0"/>
        <pt x="237" y="704" on="0"/>
        <pt x="266" y="660" on="0"/>
        <pt x="266" y="635" on="1"/>
        <pt x="266" y="568" on="0"/>
        <pt x="192" y="296" on="1"/>
        <pt x="184" y="268" on="0"/>
        <pt x="160" y="173" on="0"/>
        <pt x="144" y="115" on="0"/>
        <pt x="135" y="84" on="1"/>
        <pt x="117" y="22" on="0"/>
        <pt x="111" y="22" on="1"/>
        <pt x="101" y="22" on="0"/>
        <pt x="77" y="51" on="0"/>
        <pt x="77" y="93" on="0"/>
        <pt x="208" y="611" on="0"/>
      </contour>
    </TTGlyph>
    <TTGlyph name="Imacron" xMin="77" yMin="22" xMax="435" yMax="854">
      <contour>
        <pt x="192" y="797" on="0"/>
        <pt x="159" y="794" on="0"/>
        <pt x="130" y="794" on="0"/>
        <pt x="96" y="822" on="0"/>
        <pt x="96" y="834" on="1"/>
        <pt x="96" y="860" on="0"/>
        <pt x="379" y="854" on="1"/>
        <pt x="413" y="853" on="0"/>
        <pt x="435" y="845" on="0"/>
        <pt x="435" y="835" on="1"/>
        <pt x="434" y="823" on="0"/>
        <pt x="377" y="813" on="0"/>
        <pt x="253" y="804" on="0"/>
      </contour>
      <contour>
        <pt x="208" y="675" on="1"/>
        <pt x="208" y="693" on="0"/>
        <pt x="213" y="704" on="0"/>
        <pt x="237" y="704" on="0"/>
        <pt x="266" y="660" on="0"/>
        <pt x="266" y="635" on="1"/>
        <pt x="266" y="568" on="0"/>
        <pt x="192" y="296" on="1"/>
        <pt x="184" y="268" on="0"/>
        <pt x="160" y="173" on="0"/>
        <pt x="144" y="115" on="0"/>
        <pt x="135" y="84" on="1"/>
        <pt x="117" y="22" on="0"/>
        <pt x="111" y="22" on="1"/>
        <pt x="101" y="22" on="0"/>
        <pt x="77" y="51" on="0"/>
        <pt x="77" y="93" on="0"/>
        <pt x="208" y="611" on="0"/>
      </contour>
    </TTGlyph>
    <TTGlyph name="Iogonek" xMin="-35" yMin="-161" xMax="266" yMax="704">
      <contour>
        <pt x="78" y="56" on="1"/>
        <pt x="77" y="66" on="1"/>
        <pt x="77" y="93" on="0"/>
        <pt x="208" y="611" on="0"/>
        <pt x="208" y="675" on="1"/>
        <pt x="208" y="693" on="0"/>
        <pt x="213" y="704" on="0"/>
        <pt x="237" y="704" on="0"/>
        <pt x="266" y="660" on="0"/>
        <pt x="266" y="635" on="1"/>
        <pt x="266" y="568" on="0"/>
        <pt x="192" y="296" on="1"/>
        <pt x="185" y="270" on="0"/>
        <pt x="164" y="189" on="0"/>
        <pt x="149" y="133" on="0"/>
        <pt x="141" y="104" on="1"/>
        <pt x="126" y="48" on="0"/>
        <pt x="109" y="12" on="0"/>
        <pt x="93" y="0" on="1"/>
        <pt x="21" y="-56" on="0"/>
        <pt x="21" y="-88" on="1"/>
        <pt x="21" y="-111" on="0"/>
        <pt x="64" y="-111" on="1"/>
        <pt x="80" y="-111" on="0"/>
        <pt x="115" y="-95" on="0"/>
        <pt x="120" y="-95" on="1"/>
        <pt x="140" y="-93" on="0"/>
        <pt x="143" y="-113" on="1"/>
        <pt x="145" y="-134" on="0"/>
        <pt x="77" y="-161" on="0"/>
        <pt x="16" y="-161" on="0"/>
        <pt x="-35" y="-122" on="0"/>
        <pt x="-35" y="-95" on="1"/>
        <pt x="-35" y="-29" on="0"/>
        <pt x="67" y="50" on="1"/>
        <pt x="71" y="54" on="0"/>
      </contour>
    </TTGlyph>
    <TTGlyph name="J" xMin="5" yMin="13" xMax="488" yMax="715">
      <contour>
        <pt x="20" y="161" on="1"/>
        <pt x="26" y="161" on="0"/>
        <pt x="75" y="115" on="0"/>
        <pt x="147" y="69" on="0"/>
        <pt x="204" y="69" on="0"/>
        <pt x="223" y="94" on="1"/>
        <pt x="263" y="145" on="0"/>
        <pt x="337" y="421" on="1"/>
        <pt x="354" y="483" on="0"/>
        <pt x="409" y="626" on="0"/>
        <pt x="432" y="660" on="1"/>
        <pt x="370" y="651" on="0"/>
        <pt x="203" y="603" on="0"/>
        <pt x="187" y="603" on="1"/>
        <pt x="157" y="603" on="0"/>
        <pt x="157" y="619" on="1"/>
        <pt x="157" y="644" on="0"/>
        <pt x="394" y="715" on="0"/>
        <pt x="441" y="715" on="1"/>
        <pt x="460" y="715" on="0"/>
        <pt x="488" y="700" on="0"/>
        <pt x="488" y="671" on="0"/>
        <pt x="461" y="591" on="0"/>
        <pt x="420" y="479" on="0"/>
        <pt x="326" y="168" on="0"/>
        <pt x="305" y="117" on="1"/>
        <pt x="273" y="38" on="0"/>
        <pt x="234" y="21" on="1"/>
        <pt x="216" y="13" on="0"/>
        <pt x="188" y="13" on="1"/>
        <pt x="130" y="13" on="0"/>
        <pt x="5" y="112" on="0"/>
        <pt x="5" y="143" on="1"/>
        <pt x="5" y="161" on="0"/>
      </contour>
    </TTGlyph>
    <TTGlyph name="K" xMin="68" yMin="23" xMax="590" yMax="704">
      <contour>
        <pt x="566" y="702" on="0"/>
        <pt x="590" y="687" on="0"/>
        <pt x="590" y="666" on="0"/>
        <pt x="544" y="626" on="1"/>
        <pt x="365" y="466" on="0"/>
        <pt x="267" y="338" on="1"/>
        <pt x="267" y="294" on="0"/>
        <pt x="309" y="189" on="0"/>
        <pt x="357" y="152" on="1"/>
        <pt x="387" y="128" on="0"/>
        <pt x="483" y="83" on="0"/>
        <pt x="538" y="52" on="0"/>
        <pt x="538" y="36" on="1"/>
        <pt x="538" y="23" on="0"/>
        <pt x="475" y="23" on="0"/>
        <pt x="386" y="58" on="0"/>
        <pt x="295" y="121" on="0"/>
        <pt x="226" y="229" on="0"/>
        <pt x="218" y="293" on="1"/>
        <pt x="173" y="234" on="0"/>
        <pt x="120" y="71" on="1"/>
        <pt x="105" y="23" on="0"/>
        <pt x="99" y="23" on="1"/>
        <pt x="89" y="23" on="0"/>
        <pt x="68" y="53" on="0"/>
        <pt x="68" y="98" on="0"/>
        <pt x="205" y="611" on="0"/>
        <pt x="205" y="675" on="1"/>
        <pt x="205" y="694" on="0"/>
        <pt x="209" y="704" on="0"/>
        <pt x="232" y="704" on="0"/>
        <pt x="257" y="660" on="0"/>
        <pt x="257" y="635" on="1"/>
        <pt x="257" y="573" on="0"/>
        <pt x="187" y="317" on="1"/>
        <pt x="279" y="452" on="0"/>
        <pt x="515" y="702" on="0"/>
        <pt x="547" y="702" on="1"/>
      </contour>
    </TTGlyph>
    <TTGlyph name="L" xMin="73" yMin="18" xMax="494" yMax="706">
      <contour>
        <pt x="263" y="640" on="1"/>
        <pt x="263" y="572" on="0"/>
        <pt x="136" y="137" on="0"/>
        <pt x="136" y="95" on="0"/>
        <pt x="155" y="77" on="0"/>
        <pt x="169" y="77" on="1"/>
        <pt x="293" y="77" on="0"/>
        <pt x="430" y="118" on="1"/>
        <pt x="475" y="131" on="0"/>
        <pt x="490" y="131" on="0"/>
        <pt x="494" y="128" on="0"/>
        <pt x="494" y="121" on="1"/>
        <pt x="494" y="91" on="0"/>
        <pt x="280" y="18" on="0"/>
        <pt x="186" y="18" on="1"/>
        <pt x="140" y="18" on="0"/>
        <pt x="73" y="65" on="0"/>
        <pt x="73" y="137" on="0"/>
        <pt x="205" y="609" on="0"/>
        <pt x="205" y="677" on="1"/>
        <pt x="205" y="694" on="0"/>
        <pt x="211" y="706" on="0"/>
        <pt x="234" y="706" on="0"/>
        <pt x="263" y="664" on="0"/>
      </contour>
    </TTGlyph>
    <TTGlyph name="Lacute" xMin="73" yMin="18" xMax="494" yMax="943">
      <contour>
        <pt x="263" y="640" on="1"/>
        <pt x="263" y="572" on="0"/>
        <pt x="136" y="137" on="0"/>
        <pt x="136" y="95" on="0"/>
        <pt x="155" y="77" on="0"/>
        <pt x="169" y="77" on="1"/>
        <pt x="293" y="77" on="0"/>
        <pt x="430" y="118" on="1"/>
        <pt x="475" y="131" on="0"/>
        <pt x="490" y="131" on="0"/>
        <pt x="494" y="128" on="0"/>
        <pt x="494" y="121" on="1"/>
        <pt x="494" y="91" on="0"/>
        <pt x="280" y="18" on="0"/>
        <pt x="186" y="18" on="1"/>
        <pt x="140" y="18" on="0"/>
        <pt x="73" y="65" on="0"/>
        <pt x="73" y="137" on="0"/>
        <pt x="205" y="609" on="0"/>
        <pt x="205" y="677" on="1"/>
        <pt x="205" y="694" on="0"/>
        <pt x="211" y="706" on="0"/>
        <pt x="234" y="706" on="0"/>
        <pt x="263" y="664" on="0"/>
      </contour>
      <contour>
        <pt x="464" y="928" on="0"/>
        <pt x="464" y="891" on="0"/>
        <pt x="455" y="885" on="1"/>
        <pt x="338" y="792" on="1"/>
        <pt x="309" y="771" on="0"/>
        <pt x="281" y="804" on="0"/>
        <pt x="305" y="828" on="1"/>
        <pt x="415" y="943" on="1"/>
        <pt x="434" y="961" on="0"/>
        <pt x="452" y="940" on="1"/>
      </contour>
    </TTGlyph>
    <TTGlyph name="Lcaron" xMin="73" yMin="18" xMax="494" yMax="706">
      <contour>
        <pt x="263" y="640" on="1"/>
        <pt x="263" y="572" on="0"/>
        <pt x="136" y="137" on="0"/>
        <pt x="136" y="95" on="0"/>
        <pt x="155" y="77" on="0"/>
        <pt x="169" y="77" on="1"/>
        <pt x="293" y="77" on="0"/>
        <pt x="430" y="118" on="1"/>
        <pt x="475" y="131" on="0"/>
        <pt x="490" y="131" on="0"/>
        <pt x="494" y="128" on="0"/>
        <pt x="494" y="121" on="1"/>
        <pt x="494" y="91" on="0"/>
        <pt x="280" y="18" on="0"/>
        <pt x="186" y="18" on="1"/>
        <pt x="140" y="18" on="0"/>
        <pt x="73" y="65" on="0"/>
        <pt x="73" y="137" on="0"/>
        <pt x="205" y="609" on="0"/>
        <pt x="205" y="677" on="1"/>
        <pt x="205" y="694" on="0"/>
        <pt x="211" y="706" on="0"/>
        <pt x="234" y="706" on="0"/>
        <pt x="263" y="664" on="0"/>
      </contour>
      <contour>
        <pt x="380" y="649" on="0"/>
        <pt x="367" y="659" on="0"/>
        <pt x="367" y="682" on="0"/>
        <pt x="389" y="700" on="0"/>
        <pt x="429" y="700" on="0"/>
        <pt x="469" y="664" on="0"/>
        <pt x="469" y="635" on="1"/>
        <pt x="469" y="584" on="0"/>
        <pt x="373" y="506" on="0"/>
        <pt x="343" y="506" on="1"/>
        <pt x="328" y="506" on="0"/>
        <pt x="328" y="526" on="0"/>
        <pt x="411" y="593" on="0"/>
        <pt x="413" y="618" on="1"/>
        <pt x="412" y="631" on="0"/>
        <pt x="397" y="646" on="0"/>
      </contour>
    </TTGlyph>
    <TTGlyph name="Lslash" xMin="23" yMin="18" xMax="494" yMax="706">
      <contour>
        <pt x="204" y="370" on="1"/>
        <pt x="197" y="346" on="0"/>
        <pt x="136" y="137" on="0"/>
        <pt x="136" y="95" on="0"/>
        <pt x="155" y="77" on="0"/>
        <pt x="169" y="77" on="1"/>
        <pt x="293" y="77" on="0"/>
        <pt x="430" y="118" on="1"/>
        <pt x="475" y="131" on="0"/>
        <pt x="490" y="131" on="0"/>
        <pt x="494" y="128" on="0"/>
        <pt x="494" y="121" on="1"/>
        <pt x="494" y="91" on="0"/>
        <pt x="280" y="18" on="0"/>
        <pt x="186" y="18" on="1"/>
        <pt x="140" y="18" on="0"/>
        <pt x="73" y="65" on="0"/>
        <pt x="73" y="140" on="0"/>
        <pt x="130" y="341" on="1"/>
        <pt x="85" y="325" on="0"/>
        <pt x="84" y="325" on="1"/>
        <pt x="66" y="319" on="0"/>
        <pt x="26" y="337" on="0"/>
        <pt x="20" y="360" on="0"/>
        <pt x="86" y="388" on="0"/>
        <pt x="149" y="407" on="1"/>
        <pt x="205" y="614" on="0"/>
        <pt x="205" y="677" on="1"/>
        <pt x="205" y="694" on="0"/>
        <pt x="211" y="706" on="0"/>
        <pt x="234" y="706" on="0"/>
        <pt x="263" y="664" on="0"/>
        <pt x="263" y="595" on="0"/>
        <pt x="220" y="428" on="1"/>
        <pt x="349" y="467" on="0"/>
        <pt x="354" y="446" on="1"/>
        <pt x="357" y="434" on="0"/>
        <pt x="331" y="421" on="1"/>
        <pt x="296" y="403" on="0"/>
      </contour>
    </TTGlyph>
    <TTGlyph name="M" xMin="68" yMin="23" xMax="797" yMax="704">
      <contour>
        <pt x="703" y="667" on="0"/>
        <pt x="741" y="701" on="0"/>
        <pt x="764" y="701" on="0"/>
        <pt x="797" y="668" on="0"/>
        <pt x="797" y="644" on="0"/>
        <pt x="793" y="618" on="0"/>
        <pt x="783" y="576" on="0"/>
        <pt x="774" y="539" on="0"/>
        <pt x="756" y="474" on="0"/>
        <pt x="750" y="452" on="1"/>
        <pt x="703" y="295" on="0"/>
        <pt x="682" y="202" on="1"/>
        <pt x="642" y="23" on="0"/>
        <pt x="634" y="23" on="1"/>
        <pt x="623" y="23" on="0"/>
        <pt x="604" y="54" on="0"/>
        <pt x="604" y="78" on="1"/>
        <pt x="604" y="128" on="0"/>
        <pt x="695" y="500" on="0"/>
        <pt x="739" y="619" on="1"/>
        <pt x="553" y="388" on="0"/>
        <pt x="425" y="243" on="0"/>
        <pt x="375" y="243" on="0"/>
        <pt x="334" y="311" on="0"/>
        <pt x="266" y="466" on="0"/>
        <pt x="240" y="542" on="1"/>
        <pt x="221" y="427" on="0"/>
        <pt x="180" y="288" on="1"/>
        <pt x="171" y="258" on="0"/>
        <pt x="147" y="170" on="0"/>
        <pt x="130" y="111" on="0"/>
        <pt x="121" y="82" on="1"/>
        <pt x="103" y="23" on="0"/>
        <pt x="98" y="23" on="1"/>
        <pt x="89" y="23" on="0"/>
        <pt x="68" y="53" on="0"/>
        <pt x="68" y="98" on="0"/>
        <pt x="204" y="611" on="0"/>
        <pt x="204" y="675" on="1"/>
        <pt x="204" y="693" on="0"/>
        <pt x="210" y="704" on="0"/>
        <pt x="230" y="704" on="0"/>
        <pt x="266" y="665" on="0"/>
        <pt x="269" y="643" on="1"/>
        <pt x="281" y="567" on="0"/>
        <pt x="407" y="301" on="1"/>
        <pt x="526" y="446" on="0"/>
        <pt x="639" y="589" on="0"/>
      </contour>
    </TTGlyph>
    <TTGlyph name="N" xMin="64" yMin="19" xMax="656" yMax="708">
      <contour>
        <pt x="490" y="19" on="1"/>
        <pt x="464" y="19" on="0"/>
        <pt x="424" y="98" on="0"/>
        <pt x="263" y="484" on="0"/>
        <pt x="241" y="546" on="1"/>
        <pt x="198" y="385" on="0"/>
        <pt x="118" y="74" on="0"/>
        <pt x="102" y="19" on="0"/>
        <pt x="96" y="19" on="1"/>
        <pt x="88" y="19" on="0"/>
        <pt x="64" y="49" on="0"/>
        <pt x="64" y="95" on="0"/>
        <pt x="202" y="616" on="0"/>
        <pt x="202" y="679" on="1"/>
        <pt x="202" y="697" on="0"/>
        <pt x="207" y="708" on="0"/>
        <pt x="225" y="708" on="0"/>
        <pt x="256" y="673" on="0"/>
        <pt x="270" y="613" on="0"/>
        <pt x="437" y="205" on="0"/>
        <pt x="491" y="88" on="1"/>
        <pt x="532" y="201" on="0"/>
        <pt x="578" y="422" on="0"/>
        <pt x="587" y="557" on="0"/>
        <pt x="592" y="671" on="0"/>
        <pt x="599" y="700" on="0"/>
        <pt x="607" y="708" on="0"/>
        <pt x="627" y="708" on="0"/>
        <pt x="656" y="670" on="0"/>
        <pt x="656" y="652" on="1"/>
        <pt x="657" y="560" on="0"/>
        <pt x="610" y="263" on="0"/>
        <pt x="529" y="19" on="0"/>
      </contour>
    </TTGlyph>
    <TTGlyph name="Nacute" xMin="64" yMin="19" xMax="656" yMax="943">
      <contour>
        <pt x="490" y="19" on="1"/>
        <pt x="464" y="19" on="0"/>
        <pt x="424" y="98" on="0"/>
        <pt x="263" y="484" on="0"/>
        <pt x="241" y="546" on="1"/>
        <pt x="198" y="385" on="0"/>
        <pt x="118" y="74" on="0"/>
        <pt x="102" y="19" on="0"/>
        <pt x="96" y="19" on="1"/>
        <pt x="88" y="19" on="0"/>
        <pt x="64" y="49" on="0"/>
        <pt x="64" y="95" on="0"/>
        <pt x="202" y="616" on="0"/>
        <pt x="202" y="679" on="1"/>
        <pt x="202" y="697" on="0"/>
        <pt x="207" y="708" on="0"/>
        <pt x="225" y="708" on="0"/>
        <pt x="256" y="673" on="0"/>
        <pt x="270" y="613" on="0"/>
        <pt x="437" y="205" on="0"/>
        <pt x="491" y="88" on="1"/>
        <pt x="532" y="201" on="0"/>
        <pt x="578" y="422" on="0"/>
        <pt x="587" y="557" on="0"/>
        <pt x="592" y="671" on="0"/>
        <pt x="599" y="700" on="0"/>
        <pt x="607" y="708" on="0"/>
        <pt x="627" y="708" on="0"/>
        <pt x="656" y="670" on="0"/>
        <pt x="656" y="652" on="1"/>
        <pt x="657" y="560" on="0"/>
        <pt x="610" y="263" on="0"/>
        <pt x="529" y="19" on="0"/>
      </contour>
      <contour>
        <pt x="591" y="928" on="0"/>
        <pt x="591" y="891" on="0"/>
        <pt x="582" y="885" on="1"/>
        <pt x="465" y="792" on="1"/>
        <pt x="436" y="771" on="0"/>
        <pt x="408" y="804" on="0"/>
        <pt x="432" y="828" on="1"/>
        <pt x="542" y="943" on="1"/>
        <pt x="561" y="961" on="0"/>
        <pt x="579" y="940" on="1"/>
      </contour>
    </TTGlyph>
    <TTGlyph name="Ncaron" xMin="64" yMin="19" xMax="656" yMax="965">
      <contour>
        <pt x="490" y="19" on="1"/>
        <pt x="464" y="19" on="0"/>
        <pt x="424" y="98" on="0"/>
        <pt x="263" y="484" on="0"/>
        <pt x="241" y="546" on="1"/>
        <pt x="198" y="385" on="0"/>
        <pt x="118" y="74" on="0"/>
        <pt x="102" y="19" on="0"/>
        <pt x="96" y="19" on="1"/>
        <pt x="88" y="19" on="0"/>
        <pt x="64" y="49" on="0"/>
        <pt x="64" y="95" on="0"/>
        <pt x="202" y="616" on="0"/>
        <pt x="202" y="679" on="1"/>
        <pt x="202" y="697" on="0"/>
        <pt x="207" y="708" on="0"/>
        <pt x="225" y="708" on="0"/>
        <pt x="256" y="673" on="0"/>
        <pt x="270" y="613" on="0"/>
        <pt x="437" y="205" on="0"/>
        <pt x="491" y="88" on="1"/>
        <pt x="532" y="201" on="0"/>
        <pt x="578" y="422" on="0"/>
        <pt x="587" y="557" on="0"/>
        <pt x="592" y="671" on="0"/>
        <pt x="599" y="700" on="0"/>
        <pt x="607" y="708" on="0"/>
        <pt x="627" y="708" on="0"/>
        <pt x="656" y="670" on="0"/>
        <pt x="656" y="652" on="1"/>
        <pt x="657" y="560" on="0"/>
        <pt x="610" y="263" on="0"/>
        <pt x="529" y="19" on="0"/>
      </contour>
      <contour>
        <pt x="482" y="878" on="0"/>
        <pt x="562" y="931" on="0"/>
        <pt x="603" y="931" on="0"/>
        <pt x="603" y="911" on="1"/>
        <pt x="603" y="897" on="0"/>
        <pt x="579" y="876" on="0"/>
        <pt x="525" y="844" on="0"/>
        <pt x="498" y="824" on="0"/>
        <pt x="478" y="806" on="1"/>
        <pt x="438" y="770" on="0"/>
        <pt x="415" y="770" on="0"/>
        <pt x="342" y="830" on="0"/>
        <pt x="275" y="913" on="0"/>
        <pt x="275" y="938" on="1"/>
        <pt x="275" y="950" on="0"/>
        <pt x="289" y="965" on="0"/>
        <pt x="309" y="965" on="0"/>
        <pt x="332" y="939" on="0"/>
        <pt x="353" y="902" on="0"/>
        <pt x="399" y="847" on="0"/>
        <pt x="428" y="825" on="1"/>
      </contour>
    </TTGlyph>
    <TTGlyph name="Ntilde" xMin="64" yMin="19" xMax="656" yMax="908">
      <contour>
        <pt x="510" y="832" on="1"/>
        <pt x="523" y="833" on="0"/>
        <pt x="545" y="853" on="0"/>
        <pt x="551" y="864" on="1"/>
        <pt x="567" y="895" on="0"/>
        <pt x="601" y="895" on="0"/>
        <pt x="601" y="840" on="0"/>
        <pt x="546" y="779" on="0"/>
        <pt x="508" y="779" on="1"/>
        <pt x="460" y="779" on="0"/>
        <pt x="404" y="858" on="1"/>
        <pt x="383" y="848" on="0"/>
        <pt x="351" y="810" on="0"/>
        <pt x="330" y="783" on="0"/>
        <pt x="320" y="783" on="1"/>
        <pt x="298" y="783" on="0"/>
        <pt x="298" y="804" on="1"/>
        <pt x="298" y="836" on="0"/>
        <pt x="371" y="908" on="0"/>
        <pt x="445" y="908" on="0"/>
        <pt x="490" y="834" on="0"/>
      </contour>
      <contour>
        <pt x="490" y="19" on="1"/>
        <pt x="464" y="19" on="0"/>
        <pt x="424" y="98" on="0"/>
        <pt x="263" y="484" on="0"/>
        <pt x="241" y="546" on="1"/>
        <pt x="198" y="385" on="0"/>
        <pt x="118" y="74" on="0"/>
        <pt x="102" y="19" on="0"/>
        <pt x="96" y="19" on="1"/>
        <pt x="88" y="19" on="0"/>
        <pt x="64" y="49" on="0"/>
        <pt x="64" y="95" on="0"/>
        <pt x="202" y="616" on="0"/>
        <pt x="202" y="679" on="1"/>
        <pt x="202" y="697" on="0"/>
        <pt x="207" y="708" on="0"/>
        <pt x="225" y="708" on="0"/>
        <pt x="256" y="673" on="0"/>
        <pt x="270" y="613" on="0"/>
        <pt x="437" y="205" on="0"/>
        <pt x="491" y="88" on="1"/>
        <pt x="532" y="201" on="0"/>
        <pt x="578" y="422" on="0"/>
        <pt x="587" y="557" on="0"/>
        <pt x="592" y="671" on="0"/>
        <pt x="599" y="700" on="0"/>
        <pt x="607" y="708" on="0"/>
        <pt x="627" y="708" on="0"/>
        <pt x="656" y="670" on="0"/>
        <pt x="656" y="652" on="1"/>
        <pt x="657" y="560" on="0"/>
        <pt x="610" y="263" on="0"/>
        <pt x="529" y="19" on="0"/>
      </contour>
    </TTGlyph>
    <TTGlyph name="O" xMin="66" yMin="19" xMax="584" yMax="708">
      <contour>
        <pt x="519" y="544" on="0"/>
        <pt x="447" y="648" on="0"/>
        <pt x="371" y="648" on="0"/>
        <pt x="276" y="569" on="0"/>
        <pt x="188" y="449" on="0"/>
        <pt x="126" y="288" on="0"/>
        <pt x="126" y="152" on="0"/>
        <pt x="188" y="75" on="0"/>
        <pt x="227" y="75" on="1"/>
        <pt x="281" y="75" on="0"/>
        <pt x="420" y="202" on="0"/>
        <pt x="519" y="384" on="0"/>
      </contour>
      <contour>
        <pt x="66" y="206" on="1"/>
        <pt x="66" y="325" on="0"/>
        <pt x="175" y="563" on="0"/>
        <pt x="332" y="708" on="0"/>
        <pt x="478" y="708" on="0"/>
        <pt x="584" y="562" on="0"/>
        <pt x="584" y="377" on="0"/>
        <pt x="477" y="166" on="0"/>
        <pt x="303" y="19" on="0"/>
        <pt x="218" y="19" on="1"/>
        <pt x="156" y="19" on="0"/>
        <pt x="66" y="142" on="0"/>
      </contour>
    </TTGlyph>
    <TTGlyph name="OE" xMin="66" yMin="17" xMax="943" yMax="692">
      <contour>
        <pt x="544" y="336" on="1"/>
        <pt x="483" y="144" on="0"/>
        <pt x="483" y="107" on="1"/>
        <pt x="483" y="93" on="0"/>
        <pt x="500" y="76" on="0"/>
        <pt x="514" y="76" on="1"/>
        <pt x="636" y="76" on="0"/>
        <pt x="772" y="116" on="1"/>
        <pt x="819" y="129" on="0"/>
        <pt x="827" y="129" on="1"/>
        <pt x="840" y="129" on="0"/>
        <pt x="840" y="110" on="1"/>
        <pt x="840" y="83" on="0"/>
        <pt x="622" y="17" on="0"/>
        <pt x="529" y="17" on="1"/>
        <pt x="484" y="17" on="0"/>
        <pt x="418" y="63" on="0"/>
        <pt x="418" y="94" on="1"/>
        <pt x="418" y="104" on="0"/>
        <pt x="422" y="136" on="1"/>
        <pt x="319" y="21" on="0"/>
        <pt x="213" y="21" on="1"/>
        <pt x="153" y="21" on="0"/>
        <pt x="66" y="139" on="0"/>
        <pt x="66" y="201" on="1"/>
        <pt x="66" y="292" on="0"/>
        <pt x="130" y="476" on="0"/>
        <pt x="226" y="608" on="0"/>
        <pt x="343" y="692" on="0"/>
        <pt x="442" y="692" on="0"/>
        <pt x="518" y="629" on="0"/>
        <pt x="539" y="577" on="1"/>
        <pt x="542" y="606" on="0"/>
        <pt x="542" y="657" on="0"/>
        <pt x="559" y="666" on="1"/>
        <pt x="596" y="690" on="0"/>
        <pt x="943" y="690" on="0"/>
        <pt x="943" y="670" on="1"/>
        <pt x="943" y="657" on="0"/>
        <pt x="878" y="646" on="0"/>
        <pt x="777" y="639" on="0"/>
        <pt x="769" y="638" on="1"/>
        <pt x="679" y="633" on="0"/>
        <pt x="602" y="620" on="1"/>
        <pt x="602" y="612" on="1"/>
        <pt x="602" y="544" on="0"/>
        <pt x="559" y="389" on="1"/>
        <pt x="569" y="388" on="0"/>
        <pt x="600" y="388" on="1"/>
        <pt x="779" y="398" on="1"/>
        <pt x="818" y="398" on="0"/>
        <pt x="818" y="388" on="1"/>
        <pt x="818" y="336" on="0"/>
        <pt x="553" y="336" on="1"/>
      </contour>
      <contour>
        <pt x="220" y="74" on="1"/>
        <pt x="273" y="74" on="0"/>
        <pt x="408" y="199" on="0"/>
        <pt x="502" y="378" on="0"/>
        <pt x="502" y="536" on="0"/>
        <pt x="440" y="635" on="0"/>
        <pt x="366" y="635" on="0"/>
        <pt x="273" y="558" on="0"/>
        <pt x="187" y="440" on="0"/>
        <pt x="126" y="282" on="0"/>
        <pt x="126" y="148" on="0"/>
        <pt x="181" y="74" on="0"/>
      </contour>
    </TTGlyph>
    <TTGlyph name="Oacute" xMin="66" yMin="19" xMax="636" yMax="943">
      <contour>
        <pt x="519" y="544" on="0"/>
        <pt x="447" y="648" on="0"/>
        <pt x="371" y="648" on="0"/>
        <pt x="276" y="569" on="0"/>
        <pt x="188" y="449" on="0"/>
        <pt x="126" y="288" on="0"/>
        <pt x="126" y="152" on="0"/>
        <pt x="188" y="75" on="0"/>
        <pt x="227" y="75" on="1"/>
        <pt x="281" y="75" on="0"/>
        <pt x="420" y="202" on="0"/>
        <pt x="519" y="384" on="0"/>
      </contour>
      <contour>
        <pt x="66" y="206" on="1"/>
        <pt x="66" y="325" on="0"/>
        <pt x="175" y="563" on="0"/>
        <pt x="332" y="708" on="0"/>
        <pt x="478" y="708" on="0"/>
        <pt x="584" y="562" on="0"/>
        <pt x="584" y="377" on="0"/>
        <pt x="477" y="166" on="0"/>
        <pt x="303" y="19" on="0"/>
        <pt x="218" y="19" on="1"/>
        <pt x="156" y="19" on="0"/>
        <pt x="66" y="142" on="0"/>
      </contour>
      <contour>
        <pt x="636" y="928" on="0"/>
        <pt x="636" y="891" on="0"/>
        <pt x="627" y="885" on="1"/>
        <pt x="510" y="792" on="1"/>
        <pt x="481" y="771" on="0"/>
        <pt x="453" y="804" on="0"/>
        <pt x="477" y="828" on="1"/>
        <pt x="587" y="943" on="1"/>
        <pt x="606" y="961" on="0"/>
        <pt x="624" y="940" on="1"/>
      </contour>
    </TTGlyph>
    <TTGlyph name="Ocircumflex" xMin="66" yMin="19" xMax="623" yMax="939">
      <contour>
        <pt x="519" y="544" on="0"/>
        <pt x="447" y="648" on="0"/>
        <pt x="371" y="648" on="0"/>
        <pt x="276" y="569" on="0"/>
        <pt x="188" y="449" on="0"/>
        <pt x="126" y="288" on="0"/>
        <pt x="126" y="152" on="0"/>
        <pt x="188" y="75" on="0"/>
        <pt x="227" y="75" on="1"/>
        <pt x="281" y="75" on="0"/>
        <pt x="420" y="202" on="0"/>
        <pt x="519" y="384" on="0"/>
      </contour>
      <contour>
        <pt x="66" y="206" on="1"/>
        <pt x="66" y="325" on="0"/>
        <pt x="175" y="563" on="0"/>
        <pt x="332" y="708" on="0"/>
        <pt x="478" y="708" on="0"/>
        <pt x="584" y="562" on="0"/>
        <pt x="584" y="377" on="0"/>
        <pt x="477" y="166" on="0"/>
        <pt x="303" y="19" on="0"/>
        <pt x="218" y="19" on="1"/>
        <pt x="156" y="19" on="0"/>
        <pt x="66" y="142" on="0"/>
      </contour>
      <contour>
        <pt x="556" y="893" on="1"/>
        <pt x="623" y="813" on="0"/>
        <pt x="623" y="778" on="0"/>
        <pt x="585" y="778" on="0"/>
        <pt x="555" y="806" on="0"/>
        <pt x="503" y="880" on="0"/>
        <pt x="498" y="887" on="1"/>
        <pt x="470" y="872" on="0"/>
        <pt x="403" y="821" on="0"/>
        <pt x="358" y="788" on="0"/>
        <pt x="335" y="788" on="0"/>
        <pt x="319" y="800" on="0"/>
        <pt x="319" y="830" on="0"/>
        <pt x="349" y="861" on="0"/>
        <pt x="398" y="889" on="0"/>
        <pt x="430" y="909" on="0"/>
        <pt x="450" y="921" on="0"/>
        <pt x="473" y="933" on="0"/>
        <pt x="490" y="939" on="0"/>
        <pt x="500" y="939" on="0"/>
        <pt x="508" y="937" on="0"/>
        <pt x="515" y="935" on="0"/>
        <pt x="523" y="929" on="0"/>
        <pt x="528" y="926" on="0"/>
        <pt x="537" y="916" on="0"/>
        <pt x="539" y="914" on="1"/>
        <pt x="553" y="896" on="0"/>
      </contour>
    </TTGlyph>
    <TTGlyph name="Odieresis" xMin="66" yMin="19" xMax="594" yMax="905">
      <contour>
        <pt x="519" y="544" on="0"/>
        <pt x="447" y="648" on="0"/>
        <pt x="371" y="648" on="0"/>
        <pt x="276" y="569" on="0"/>
        <pt x="188" y="449" on="0"/>
        <pt x="126" y="288" on="0"/>
        <pt x="126" y="152" on="0"/>
        <pt x="188" y="75" on="0"/>
        <pt x="227" y="75" on="1"/>
        <pt x="281" y="75" on="0"/>
        <pt x="420" y="202" on="0"/>
        <pt x="519" y="384" on="0"/>
      </contour>
      <contour>
        <pt x="66" y="206" on="1"/>
        <pt x="66" y="325" on="0"/>
        <pt x="175" y="563" on="0"/>
        <pt x="332" y="708" on="0"/>
        <pt x="478" y="708" on="0"/>
        <pt x="584" y="562" on="0"/>
        <pt x="584" y="377" on="0"/>
        <pt x="477" y="166" on="0"/>
        <pt x="303" y="19" on="0"/>
        <pt x="218" y="19" on="1"/>
        <pt x="156" y="19" on="0"/>
        <pt x="66" y="142" on="0"/>
      </contour>
      <contour>
        <pt x="559" y="905" on="0"/>
        <pt x="594" y="838" on="0"/>
        <pt x="594" y="824" on="1"/>
        <pt x="594" y="799" on="0"/>
        <pt x="578" y="799" on="1"/>
        <pt x="558" y="799" on="0"/>
        <pt x="510" y="846" on="0"/>
        <pt x="510" y="878" on="0"/>
        <pt x="532" y="905" on="0"/>
      </contour>
      <contour>
        <pt x="423" y="905" on="0"/>
        <pt x="458" y="838" on="0"/>
        <pt x="458" y="824" on="1"/>
        <pt x="458" y="799" on="0"/>
        <pt x="442" y="799" on="1"/>
        <pt x="422" y="799" on="0"/>
        <pt x="374" y="846" on="0"/>
        <pt x="374" y="878" on="0"/>
        <pt x="396" y="905" on="0"/>
      </contour>
    </TTGlyph>
    <TTGlyph name="Ograve" xMin="66" yMin="19" xMax="584" yMax="937">
      <contour>
        <pt x="370" y="932" on="1"/>
        <pt x="392" y="957" on="0"/>
        <pt x="412" y="937" on="1"/>
        <pt x="513" y="827" on="1"/>
        <pt x="537" y="802" on="0"/>
        <pt x="507" y="771" on="0"/>
        <pt x="481" y="793" on="1"/>
        <pt x="369" y="880" on="1"/>
        <pt x="359" y="887" on="0"/>
        <pt x="358" y="919" on="0"/>
      </contour>
      <contour>
        <pt x="519" y="544" on="0"/>
        <pt x="447" y="648" on="0"/>
        <pt x="371" y="648" on="0"/>
        <pt x="276" y="569" on="0"/>
        <pt x="188" y="449" on="0"/>
        <pt x="126" y="288" on="0"/>
        <pt x="126" y="152" on="0"/>
        <pt x="188" y="75" on="0"/>
        <pt x="227" y="75" on="1"/>
        <pt x="281" y="75" on="0"/>
        <pt x="420" y="202" on="0"/>
        <pt x="519" y="384" on="0"/>
      </contour>
      <contour>
        <pt x="66" y="206" on="1"/>
        <pt x="66" y="325" on="0"/>
        <pt x="175" y="563" on="0"/>
        <pt x="332" y="708" on="0"/>
        <pt x="478" y="708" on="0"/>
        <pt x="584" y="562" on="0"/>
        <pt x="584" y="377" on="0"/>
        <pt x="477" y="166" on="0"/>
        <pt x="303" y="19" on="0"/>
        <pt x="218" y="19" on="1"/>
        <pt x="156" y="19" on="0"/>
        <pt x="66" y="142" on="0"/>
      </contour>
    </TTGlyph>
    <TTGlyph name="Ohungarumlaut" xMin="66" yMin="19" xMax="672" yMax="975">
      <contour>
        <pt x="519" y="544" on="0"/>
        <pt x="447" y="648" on="0"/>
        <pt x="371" y="648" on="0"/>
        <pt x="276" y="569" on="0"/>
        <pt x="188" y="449" on="0"/>
        <pt x="126" y="288" on="0"/>
        <pt x="126" y="152" on="0"/>
        <pt x="188" y="75" on="0"/>
        <pt x="227" y="75" on="1"/>
        <pt x="281" y="75" on="0"/>
        <pt x="420" y="202" on="0"/>
        <pt x="519" y="384" on="0"/>
      </contour>
      <contour>
        <pt x="66" y="206" on="1"/>
        <pt x="66" y="325" on="0"/>
        <pt x="175" y="563" on="0"/>
        <pt x="332" y="708" on="0"/>
        <pt x="478" y="708" on="0"/>
        <pt x="584" y="562" on="0"/>
        <pt x="584" y="377" on="0"/>
        <pt x="477" y="166" on="0"/>
        <pt x="303" y="19" on="0"/>
        <pt x="218" y="19" on="1"/>
        <pt x="156" y="19" on="0"/>
        <pt x="66" y="142" on="0"/>
      </contour>
      <contour>
        <pt x="654" y="967" on="1"/>
        <pt x="668" y="958" on="0"/>
        <pt x="675" y="923" on="0"/>
        <pt x="667" y="914" on="1"/>
        <pt x="583" y="797" on="1"/>
        <pt x="564" y="773" on="0"/>
        <pt x="543" y="783" on="1"/>
        <pt x="527" y="794" on="0"/>
        <pt x="543" y="824" on="1"/>
        <pt x="616" y="961" on="1"/>
        <pt x="630" y="983" on="0"/>
      </contour>
      <contour>
        <pt x="512" y="975" on="1"/>
        <pt x="526" y="968" on="0"/>
        <pt x="536" y="933" on="0"/>
        <pt x="529" y="923" on="1"/>
        <pt x="456" y="800" on="1"/>
        <pt x="450" y="789" on="0"/>
        <pt x="428" y="776" on="0"/>
        <pt x="418" y="781" on="1"/>
        <pt x="400" y="791" on="0"/>
        <pt x="413" y="823" on="1"/>
        <pt x="474" y="966" on="1"/>
        <pt x="486" y="990" on="0"/>
      </contour>
    </TTGlyph>
    <TTGlyph name="Omacron" xMin="66" yMin="19" xMax="643" yMax="854">
      <contour>
        <pt x="519" y="544" on="0"/>
        <pt x="447" y="648" on="0"/>
        <pt x="371" y="648" on="0"/>
        <pt x="276" y="569" on="0"/>
        <pt x="188" y="449" on="0"/>
        <pt x="126" y="288" on="0"/>
        <pt x="126" y="152" on="0"/>
        <pt x="188" y="75" on="0"/>
        <pt x="227" y="75" on="1"/>
        <pt x="281" y="75" on="0"/>
        <pt x="420" y="202" on="0"/>
        <pt x="519" y="384" on="0"/>
      </contour>
      <contour>
        <pt x="66" y="206" on="1"/>
        <pt x="66" y="325" on="0"/>
        <pt x="175" y="563" on="0"/>
        <pt x="332" y="708" on="0"/>
        <pt x="478" y="708" on="0"/>
        <pt x="584" y="562" on="0"/>
        <pt x="584" y="377" on="0"/>
        <pt x="477" y="166" on="0"/>
        <pt x="303" y="19" on="0"/>
        <pt x="218" y="19" on="1"/>
        <pt x="156" y="19" on="0"/>
        <pt x="66" y="142" on="0"/>
      </contour>
      <contour>
        <pt x="400" y="797" on="0"/>
        <pt x="367" y="794" on="0"/>
        <pt x="338" y="794" on="0"/>
        <pt x="304" y="822" on="0"/>
        <pt x="304" y="834" on="1"/>
        <pt x="304" y="860" on="0"/>
        <pt x="587" y="854" on="1"/>
        <pt x="621" y="853" on="0"/>
        <pt x="643" y="845" on="0"/>
        <pt x="643" y="835" on="1"/>
        <pt x="642" y="823" on="0"/>
        <pt x="585" y="813" on="0"/>
        <pt x="461" y="804" on="0"/>
      </contour>
    </TTGlyph>
    <TTGlyph name="Oslash" xMin="38" yMin="17" xMax="607" yMax="708">
      <contour>
        <pt x="553" y="600" on="1"/>
        <pt x="584" y="540" on="0"/>
        <pt x="584" y="377" on="0"/>
        <pt x="477" y="166" on="0"/>
        <pt x="303" y="19" on="0"/>
        <pt x="218" y="19" on="1"/>
        <pt x="162" y="19" on="0"/>
        <pt x="118" y="71" on="1"/>
        <pt x="74" y="17" on="0"/>
        <pt x="64" y="17" on="1"/>
        <pt x="38" y="17" on="0"/>
        <pt x="38" y="42" on="1"/>
        <pt x="38" y="56" on="0"/>
        <pt x="86" y="121" on="1"/>
        <pt x="66" y="164" on="0"/>
        <pt x="66" y="206" on="1"/>
        <pt x="66" y="325" on="0"/>
        <pt x="175" y="563" on="0"/>
        <pt x="332" y="708" on="0"/>
        <pt x="469" y="708" on="0"/>
        <pt x="520" y="649" on="1"/>
        <pt x="571" y="703" on="0"/>
        <pt x="590" y="703" on="1"/>
        <pt x="607" y="703" on="0"/>
        <pt x="607" y="661" on="0"/>
        <pt x="564" y="613" on="1"/>
      </contour>
      <contour>
        <pt x="126" y="215" on="1"/>
        <pt x="126" y="192" on="0"/>
        <pt x="130" y="176" on="1"/>
        <pt x="226" y="296" on="0"/>
        <pt x="276" y="356" on="1"/>
        <pt x="421" y="538" on="0"/>
        <pt x="478" y="603" on="1"/>
        <pt x="445" y="648" on="0"/>
        <pt x="371" y="648" on="0"/>
        <pt x="276" y="569" on="0"/>
        <pt x="188" y="449" on="0"/>
        <pt x="126" y="288" on="0"/>
      </contour>
      <contour>
        <pt x="519" y="457" on="1"/>
        <pt x="519" y="505" on="0"/>
        <pt x="506" y="547" on="1"/>
        <pt x="346" y="362" on="0"/>
        <pt x="154" y="117" on="1"/>
        <pt x="185" y="75" on="0"/>
        <pt x="281" y="75" on="0"/>
        <pt x="420" y="202" on="0"/>
        <pt x="519" y="384" on="0"/>
      </contour>
    </TTGlyph>
    <TTGlyph name="Otilde" xMin="66" yMin="19" xMax="646" yMax="908">
      <contour>
        <pt x="555" y="832" on="1"/>
        <pt x="568" y="833" on="0"/>
        <pt x="590" y="853" on="0"/>
        <pt x="596" y="864" on="1"/>
        <pt x="612" y="895" on="0"/>
        <pt x="646" y="895" on="0"/>
        <pt x="646" y="840" on="0"/>
        <pt x="591" y="779" on="0"/>
        <pt x="553" y="779" on="1"/>
        <pt x="505" y="779" on="0"/>
        <pt x="449" y="858" on="1"/>
        <pt x="428" y="848" on="0"/>
        <pt x="396" y="810" on="0"/>
        <pt x="375" y="783" on="0"/>
        <pt x="365" y="783" on="1"/>
        <pt x="343" y="783" on="0"/>
        <pt x="343" y="804" on="1"/>
        <pt x="343" y="836" on="0"/>
        <pt x="416" y="908" on="0"/>
        <pt x="490" y="908" on="0"/>
        <pt x="535" y="834" on="0"/>
      </contour>
      <contour>
        <pt x="519" y="544" on="0"/>
        <pt x="447" y="648" on="0"/>
        <pt x="371" y="648" on="0"/>
        <pt x="276" y="569" on="0"/>
        <pt x="188" y="449" on="0"/>
        <pt x="126" y="288" on="0"/>
        <pt x="126" y="152" on="0"/>
        <pt x="188" y="75" on="0"/>
        <pt x="227" y="75" on="1"/>
        <pt x="281" y="75" on="0"/>
        <pt x="420" y="202" on="0"/>
        <pt x="519" y="384" on="0"/>
      </contour>
      <contour>
        <pt x="66" y="206" on="1"/>
        <pt x="66" y="325" on="0"/>
        <pt x="175" y="563" on="0"/>
        <pt x="332" y="708" on="0"/>
        <pt x="478" y="708" on="0"/>
        <pt x="584" y="562" on="0"/>
        <pt x="584" y="377" on="0"/>
        <pt x="477" y="166" on="0"/>
        <pt x="303" y="19" on="0"/>
        <pt x="218" y="19" on="1"/>
        <pt x="156" y="19" on="0"/>
        <pt x="66" y="142" on="0"/>
      </contour>
    </TTGlyph>
    <TTGlyph name="P" xMin="54" yMin="14" xMax="549" yMax="708">
      <contour>
        <pt x="549" y="543" on="1"/>
        <pt x="549" y="343" on="0"/>
        <pt x="173" y="269" on="1"/>
        <pt x="98" y="14" on="0"/>
        <pt x="78" y="14" on="0"/>
        <pt x="54" y="42" on="0"/>
        <pt x="54" y="86" on="0"/>
        <pt x="184" y="540" on="0"/>
        <pt x="189" y="619" on="1"/>
        <pt x="170" y="630" on="0"/>
        <pt x="170" y="669" on="0"/>
        <pt x="294" y="708" on="0"/>
        <pt x="352" y="708" on="1"/>
        <pt x="435" y="708" on="0"/>
        <pt x="549" y="617" on="0"/>
      </contour>
      <contour>
        <pt x="490" y="536" on="1"/>
        <pt x="490" y="587" on="0"/>
        <pt x="412" y="652" on="0"/>
        <pt x="312" y="652" on="0"/>
        <pt x="243" y="626" on="1"/>
        <pt x="248" y="611" on="0"/>
        <pt x="248" y="597" on="1"/>
        <pt x="248" y="535" on="0"/>
        <pt x="189" y="324" on="1"/>
        <pt x="326" y="353" on="0"/>
        <pt x="490" y="470" on="0"/>
      </contour>
    </TTGlyph>
    <TTGlyph name="Q" xMin="70" yMin="-121" xMax="587" yMax="704">
      <contour>
        <pt x="478" y="704" on="0"/>
        <pt x="587" y="560" on="0"/>
        <pt x="587" y="375" on="0"/>
        <pt x="485" y="168" on="0"/>
        <pt x="406" y="100" on="1"/>
        <pt x="422" y="58" on="0"/>
        <pt x="444" y="8" on="1"/>
        <pt x="486" y="-92" on="0"/>
        <pt x="486" y="-108" on="1"/>
        <pt x="486" y="-121" on="0"/>
        <pt x="449" y="-121" on="0"/>
        <pt x="391" y="-17" on="0"/>
        <pt x="360" y="66" on="1"/>
        <pt x="292" y="23" on="0"/>
        <pt x="158" y="23" on="0"/>
        <pt x="70" y="127" on="0"/>
        <pt x="70" y="299" on="0"/>
        <pt x="133" y="484" on="0"/>
        <pt x="230" y="619" on="0"/>
        <pt x="349" y="704" on="0"/>
        <pt x="402" y="704" on="1"/>
      </contour>
      <contour>
        <pt x="406" y="646" on="1"/>
        <pt x="380" y="646" on="0"/>
        <pt x="350" y="630" on="1"/>
        <pt x="327" y="588" on="0"/>
        <pt x="327" y="501" on="1"/>
        <pt x="327" y="343" on="0"/>
        <pt x="383" y="164" on="1"/>
        <pt x="443" y="227" on="0"/>
        <pt x="523" y="391" on="0"/>
        <pt x="523" y="545" on="0"/>
        <pt x="450" y="646" on="0"/>
      </contour>
      <contour>
        <pt x="127" y="152" on="0"/>
        <pt x="187" y="76" on="0"/>
        <pt x="279" y="76" on="0"/>
        <pt x="340" y="124" on="1"/>
        <pt x="268" y="340" on="0"/>
        <pt x="268" y="485" on="1"/>
        <pt x="268" y="539" on="0"/>
        <pt x="285" y="581" on="1"/>
        <pt x="219" y="515" on="0"/>
        <pt x="127" y="312" on="0"/>
        <pt x="127" y="216" on="1"/>
      </contour>
    </TTGlyph>
    <TTGlyph name="R" xMin="54" yMin="20" xMax="540" yMax="708">
      <contour>
        <pt x="87" y="20" on="1"/>
        <pt x="77" y="20" on="0"/>
        <pt x="54" y="47" on="0"/>
        <pt x="54" y="92" on="0"/>
        <pt x="173" y="531" on="0"/>
        <pt x="180" y="612" on="1"/>
        <pt x="171" y="617" on="0"/>
        <pt x="156" y="639" on="0"/>
        <pt x="156" y="649" on="1"/>
        <pt x="156" y="669" on="0"/>
        <pt x="281" y="708" on="0"/>
        <pt x="338" y="708" on="1"/>
        <pt x="427" y="708" on="0"/>
        <pt x="540" y="640" on="0"/>
        <pt x="540" y="570" on="1"/>
        <pt x="540" y="520" on="0"/>
        <pt x="479" y="435" on="0"/>
        <pt x="392" y="383" on="0"/>
        <pt x="304" y="345" on="0"/>
        <pt x="243" y="320" on="0"/>
        <pt x="243" y="314" on="1"/>
        <pt x="243" y="284" on="0"/>
        <pt x="403" y="144" on="1"/>
        <pt x="416" y="133" on="0"/>
        <pt x="455" y="101" on="0"/>
        <pt x="479" y="81" on="0"/>
        <pt x="492" y="70" on="1"/>
        <pt x="516" y="48" on="0"/>
        <pt x="516" y="37" on="1"/>
        <pt x="516" y="22" on="0"/>
        <pt x="496" y="22" on="1"/>
        <pt x="465" y="22" on="0"/>
        <pt x="313" y="139" on="0"/>
        <pt x="181" y="284" on="0"/>
        <pt x="177" y="319" on="1"/>
        <pt x="165" y="276" on="0"/>
        <pt x="139" y="184" on="1"/>
        <pt x="93" y="20" on="0"/>
      </contour>
      <contour>
        <pt x="398" y="445" on="0"/>
        <pt x="482" y="527" on="0"/>
        <pt x="482" y="569" on="1"/>
        <pt x="482" y="647" on="0"/>
        <pt x="360" y="647" on="1"/>
        <pt x="309" y="647" on="0"/>
        <pt x="233" y="621" on="1"/>
        <pt x="237" y="612" on="0"/>
        <pt x="237" y="597" on="1"/>
        <pt x="237" y="535" on="0"/>
        <pt x="181" y="336" on="1"/>
        <pt x="193" y="351" on="0"/>
        <pt x="295" y="399" on="0"/>
      </contour>
    </TTGlyph>
    <TTGlyph name="Racute" xMin="54" yMin="20" xMax="560" yMax="943">
      <contour>
        <pt x="560" y="928" on="0"/>
        <pt x="560" y="891" on="0"/>
        <pt x="551" y="885" on="1"/>
        <pt x="434" y="792" on="1"/>
        <pt x="405" y="771" on="0"/>
        <pt x="377" y="804" on="0"/>
        <pt x="401" y="828" on="1"/>
        <pt x="511" y="943" on="1"/>
        <pt x="530" y="961" on="0"/>
        <pt x="548" y="940" on="1"/>
      </contour>
      <contour>
        <pt x="87" y="20" on="1"/>
        <pt x="77" y="20" on="0"/>
        <pt x="54" y="47" on="0"/>
        <pt x="54" y="92" on="0"/>
        <pt x="173" y="531" on="0"/>
        <pt x="180" y="612" on="1"/>
        <pt x="171" y="617" on="0"/>
        <pt x="156" y="639" on="0"/>
        <pt x="156" y="649" on="1"/>
        <pt x="156" y="669" on="0"/>
        <pt x="281" y="708" on="0"/>
        <pt x="338" y="708" on="1"/>
        <pt x="427" y="708" on="0"/>
        <pt x="540" y="640" on="0"/>
        <pt x="540" y="570" on="1"/>
        <pt x="540" y="520" on="0"/>
        <pt x="479" y="435" on="0"/>
        <pt x="392" y="383" on="0"/>
        <pt x="304" y="345" on="0"/>
        <pt x="243" y="320" on="0"/>
        <pt x="243" y="314" on="1"/>
        <pt x="243" y="284" on="0"/>
        <pt x="403" y="144" on="1"/>
        <pt x="416" y="133" on="0"/>
        <pt x="455" y="101" on="0"/>
        <pt x="479" y="81" on="0"/>
        <pt x="492" y="70" on="1"/>
        <pt x="516" y="48" on="0"/>
        <pt x="516" y="37" on="1"/>
        <pt x="516" y="22" on="0"/>
        <pt x="496" y="22" on="1"/>
        <pt x="465" y="22" on="0"/>
        <pt x="313" y="139" on="0"/>
        <pt x="181" y="284" on="0"/>
        <pt x="177" y="319" on="1"/>
        <pt x="165" y="276" on="0"/>
        <pt x="139" y="184" on="1"/>
        <pt x="93" y="20" on="0"/>
      </contour>
      <contour>
        <pt x="398" y="445" on="0"/>
        <pt x="482" y="527" on="0"/>
        <pt x="482" y="569" on="1"/>
        <pt x="482" y="647" on="0"/>
        <pt x="360" y="647" on="1"/>
        <pt x="309" y="647" on="0"/>
        <pt x="233" y="621" on="1"/>
        <pt x="237" y="612" on="0"/>
        <pt x="237" y="597" on="1"/>
        <pt x="237" y="535" on="0"/>
        <pt x="181" y="336" on="1"/>
        <pt x="193" y="351" on="0"/>
        <pt x="295" y="399" on="0"/>
      </contour>
    </TTGlyph>
    <TTGlyph name="Rcaron" xMin="54" yMin="20" xMax="572" yMax="965">
      <contour>
        <pt x="451" y="878" on="0"/>
        <pt x="531" y="931" on="0"/>
        <pt x="572" y="931" on="0"/>
        <pt x="572" y="911" on="1"/>
        <pt x="572" y="897" on="0"/>
        <pt x="548" y="876" on="0"/>
        <pt x="494" y="844" on="0"/>
        <pt x="467" y="824" on="0"/>
        <pt x="447" y="806" on="1"/>
        <pt x="407" y="770" on="0"/>
        <pt x="384" y="770" on="0"/>
        <pt x="311" y="830" on="0"/>
        <pt x="244" y="913" on="0"/>
        <pt x="244" y="938" on="1"/>
        <pt x="244" y="950" on="0"/>
        <pt x="258" y="965" on="0"/>
        <pt x="278" y="965" on="0"/>
        <pt x="301" y="939" on="0"/>
        <pt x="322" y="902" on="0"/>
        <pt x="368" y="847" on="0"/>
        <pt x="397" y="825" on="1"/>
      </contour>
      <contour>
        <pt x="87" y="20" on="1"/>
        <pt x="77" y="20" on="0"/>
        <pt x="54" y="47" on="0"/>
        <pt x="54" y="92" on="0"/>
        <pt x="173" y="531" on="0"/>
        <pt x="180" y="612" on="1"/>
        <pt x="171" y="617" on="0"/>
        <pt x="156" y="639" on="0"/>
        <pt x="156" y="649" on="1"/>
        <pt x="156" y="669" on="0"/>
        <pt x="281" y="708" on="0"/>
        <pt x="338" y="708" on="1"/>
        <pt x="427" y="708" on="0"/>
        <pt x="540" y="640" on="0"/>
        <pt x="540" y="570" on="1"/>
        <pt x="540" y="520" on="0"/>
        <pt x="479" y="435" on="0"/>
        <pt x="392" y="383" on="0"/>
        <pt x="304" y="345" on="0"/>
        <pt x="243" y="320" on="0"/>
        <pt x="243" y="314" on="1"/>
        <pt x="243" y="284" on="0"/>
        <pt x="403" y="144" on="1"/>
        <pt x="416" y="133" on="0"/>
        <pt x="455" y="101" on="0"/>
        <pt x="479" y="81" on="0"/>
        <pt x="492" y="70" on="1"/>
        <pt x="516" y="48" on="0"/>
        <pt x="516" y="37" on="1"/>
        <pt x="516" y="22" on="0"/>
        <pt x="496" y="22" on="1"/>
        <pt x="465" y="22" on="0"/>
        <pt x="313" y="139" on="0"/>
        <pt x="181" y="284" on="0"/>
        <pt x="177" y="319" on="1"/>
        <pt x="165" y="276" on="0"/>
        <pt x="139" y="184" on="1"/>
        <pt x="93" y="20" on="0"/>
      </contour>
      <contour>
        <pt x="398" y="445" on="0"/>
        <pt x="482" y="527" on="0"/>
        <pt x="482" y="569" on="1"/>
        <pt x="482" y="647" on="0"/>
        <pt x="360" y="647" on="1"/>
        <pt x="309" y="647" on="0"/>
        <pt x="233" y="621" on="1"/>
        <pt x="237" y="612" on="0"/>
        <pt x="237" y="597" on="1"/>
        <pt x="237" y="535" on="0"/>
        <pt x="181" y="336" on="1"/>
        <pt x="193" y="351" on="0"/>
        <pt x="295" y="399" on="0"/>
      </contour>
    </TTGlyph>
    <TTGlyph name="S" xMin="6" yMin="25" xMax="485" yMax="704">
      <contour>
        <pt x="207" y="25" on="1"/>
        <pt x="125" y="25" on="0"/>
        <pt x="6" y="122" on="0"/>
        <pt x="6" y="160" on="1"/>
        <pt x="6" y="177" on="0"/>
        <pt x="19" y="177" on="1"/>
        <pt x="26" y="177" on="0"/>
        <pt x="74" y="130" on="0"/>
        <pt x="149" y="82" on="0"/>
        <pt x="191" y="82" on="1"/>
        <pt x="277" y="82" on="0"/>
        <pt x="387" y="156" on="0"/>
        <pt x="387" y="208" on="1"/>
        <pt x="387" y="239" on="0"/>
        <pt x="314" y="328" on="0"/>
        <pt x="227" y="403" on="0"/>
        <pt x="154" y="491" on="0"/>
        <pt x="154" y="521" on="1"/>
        <pt x="154" y="538" on="0"/>
        <pt x="172" y="584" on="0"/>
        <pt x="182" y="597" on="1"/>
        <pt x="217" y="635" on="0"/>
        <pt x="371" y="704" on="0"/>
        <pt x="426" y="704" on="1"/>
        <pt x="451" y="704" on="0"/>
        <pt x="485" y="680" on="0"/>
        <pt x="485" y="666" on="1"/>
        <pt x="485" y="658" on="0"/>
        <pt x="444" y="649" on="0"/>
        <pt x="358" y="630" on="0"/>
        <pt x="321" y="615" on="1"/>
        <pt x="210" y="568" on="0"/>
        <pt x="210" y="523" on="1"/>
        <pt x="210" y="500" on="0"/>
        <pt x="331" y="392" on="1"/>
        <pt x="376" y="352" on="0"/>
        <pt x="452" y="249" on="0"/>
        <pt x="452" y="211" on="1"/>
        <pt x="452" y="131" on="0"/>
        <pt x="311" y="25" on="0"/>
      </contour>
    </TTGlyph>
    <TTGlyph name="Sacute" xMin="26" yMin="25" xMax="571" yMax="943">
      <contour>
        <pt x="227" y="25" on="1"/>
        <pt x="145" y="25" on="0"/>
        <pt x="26" y="122" on="0"/>
        <pt x="26" y="160" on="1"/>
        <pt x="26" y="177" on="0"/>
        <pt x="39" y="177" on="1"/>
        <pt x="46" y="177" on="0"/>
        <pt x="94" y="130" on="0"/>
        <pt x="169" y="82" on="0"/>
        <pt x="211" y="82" on="1"/>
        <pt x="297" y="82" on="0"/>
        <pt x="407" y="156" on="0"/>
        <pt x="407" y="208" on="1"/>
        <pt x="407" y="239" on="0"/>
        <pt x="334" y="328" on="0"/>
        <pt x="247" y="403" on="0"/>
        <pt x="174" y="491" on="0"/>
        <pt x="174" y="521" on="1"/>
        <pt x="174" y="538" on="0"/>
        <pt x="192" y="584" on="0"/>
        <pt x="202" y="597" on="1"/>
        <pt x="237" y="635" on="0"/>
        <pt x="391" y="704" on="0"/>
        <pt x="446" y="704" on="1"/>
        <pt x="471" y="704" on="0"/>
        <pt x="505" y="680" on="0"/>
        <pt x="505" y="666" on="1"/>
        <pt x="505" y="658" on="0"/>
        <pt x="464" y="649" on="0"/>
        <pt x="378" y="630" on="0"/>
        <pt x="341" y="615" on="1"/>
        <pt x="230" y="568" on="0"/>
        <pt x="230" y="523" on="1"/>
        <pt x="230" y="500" on="0"/>
        <pt x="351" y="392" on="1"/>
        <pt x="396" y="352" on="0"/>
        <pt x="472" y="249" on="0"/>
        <pt x="472" y="211" on="1"/>
        <pt x="472" y="131" on="0"/>
        <pt x="331" y="25" on="0"/>
      </contour>
      <contour>
        <pt x="571" y="928" on="0"/>
        <pt x="571" y="891" on="0"/>
        <pt x="562" y="885" on="1"/>
        <pt x="445" y="792" on="1"/>
        <pt x="416" y="771" on="0"/>
        <pt x="388" y="804" on="0"/>
        <pt x="412" y="828" on="1"/>
        <pt x="522" y="943" on="1"/>
        <pt x="541" y="961" on="0"/>
        <pt x="559" y="940" on="1"/>
      </contour>
    </TTGlyph>
    <TTGlyph name="Scaron" xMin="26" yMin="25" xMax="583" yMax="965">
      <contour>
        <pt x="227" y="25" on="1"/>
        <pt x="145" y="25" on="0"/>
        <pt x="26" y="122" on="0"/>
        <pt x="26" y="160" on="1"/>
        <pt x="26" y="177" on="0"/>
        <pt x="39" y="177" on="1"/>
        <pt x="46" y="177" on="0"/>
        <pt x="94" y="130" on="0"/>
        <pt x="169" y="82" on="0"/>
        <pt x="211" y="82" on="1"/>
        <pt x="297" y="82" on="0"/>
        <pt x="407" y="156" on="0"/>
        <pt x="407" y="208" on="1"/>
        <pt x="407" y="239" on="0"/>
        <pt x="334" y="328" on="0"/>
        <pt x="247" y="403" on="0"/>
        <pt x="174" y="491" on="0"/>
        <pt x="174" y="521" on="1"/>
        <pt x="174" y="538" on="0"/>
        <pt x="192" y="584" on="0"/>
        <pt x="202" y="597" on="1"/>
        <pt x="237" y="635" on="0"/>
        <pt x="391" y="704" on="0"/>
        <pt x="446" y="704" on="1"/>
        <pt x="471" y="704" on="0"/>
        <pt x="505" y="680" on="0"/>
        <pt x="505" y="666" on="1"/>
        <pt x="505" y="658" on="0"/>
        <pt x="464" y="649" on="0"/>
        <pt x="378" y="630" on="0"/>
        <pt x="341" y="615" on="1"/>
        <pt x="230" y="568" on="0"/>
        <pt x="230" y="523" on="1"/>
        <pt x="230" y="500" on="0"/>
        <pt x="351" y="392" on="1"/>
        <pt x="396" y="352" on="0"/>
        <pt x="472" y="249" on="0"/>
        <pt x="472" y="211" on="1"/>
        <pt x="472" y="131" on="0"/>
        <pt x="331" y="25" on="0"/>
      </contour>
      <contour>
        <pt x="462" y="878" on="0"/>
        <pt x="542" y="931" on="0"/>
        <pt x="583" y="931" on="0"/>
        <pt x="583" y="911" on="1"/>
        <pt x="583" y="897" on="0"/>
        <pt x="559" y="876" on="0"/>
        <pt x="505" y="844" on="0"/>
        <pt x="478" y="824" on="0"/>
        <pt x="458" y="806" on="1"/>
        <pt x="418" y="770" on="0"/>
        <pt x="395" y="770" on="0"/>
        <pt x="322" y="830" on="0"/>
        <pt x="255" y="913" on="0"/>
        <pt x="255" y="938" on="1"/>
        <pt x="255" y="950" on="0"/>
        <pt x="269" y="965" on="0"/>
        <pt x="289" y="965" on="0"/>
        <pt x="312" y="939" on="0"/>
        <pt x="333" y="902" on="0"/>
        <pt x="379" y="847" on="0"/>
        <pt x="408" y="825" on="1"/>
      </contour>
    </TTGlyph>
    <TTGlyph name="T" xMin="67" yMin="20" xMax="594" yMax="701">
      <contour>
        <pt x="305" y="648" on="1"/>
        <pt x="106" y="639" on="1"/>
        <pt x="94" y="639" on="0"/>
        <pt x="67" y="673" on="0"/>
        <pt x="67" y="697" on="0"/>
        <pt x="170" y="701" on="0"/>
        <pt x="416" y="701" on="1"/>
        <pt x="479" y="701" on="0"/>
        <pt x="594" y="666" on="0"/>
        <pt x="594" y="648" on="1"/>
        <pt x="594" y="640" on="0"/>
        <pt x="564" y="637" on="0"/>
        <pt x="491" y="640" on="0"/>
        <pt x="384" y="647" on="0"/>
        <pt x="361" y="648" on="1"/>
        <pt x="364" y="637" on="0"/>
        <pt x="364" y="628" on="1"/>
        <pt x="364" y="565" on="0"/>
        <pt x="288" y="288" on="1"/>
        <pt x="280" y="259" on="0"/>
        <pt x="256" y="169" on="0"/>
        <pt x="240" y="110" on="0"/>
        <pt x="232" y="80" on="1"/>
        <pt x="214" y="20" on="0"/>
        <pt x="209" y="20" on="1"/>
        <pt x="198" y="20" on="0"/>
        <pt x="174" y="47" on="0"/>
        <pt x="174" y="93" on="0"/>
        <pt x="298" y="568" on="0"/>
      </contour>
    </TTGlyph>
    <TTGlyph name="Tcaron" xMin="67" yMin="20" xMax="594" yMax="902">
      <contour>
        <pt x="305" y="648" on="1"/>
        <pt x="106" y="639" on="1"/>
        <pt x="94" y="639" on="0"/>
        <pt x="67" y="673" on="0"/>
        <pt x="67" y="697" on="0"/>
        <pt x="170" y="701" on="0"/>
        <pt x="416" y="701" on="1"/>
        <pt x="479" y="701" on="0"/>
        <pt x="594" y="666" on="0"/>
        <pt x="594" y="648" on="1"/>
        <pt x="594" y="640" on="0"/>
        <pt x="564" y="637" on="0"/>
        <pt x="491" y="640" on="0"/>
        <pt x="384" y="647" on="0"/>
        <pt x="361" y="648" on="1"/>
        <pt x="364" y="637" on="0"/>
        <pt x="364" y="628" on="1"/>
        <pt x="364" y="565" on="0"/>
        <pt x="288" y="288" on="1"/>
        <pt x="280" y="259" on="0"/>
        <pt x="256" y="169" on="0"/>
        <pt x="240" y="110" on="0"/>
        <pt x="232" y="80" on="1"/>
        <pt x="214" y="20" on="0"/>
        <pt x="209" y="20" on="1"/>
        <pt x="198" y="20" on="0"/>
        <pt x="174" y="47" on="0"/>
        <pt x="174" y="93" on="0"/>
        <pt x="298" y="568" on="0"/>
      </contour>
      <contour>
        <pt x="346" y="725" on="0"/>
        <pt x="322" y="707" on="0"/>
        <pt x="303" y="707" on="0"/>
        <pt x="230" y="767" on="0"/>
        <pt x="163" y="850" on="0"/>
        <pt x="163" y="875" on="1"/>
        <pt x="163" y="887" on="0"/>
        <pt x="177" y="902" on="0"/>
        <pt x="197" y="902" on="0"/>
        <pt x="220" y="876" on="0"/>
        <pt x="241" y="839" on="0"/>
        <pt x="287" y="784" on="0"/>
        <pt x="316" y="762" on="1"/>
        <pt x="370" y="815" on="0"/>
        <pt x="450" y="868" on="0"/>
        <pt x="491" y="868" on="0"/>
        <pt x="491" y="848" on="1"/>
        <pt x="491" y="834" on="0"/>
        <pt x="467" y="813" on="0"/>
        <pt x="413" y="781" on="0"/>
        <pt x="386" y="761" on="0"/>
      </contour>
    </TTGlyph>
    <TTGlyph name="Thorn" xMin="57" yMin="17" xMax="444" yMax="644">
      <contour>
        <pt x="145" y="181" on="1"/>
        <pt x="100" y="17" on="0"/>
        <pt x="78" y="17" on="0"/>
        <pt x="57" y="45" on="0"/>
        <pt x="57" y="84" on="0"/>
        <pt x="84" y="188" on="1"/>
        <pt x="168" y="506" on="0"/>
        <pt x="168" y="614" on="1"/>
        <pt x="168" y="631" on="0"/>
        <pt x="175" y="644" on="0"/>
        <pt x="199" y="644" on="0"/>
        <pt x="229" y="603" on="0"/>
        <pt x="229" y="552" on="0"/>
        <pt x="219" y="496" on="1"/>
        <pt x="260" y="509" on="0"/>
        <pt x="286" y="509" on="1"/>
        <pt x="343" y="509" on="0"/>
        <pt x="444" y="421" on="0"/>
        <pt x="444" y="302" on="0"/>
        <pt x="353" y="212" on="0"/>
        <pt x="214" y="172" on="0"/>
      </contour>
      <contour>
        <pt x="385" y="355" on="1"/>
        <pt x="385" y="395" on="0"/>
        <pt x="324" y="446" on="0"/>
        <pt x="250" y="446" on="0"/>
        <pt x="207" y="426" on="1"/>
        <pt x="185" y="327" on="0"/>
        <pt x="160" y="235" on="1"/>
        <pt x="239" y="225" on="0"/>
        <pt x="385" y="306" on="0"/>
      </contour>
    </TTGlyph>
    <TTGlyph name="U" xMin="99" yMin="10" xMax="557" yMax="704">
      <contour>
        <pt x="212" y="704" on="0"/>
        <pt x="245" y="660" on="0"/>
        <pt x="245" y="590" on="0"/>
        <pt x="158" y="258" on="0"/>
        <pt x="158" y="142" on="0"/>
        <pt x="208" y="66" on="0"/>
        <pt x="285" y="66" on="0"/>
        <pt x="370" y="145" on="0"/>
        <pt x="445" y="274" on="0"/>
        <pt x="495" y="461" on="0"/>
        <pt x="495" y="558" on="1"/>
        <pt x="495" y="592" on="0"/>
        <pt x="488" y="677" on="0"/>
        <pt x="488" y="698" on="0"/>
        <pt x="494" y="704" on="0"/>
        <pt x="517" y="704" on="0"/>
        <pt x="557" y="660" on="0"/>
        <pt x="557" y="634" on="1"/>
        <pt x="562" y="496" on="0"/>
        <pt x="509" y="256" on="0"/>
        <pt x="417" y="99" on="0"/>
        <pt x="301" y="10" on="0"/>
        <pt x="180" y="10" on="0"/>
        <pt x="99" y="118" on="0"/>
        <pt x="99" y="264" on="0"/>
        <pt x="185" y="603" on="0"/>
        <pt x="185" y="675" on="1"/>
        <pt x="185" y="693" on="0"/>
        <pt x="190" y="704" on="0"/>
      </contour>
    </TTGlyph>
    <TTGlyph name="Uacute" xMin="99" yMin="10" xMax="557" yMax="943">
      <contour>
        <pt x="212" y="704" on="0"/>
        <pt x="245" y="660" on="0"/>
        <pt x="245" y="590" on="0"/>
        <pt x="158" y="258" on="0"/>
        <pt x="158" y="142" on="0"/>
        <pt x="208" y="66" on="0"/>
        <pt x="285" y="66" on="0"/>
        <pt x="370" y="145" on="0"/>
        <pt x="445" y="274" on="0"/>
        <pt x="495" y="461" on="0"/>
        <pt x="495" y="558" on="1"/>
        <pt x="495" y="592" on="0"/>
        <pt x="488" y="677" on="0"/>
        <pt x="488" y="698" on="0"/>
        <pt x="494" y="704" on="0"/>
        <pt x="517" y="704" on="0"/>
        <pt x="557" y="660" on="0"/>
        <pt x="557" y="634" on="1"/>
        <pt x="562" y="496" on="0"/>
        <pt x="509" y="256" on="0"/>
        <pt x="417" y="99" on="0"/>
        <pt x="301" y="10" on="0"/>
        <pt x="180" y="10" on="0"/>
        <pt x="99" y="118" on="0"/>
        <pt x="99" y="264" on="0"/>
        <pt x="185" y="603" on="0"/>
        <pt x="185" y="675" on="1"/>
        <pt x="185" y="693" on="0"/>
        <pt x="190" y="704" on="0"/>
      </contour>
      <contour>
        <pt x="535" y="928" on="0"/>
        <pt x="535" y="891" on="0"/>
        <pt x="526" y="885" on="1"/>
        <pt x="409" y="792" on="1"/>
        <pt x="380" y="771" on="0"/>
        <pt x="352" y="804" on="0"/>
        <pt x="376" y="828" on="1"/>
        <pt x="486" y="943" on="1"/>
        <pt x="505" y="961" on="0"/>
        <pt x="523" y="940" on="1"/>
      </contour>
    </TTGlyph>
    <TTGlyph name="Ucircumflex" xMin="99" yMin="10" xMax="557" yMax="939">
      <contour>
        <pt x="212" y="704" on="0"/>
        <pt x="245" y="660" on="0"/>
        <pt x="245" y="590" on="0"/>
        <pt x="158" y="258" on="0"/>
        <pt x="158" y="142" on="0"/>
        <pt x="208" y="66" on="0"/>
        <pt x="285" y="66" on="0"/>
        <pt x="370" y="145" on="0"/>
        <pt x="445" y="274" on="0"/>
        <pt x="495" y="461" on="0"/>
        <pt x="495" y="558" on="1"/>
        <pt x="495" y="592" on="0"/>
        <pt x="488" y="677" on="0"/>
        <pt x="488" y="698" on="0"/>
        <pt x="494" y="704" on="0"/>
        <pt x="517" y="704" on="0"/>
        <pt x="557" y="660" on="0"/>
        <pt x="557" y="634" on="1"/>
        <pt x="562" y="496" on="0"/>
        <pt x="509" y="256" on="0"/>
        <pt x="417" y="99" on="0"/>
        <pt x="301" y="10" on="0"/>
        <pt x="180" y="10" on="0"/>
        <pt x="99" y="118" on="0"/>
        <pt x="99" y="264" on="0"/>
        <pt x="185" y="603" on="0"/>
        <pt x="185" y="675" on="1"/>
        <pt x="185" y="693" on="0"/>
        <pt x="190" y="704" on="0"/>
      </contour>
      <contour>
        <pt x="455" y="893" on="1"/>
        <pt x="522" y="813" on="0"/>
        <pt x="522" y="778" on="0"/>
        <pt x="484" y="778" on="0"/>
        <pt x="454" y="806" on="0"/>
        <pt x="402" y="880" on="0"/>
        <pt x="397" y="887" on="1"/>
        <pt x="369" y="872" on="0"/>
        <pt x="302" y="821" on="0"/>
        <pt x="257" y="788" on="0"/>
        <pt x="234" y="788" on="0"/>
        <pt x="218" y="800" on="0"/>
        <pt x="218" y="830" on="0"/>
        <pt x="248" y="861" on="0"/>
        <pt x="297" y="889" on="0"/>
        <pt x="329" y="909" on="0"/>
        <pt x="349" y="921" on="0"/>
        <pt x="372" y="933" on="0"/>
        <pt x="389" y="939" on="0"/>
        <pt x="399" y="939" on="0"/>
        <pt x="407" y="937" on="0"/>
        <pt x="414" y="935" on="0"/>
        <pt x="422" y="929" on="0"/>
        <pt x="427" y="926" on="0"/>
        <pt x="436" y="916" on="0"/>
        <pt x="438" y="914" on="1"/>
        <pt x="452" y="896" on="0"/>
      </contour>
    </TTGlyph>
    <TTGlyph name="Udieresis" xMin="99" yMin="10" xMax="557" yMax="905">
      <contour>
        <pt x="212" y="704" on="0"/>
        <pt x="245" y="660" on="0"/>
        <pt x="245" y="590" on="0"/>
        <pt x="158" y="258" on="0"/>
        <pt x="158" y="142" on="0"/>
        <pt x="208" y="66" on="0"/>
        <pt x="285" y="66" on="0"/>
        <pt x="370" y="145" on="0"/>
        <pt x="445" y="274" on="0"/>
        <pt x="495" y="461" on="0"/>
        <pt x="495" y="558" on="1"/>
        <pt x="495" y="592" on="0"/>
        <pt x="488" y="677" on="0"/>
        <pt x="488" y="698" on="0"/>
        <pt x="494" y="704" on="0"/>
        <pt x="517" y="704" on="0"/>
        <pt x="557" y="660" on="0"/>
        <pt x="557" y="634" on="1"/>
        <pt x="562" y="496" on="0"/>
        <pt x="509" y="256" on="0"/>
        <pt x="417" y="99" on="0"/>
        <pt x="301" y="10" on="0"/>
        <pt x="180" y="10" on="0"/>
        <pt x="99" y="118" on="0"/>
        <pt x="99" y="264" on="0"/>
        <pt x="185" y="603" on="0"/>
        <pt x="185" y="675" on="1"/>
        <pt x="185" y="693" on="0"/>
        <pt x="190" y="704" on="0"/>
      </contour>
      <contour>
        <pt x="458" y="905" on="0"/>
        <pt x="493" y="838" on="0"/>
        <pt x="493" y="824" on="1"/>
        <pt x="493" y="799" on="0"/>
        <pt x="477" y="799" on="1"/>
        <pt x="457" y="799" on="0"/>
        <pt x="409" y="846" on="0"/>
        <pt x="409" y="878" on="0"/>
        <pt x="431" y="905" on="0"/>
      </contour>
      <contour>
        <pt x="322" y="905" on="0"/>
        <pt x="357" y="838" on="0"/>
        <pt x="357" y="824" on="1"/>
        <pt x="357" y="799" on="0"/>
        <pt x="341" y="799" on="1"/>
        <pt x="321" y="799" on="0"/>
        <pt x="273" y="846" on="0"/>
        <pt x="273" y="878" on="0"/>
        <pt x="295" y="905" on="0"/>
      </contour>
    </TTGlyph>
    <TTGlyph name="Ugrave" xMin="99" yMin="10" xMax="557" yMax="937">
      <contour>
        <pt x="269" y="932" on="1"/>
        <pt x="291" y="957" on="0"/>
        <pt x="311" y="937" on="1"/>
        <pt x="412" y="827" on="1"/>
        <pt x="436" y="802" on="0"/>
        <pt x="406" y="771" on="0"/>
        <pt x="380" y="793" on="1"/>
        <pt x="268" y="880" on="1"/>
        <pt x="258" y="887" on="0"/>
        <pt x="257" y="919" on="0"/>
      </contour>
      <contour>
        <pt x="212" y="704" on="0"/>
        <pt x="245" y="660" on="0"/>
        <pt x="245" y="590" on="0"/>
        <pt x="158" y="258" on="0"/>
        <pt x="158" y="142" on="0"/>
        <pt x="208" y="66" on="0"/>
        <pt x="285" y="66" on="0"/>
        <pt x="370" y="145" on="0"/>
        <pt x="445" y="274" on="0"/>
        <pt x="495" y="461" on="0"/>
        <pt x="495" y="558" on="1"/>
        <pt x="495" y="592" on="0"/>
        <pt x="488" y="677" on="0"/>
        <pt x="488" y="698" on="0"/>
        <pt x="494" y="704" on="0"/>
        <pt x="517" y="704" on="0"/>
        <pt x="557" y="660" on="0"/>
        <pt x="557" y="634" on="1"/>
        <pt x="562" y="496" on="0"/>
        <pt x="509" y="256" on="0"/>
        <pt x="417" y="99" on="0"/>
        <pt x="301" y="10" on="0"/>
        <pt x="180" y="10" on="0"/>
        <pt x="99" y="118" on="0"/>
        <pt x="99" y="264" on="0"/>
        <pt x="185" y="603" on="0"/>
        <pt x="185" y="675" on="1"/>
        <pt x="185" y="693" on="0"/>
        <pt x="190" y="704" on="0"/>
      </contour>
    </TTGlyph>
    <TTGlyph name="Uhungarumlaut" xMin="99" yMin="10" xMax="571" yMax="975">
      <contour>
        <pt x="553" y="967" on="1"/>
        <pt x="567" y="958" on="0"/>
        <pt x="574" y="923" on="0"/>
        <pt x="566" y="914" on="1"/>
        <pt x="482" y="797" on="1"/>
        <pt x="463" y="773" on="0"/>
        <pt x="442" y="783" on="1"/>
        <pt x="426" y="794" on="0"/>
        <pt x="442" y="824" on="1"/>
        <pt x="515" y="961" on="1"/>
        <pt x="529" y="983" on="0"/>
      </contour>
      <contour>
        <pt x="411" y="975" on="1"/>
        <pt x="425" y="968" on="0"/>
        <pt x="435" y="933" on="0"/>
        <pt x="428" y="923" on="1"/>
        <pt x="355" y="800" on="1"/>
        <pt x="349" y="789" on="0"/>
        <pt x="327" y="776" on="0"/>
        <pt x="317" y="781" on="1"/>
        <pt x="299" y="791" on="0"/>
        <pt x="312" y="823" on="1"/>
        <pt x="373" y="966" on="1"/>
        <pt x="385" y="990" on="0"/>
      </contour>
      <contour>
        <pt x="212" y="704" on="0"/>
        <pt x="245" y="660" on="0"/>
        <pt x="245" y="590" on="0"/>
        <pt x="158" y="258" on="0"/>
        <pt x="158" y="142" on="0"/>
        <pt x="208" y="66" on="0"/>
        <pt x="285" y="66" on="0"/>
        <pt x="370" y="145" on="0"/>
        <pt x="445" y="274" on="0"/>
        <pt x="495" y="461" on="0"/>
        <pt x="495" y="558" on="1"/>
        <pt x="495" y="592" on="0"/>
        <pt x="488" y="677" on="0"/>
        <pt x="488" y="698" on="0"/>
        <pt x="494" y="704" on="0"/>
        <pt x="517" y="704" on="0"/>
        <pt x="557" y="660" on="0"/>
        <pt x="557" y="634" on="1"/>
        <pt x="562" y="496" on="0"/>
        <pt x="509" y="256" on="0"/>
        <pt x="417" y="99" on="0"/>
        <pt x="301" y="10" on="0"/>
        <pt x="180" y="10" on="0"/>
        <pt x="99" y="118" on="0"/>
        <pt x="99" y="264" on="0"/>
        <pt x="185" y="603" on="0"/>
        <pt x="185" y="675" on="1"/>
        <pt x="185" y="693" on="0"/>
        <pt x="190" y="704" on="0"/>
      </contour>
    </TTGlyph>
    <TTGlyph name="Umacron" xMin="99" yMin="10" xMax="557" yMax="854">
      <contour>
        <pt x="299" y="797" on="0"/>
        <pt x="266" y="794" on="0"/>
        <pt x="237" y="794" on="0"/>
        <pt x="203" y="822" on="0"/>
        <pt x="203" y="834" on="1"/>
        <pt x="203" y="860" on="0"/>
        <pt x="486" y="854" on="1"/>
        <pt x="520" y="853" on="0"/>
        <pt x="542" y="845" on="0"/>
        <pt x="542" y="835" on="1"/>
        <pt x="541" y="823" on="0"/>
        <pt x="484" y="813" on="0"/>
        <pt x="360" y="804" on="0"/>
      </contour>
      <contour>
        <pt x="212" y="704" on="0"/>
        <pt x="245" y="660" on="0"/>
        <pt x="245" y="590" on="0"/>
        <pt x="158" y="258" on="0"/>
        <pt x="158" y="142" on="0"/>
        <pt x="208" y="66" on="0"/>
        <pt x="285" y="66" on="0"/>
        <pt x="370" y="145" on="0"/>
        <pt x="445" y="274" on="0"/>
        <pt x="495" y="461" on="0"/>
        <pt x="495" y="558" on="1"/>
        <pt x="495" y="592" on="0"/>
        <pt x="488" y="677" on="0"/>
        <pt x="488" y="698" on="0"/>
        <pt x="494" y="704" on="0"/>
        <pt x="517" y="704" on="0"/>
        <pt x="557" y="660" on="0"/>
        <pt x="557" y="634" on="1"/>
        <pt x="562" y="496" on="0"/>
        <pt x="509" y="256" on="0"/>
        <pt x="417" y="99" on="0"/>
        <pt x="301" y="10" on="0"/>
        <pt x="180" y="10" on="0"/>
        <pt x="99" y="118" on="0"/>
        <pt x="99" y="264" on="0"/>
        <pt x="185" y="603" on="0"/>
        <pt x="185" y="675" on="1"/>
        <pt x="185" y="693" on="0"/>
        <pt x="190" y="704" on="0"/>
      </contour>
    </TTGlyph>
    <TTGlyph name="Uogonek" xMin="99" yMin="-166" xMax="557" yMax="704">
      <contour>
        <pt x="193" y="-93" on="1"/>
        <pt x="193" y="-116" on="0"/>
        <pt x="236" y="-116" on="1"/>
        <pt x="252" y="-116" on="0"/>
        <pt x="287" y="-100" on="0"/>
        <pt x="292" y="-100" on="1"/>
        <pt x="312" y="-98" on="0"/>
        <pt x="315" y="-118" on="1"/>
        <pt x="317" y="-139" on="0"/>
        <pt x="249" y="-166" on="0"/>
        <pt x="188" y="-166" on="0"/>
        <pt x="137" y="-127" on="0"/>
        <pt x="137" y="-100" on="1"/>
        <pt x="137" y="-50" on="0"/>
        <pt x="205" y="16" on="1"/>
        <pt x="158" y="32" on="0"/>
        <pt x="99" y="131" on="0"/>
        <pt x="99" y="264" on="0"/>
        <pt x="185" y="603" on="0"/>
        <pt x="185" y="675" on="1"/>
        <pt x="185" y="693" on="0"/>
        <pt x="190" y="704" on="0"/>
        <pt x="212" y="704" on="0"/>
        <pt x="245" y="660" on="0"/>
        <pt x="245" y="590" on="0"/>
        <pt x="158" y="258" on="0"/>
        <pt x="158" y="142" on="0"/>
        <pt x="208" y="66" on="0"/>
        <pt x="285" y="66" on="0"/>
        <pt x="370" y="145" on="0"/>
        <pt x="445" y="274" on="0"/>
        <pt x="495" y="461" on="0"/>
        <pt x="495" y="558" on="1"/>
        <pt x="495" y="592" on="0"/>
        <pt x="488" y="677" on="0"/>
        <pt x="488" y="698" on="0"/>
        <pt x="494" y="704" on="0"/>
        <pt x="517" y="704" on="0"/>
        <pt x="557" y="660" on="0"/>
        <pt x="557" y="634" on="1"/>
        <pt x="566" y="387" on="0"/>
        <pt x="400" y="48" on="0"/>
        <pt x="284" y="16" on="1"/>
        <pt x="278" y="5" on="0"/>
        <pt x="265" y="-5" on="1"/>
        <pt x="193" y="-61" on="0"/>
      </contour>
    </TTGlyph>
    <TTGlyph name="Uring" xMin="99" yMin="10" xMax="557" yMax="944">
      <contour>
        <pt x="212" y="704" on="0"/>
        <pt x="245" y="660" on="0"/>
        <pt x="245" y="590" on="0"/>
        <pt x="158" y="258" on="0"/>
        <pt x="158" y="142" on="0"/>
        <pt x="208" y="66" on="0"/>
        <pt x="285" y="66" on="0"/>
        <pt x="370" y="145" on="0"/>
        <pt x="445" y="274" on="0"/>
        <pt x="495" y="461" on="0"/>
        <pt x="495" y="558" on="1"/>
        <pt x="495" y="592" on="0"/>
        <pt x="488" y="677" on="0"/>
        <pt x="488" y="698" on="0"/>
        <pt x="494" y="704" on="0"/>
        <pt x="517" y="704" on="0"/>
        <pt x="557" y="660" on="0"/>
        <pt x="557" y="634" on="1"/>
        <pt x="562" y="496" on="0"/>
        <pt x="509" y="256" on="0"/>
        <pt x="417" y="99" on="0"/>
        <pt x="301" y="10" on="0"/>
        <pt x="180" y="10" on="0"/>
        <pt x="99" y="118" on="0"/>
        <pt x="99" y="264" on="0"/>
        <pt x="185" y="603" on="0"/>
        <pt x="185" y="675" on="1"/>
        <pt x="185" y="693" on="0"/>
        <pt x="190" y="704" on="0"/>
      </contour>
      <contour>
        <pt x="413" y="899" on="0"/>
        <pt x="387" y="899" on="0"/>
        <pt x="365" y="871" on="0"/>
        <pt x="361" y="834" on="0"/>
        <pt x="377" y="807" on="0"/>
        <pt x="403" y="807" on="0"/>
        <pt x="425" y="834" on="0"/>
        <pt x="429" y="871" on="0"/>
      </contour>
      <contour>
        <pt x="323" y="891" on="0"/>
        <pt x="375" y="944" on="0"/>
        <pt x="438" y="944" on="0"/>
        <pt x="478" y="891" on="0"/>
        <pt x="468" y="817" on="0"/>
        <pt x="416" y="764" on="0"/>
        <pt x="353" y="764" on="0"/>
        <pt x="313" y="817" on="0"/>
      </contour>
    </TTGlyph>
    <TTGlyph name="V" xMin="78" yMin="12" xMax="591" yMax="704">
      <contour>
        <pt x="563" y="704" on="1"/>
        <pt x="572" y="704" on="0"/>
        <pt x="591" y="690" on="0"/>
        <pt x="591" y="664" on="0"/>
        <pt x="554" y="600" on="0"/>
        <pt x="464" y="449" on="0"/>
        <pt x="391" y="305" on="0"/>
        <pt x="330" y="177" on="0"/>
        <pt x="296" y="103" on="0"/>
        <pt x="280" y="71" on="1"/>
        <pt x="252" y="12" on="0"/>
        <pt x="237" y="12" on="1"/>
        <pt x="219" y="12" on="0"/>
        <pt x="166" y="138" on="0"/>
        <pt x="78" y="622" on="0"/>
        <pt x="78" y="680" on="1"/>
        <pt x="78" y="704" on="0"/>
        <pt x="89" y="704" on="1"/>
        <pt x="103" y="704" on="0"/>
        <pt x="133" y="669" on="0"/>
        <pt x="145" y="631" on="0"/>
        <pt x="202" y="232" on="0"/>
        <pt x="240" y="105" on="1"/>
        <pt x="288" y="241" on="0"/>
        <pt x="532" y="704" on="0"/>
      </contour>
    </TTGlyph>
    <TTGlyph name="W" xMin="81" yMin="22" xMax="730" yMax="704">
      <contour>
        <pt x="515" y="704" on="1"/>
        <pt x="618" y="704" on="0"/>
        <pt x="730" y="521" on="0"/>
        <pt x="730" y="383" on="1"/>
        <pt x="730" y="293" on="0"/>
        <pt x="669" y="127" on="0"/>
        <pt x="567" y="24" on="0"/>
        <pt x="510" y="24" on="1"/>
        <pt x="444" y="24" on="0"/>
        <pt x="416" y="116" on="1"/>
        <pt x="390" y="198" on="0"/>
        <pt x="381" y="333" on="1"/>
        <pt x="355" y="300" on="0"/>
        <pt x="271" y="185" on="0"/>
        <pt x="233" y="134" on="1"/>
        <pt x="148" y="22" on="0"/>
        <pt x="118" y="22" on="1"/>
        <pt x="104" y="22" on="0"/>
        <pt x="78" y="71" on="0"/>
        <pt x="84" y="148" on="0"/>
        <pt x="139" y="567" on="0"/>
        <pt x="140" y="669" on="1"/>
        <pt x="141" y="704" on="0"/>
        <pt x="160" y="704" on="1"/>
        <pt x="175" y="704" on="0"/>
        <pt x="213" y="664" on="0"/>
        <pt x="211" y="645" on="1"/>
        <pt x="155" y="289" on="0"/>
        <pt x="135" y="100" on="1"/>
        <pt x="203" y="207" on="0"/>
        <pt x="367" y="404" on="0"/>
        <pt x="394" y="404" on="1"/>
        <pt x="414" y="404" on="0"/>
        <pt x="440" y="305" on="0"/>
        <pt x="452" y="185" on="0"/>
        <pt x="484" y="86" on="0"/>
        <pt x="510" y="86" on="1"/>
        <pt x="575" y="86" on="0"/>
        <pt x="670" y="274" on="0"/>
        <pt x="670" y="392" on="1"/>
        <pt x="670" y="480" on="0"/>
        <pt x="600" y="631" on="0"/>
        <pt x="539" y="634" on="1"/>
        <pt x="510" y="635" on="0"/>
        <pt x="471" y="665" on="0"/>
        <pt x="471" y="683" on="1"/>
        <pt x="471" y="704" on="0"/>
      </contour>
    </TTGlyph>
    <TTGlyph name="X" xMin="38" yMin="23" xMax="632" yMax="704">
      <contour>
        <pt x="595" y="704" on="1"/>
        <pt x="603" y="704" on="0"/>
        <pt x="632" y="677" on="0"/>
        <pt x="631" y="661" on="0"/>
        <pt x="622" y="652" on="0"/>
        <pt x="595" y="634" on="0"/>
        <pt x="578" y="621" on="0"/>
        <pt x="551" y="591" on="0"/>
        <pt x="499" y="528" on="0"/>
        <pt x="464" y="483" on="0"/>
        <pt x="420" y="428" on="1"/>
        <pt x="352" y="341" on="1"/>
        <pt x="381" y="297" on="0"/>
        <pt x="492" y="137" on="0"/>
        <pt x="540" y="58" on="0"/>
        <pt x="539" y="23" on="0"/>
        <pt x="526" y="23" on="1"/>
        <pt x="504" y="23" on="0"/>
        <pt x="378" y="180" on="0"/>
        <pt x="311" y="289" on="1"/>
        <pt x="155" y="92" on="0"/>
        <pt x="90" y="23" on="0"/>
        <pt x="66" y="23" on="1"/>
        <pt x="58" y="23" on="0"/>
        <pt x="38" y="40" on="0"/>
        <pt x="39" y="51" on="0"/>
        <pt x="43" y="59" on="0"/>
        <pt x="47" y="64" on="0"/>
        <pt x="63" y="80" on="1"/>
        <pt x="124" y="139" on="0"/>
        <pt x="281" y="339" on="1"/>
        <pt x="139" y="585" on="0"/>
        <pt x="144" y="686" on="1"/>
        <pt x="145" y="704" on="0"/>
        <pt x="156" y="704" on="1"/>
        <pt x="179" y="704" on="0"/>
        <pt x="216" y="680" on="0"/>
        <pt x="215" y="661" on="1"/>
        <pt x="210" y="571" on="0"/>
        <pt x="321" y="391" on="1"/>
        <pt x="482" y="603" on="0"/>
        <pt x="573" y="704" on="0"/>
      </contour>
    </TTGlyph>
    <TTGlyph name="Y" xMin="101" yMin="7" xMax="607" yMax="700">
      <contour>
        <pt x="341" y="356" on="1"/>
        <pt x="358" y="356" on="0"/>
        <pt x="457" y="528" on="0"/>
        <pt x="557" y="700" on="0"/>
        <pt x="577" y="700" on="1"/>
        <pt x="607" y="700" on="0"/>
        <pt x="607" y="674" on="1"/>
        <pt x="607" y="660" on="0"/>
        <pt x="547" y="559" on="0"/>
        <pt x="435" y="376" on="0"/>
        <pt x="373" y="260" on="0"/>
        <pt x="310" y="142" on="0"/>
        <pt x="281" y="88" on="0"/>
        <pt x="264" y="58" on="1"/>
        <pt x="233" y="7" on="0"/>
        <pt x="217" y="7" on="1"/>
        <pt x="205" y="7" on="0"/>
        <pt x="205" y="42" on="0"/>
        <pt x="222" y="90" on="0"/>
        <pt x="244" y="134" on="1"/>
        <pt x="277" y="202" on="0"/>
        <pt x="328" y="300" on="1"/>
        <pt x="242" y="324" on="0"/>
        <pt x="119" y="502" on="0"/>
        <pt x="101" y="638" on="1"/>
        <pt x="98" y="665" on="0"/>
        <pt x="115" y="700" on="0"/>
        <pt x="138" y="700" on="0"/>
        <pt x="157" y="637" on="0"/>
        <pt x="189" y="521" on="0"/>
        <pt x="242" y="417" on="0"/>
        <pt x="314" y="356" on="0"/>
      </contour>
    </TTGlyph>
    <TTGlyph name="Yacute" xMin="101" yMin="7" xMax="607" yMax="943">
      <contour>
        <pt x="524" y="928" on="0"/>
        <pt x="524" y="891" on="0"/>
        <pt x="515" y="885" on="1"/>
        <pt x="398" y="792" on="1"/>
        <pt x="369" y="771" on="0"/>
        <pt x="341" y="804" on="0"/>
        <pt x="365" y="828" on="1"/>
        <pt x="475" y="943" on="1"/>
        <pt x="494" y="961" on="0"/>
        <pt x="512" y="940" on="1"/>
      </contour>
      <contour>
        <pt x="341" y="356" on="1"/>
        <pt x="358" y="356" on="0"/>
        <pt x="457" y="528" on="0"/>
        <pt x="557" y="700" on="0"/>
        <pt x="577" y="700" on="1"/>
        <pt x="607" y="700" on="0"/>
        <pt x="607" y="674" on="1"/>
        <pt x="607" y="660" on="0"/>
        <pt x="547" y="559" on="0"/>
        <pt x="435" y="376" on="0"/>
        <pt x="373" y="260" on="0"/>
        <pt x="310" y="142" on="0"/>
        <pt x="281" y="88" on="0"/>
        <pt x="264" y="58" on="1"/>
        <pt x="233" y="7" on="0"/>
        <pt x="217" y="7" on="1"/>
        <pt x="205" y="7" on="0"/>
        <pt x="205" y="42" on="0"/>
        <pt x="222" y="90" on="0"/>
        <pt x="244" y="134" on="1"/>
        <pt x="277" y="202" on="0"/>
        <pt x="328" y="300" on="1"/>
        <pt x="242" y="324" on="0"/>
        <pt x="119" y="502" on="0"/>
        <pt x="101" y="638" on="1"/>
        <pt x="98" y="665" on="0"/>
        <pt x="115" y="700" on="0"/>
        <pt x="138" y="700" on="0"/>
        <pt x="157" y="637" on="0"/>
        <pt x="189" y="521" on="0"/>
        <pt x="242" y="417" on="0"/>
        <pt x="314" y="356" on="0"/>
      </contour>
    </TTGlyph>
    <TTGlyph name="Ydieresis" xMin="101" yMin="7" xMax="607" yMax="905">
      <contour>
        <pt x="447" y="905" on="0"/>
        <pt x="482" y="838" on="0"/>
        <pt x="482" y="824" on="1"/>
        <pt x="482" y="799" on="0"/>
        <pt x="466" y="799" on="1"/>
        <pt x="446" y="799" on="0"/>
        <pt x="398" y="846" on="0"/>
        <pt x="398" y="878" on="0"/>
        <pt x="420" y="905" on="0"/>
      </contour>
      <contour>
        <pt x="311" y="905" on="0"/>
        <pt x="346" y="838" on="0"/>
        <pt x="346" y="824" on="1"/>
        <pt x="346" y="799" on="0"/>
        <pt x="330" y="799" on="1"/>
        <pt x="310" y="799" on="0"/>
        <pt x="262" y="846" on="0"/>
        <pt x="262" y="878" on="0"/>
        <pt x="284" y="905" on="0"/>
      </contour>
      <contour>
        <pt x="341" y="356" on="1"/>
        <pt x="358" y="356" on="0"/>
        <pt x="457" y="528" on="0"/>
        <pt x="557" y="700" on="0"/>
        <pt x="577" y="700" on="1"/>
        <pt x="607" y="700" on="0"/>
        <pt x="607" y="674" on="1"/>
        <pt x="607" y="660" on="0"/>
        <pt x="547" y="559" on="0"/>
        <pt x="435" y="376" on="0"/>
        <pt x="373" y="260" on="0"/>
        <pt x="310" y="142" on="0"/>
        <pt x="281" y="88" on="0"/>
        <pt x="264" y="58" on="1"/>
        <pt x="233" y="7" on="0"/>
        <pt x="217" y="7" on="1"/>
        <pt x="205" y="7" on="0"/>
        <pt x="205" y="42" on="0"/>
        <pt x="222" y="90" on="0"/>
        <pt x="244" y="134" on="1"/>
        <pt x="277" y="202" on="0"/>
        <pt x="328" y="300" on="1"/>
        <pt x="242" y="324" on="0"/>
        <pt x="119" y="502" on="0"/>
        <pt x="101" y="638" on="1"/>
        <pt x="98" y="665" on="0"/>
        <pt x="115" y="700" on="0"/>
        <pt x="138" y="700" on="0"/>
        <pt x="157" y="637" on="0"/>
        <pt x="189" y="521" on="0"/>
        <pt x="242" y="417" on="0"/>
        <pt x="314" y="356" on="0"/>
      </contour>
    </TTGlyph>
    <TTGlyph name="Z" xMin="65" yMin="26" xMax="562" yMax="699">
      <contour>
        <pt x="128" y="111" on="1"/>
        <pt x="128" y="102" on="0"/>
        <pt x="145" y="84" on="0"/>
        <pt x="161" y="84" on="1"/>
        <pt x="217" y="84" on="0"/>
        <pt x="478" y="121" on="0"/>
        <pt x="517" y="121" on="0"/>
        <pt x="524" y="114" on="0"/>
        <pt x="524" y="103" on="1"/>
        <pt x="524" y="88" on="0"/>
        <pt x="420" y="52" on="0"/>
        <pt x="242" y="26" on="0"/>
        <pt x="153" y="26" on="1"/>
        <pt x="120" y="26" on="0"/>
        <pt x="65" y="76" on="0"/>
        <pt x="65" y="137" on="0"/>
        <pt x="156" y="242" on="0"/>
        <pt x="285" y="352" on="0"/>
        <pt x="349" y="406" on="1"/>
        <pt x="504" y="538" on="0"/>
        <pt x="502" y="594" on="1"/>
        <pt x="501" y="611" on="0"/>
        <pt x="381" y="640" on="0"/>
        <pt x="292" y="636" on="0"/>
        <pt x="197" y="621" on="0"/>
        <pt x="161" y="620" on="0"/>
        <pt x="127" y="652" on="0"/>
        <pt x="126" y="667" on="1"/>
        <pt x="124" y="681" on="0"/>
        <pt x="196" y="693" on="1"/>
        <pt x="232" y="699" on="0"/>
        <pt x="278" y="699" on="1"/>
        <pt x="465" y="699" on="0"/>
        <pt x="532" y="634" on="1"/>
        <pt x="560" y="606" on="0"/>
        <pt x="563" y="548" on="0"/>
        <pt x="474" y="438" on="0"/>
        <pt x="346" y="325" on="0"/>
        <pt x="282" y="270" on="1"/>
        <pt x="128" y="139" on="0"/>
      </contour>
    </TTGlyph>
    <TTGlyph name="Zacute" xMin="65" yMin="26" xMax="562" yMax="943">
      <contour>
        <pt x="128" y="111" on="1"/>
        <pt x="128" y="102" on="0"/>
        <pt x="145" y="84" on="0"/>
        <pt x="161" y="84" on="1"/>
        <pt x="217" y="84" on="0"/>
        <pt x="478" y="121" on="0"/>
        <pt x="517" y="121" on="0"/>
        <pt x="524" y="114" on="0"/>
        <pt x="524" y="103" on="1"/>
        <pt x="524" y="88" on="0"/>
        <pt x="420" y="52" on="0"/>
        <pt x="242" y="26" on="0"/>
        <pt x="153" y="26" on="1"/>
        <pt x="120" y="26" on="0"/>
        <pt x="65" y="76" on="0"/>
        <pt x="65" y="137" on="0"/>
        <pt x="156" y="242" on="0"/>
        <pt x="285" y="352" on="0"/>
        <pt x="349" y="406" on="1"/>
        <pt x="504" y="538" on="0"/>
        <pt x="502" y="594" on="1"/>
        <pt x="501" y="611" on="0"/>
        <pt x="381" y="640" on="0"/>
        <pt x="292" y="636" on="0"/>
        <pt x="197" y="621" on="0"/>
        <pt x="161" y="620" on="0"/>
        <pt x="127" y="652" on="0"/>
        <pt x="126" y="667" on="1"/>
        <pt x="124" y="681" on="0"/>
        <pt x="196" y="693" on="1"/>
        <pt x="232" y="699" on="0"/>
        <pt x="278" y="699" on="1"/>
        <pt x="465" y="699" on="0"/>
        <pt x="532" y="634" on="1"/>
        <pt x="560" y="606" on="0"/>
        <pt x="563" y="548" on="0"/>
        <pt x="474" y="438" on="0"/>
        <pt x="346" y="325" on="0"/>
        <pt x="282" y="270" on="1"/>
        <pt x="128" y="139" on="0"/>
      </contour>
      <contour>
        <pt x="555" y="928" on="0"/>
        <pt x="555" y="891" on="0"/>
        <pt x="546" y="885" on="1"/>
        <pt x="429" y="792" on="1"/>
        <pt x="400" y="771" on="0"/>
        <pt x="372" y="804" on="0"/>
        <pt x="396" y="828" on="1"/>
        <pt x="506" y="943" on="1"/>
        <pt x="525" y="961" on="0"/>
        <pt x="543" y="940" on="1"/>
      </contour>
    </TTGlyph>
    <TTGlyph name="Zcaron" xMin="65" yMin="26" xMax="567" yMax="965">
      <contour>
        <pt x="128" y="111" on="1"/>
        <pt x="128" y="102" on="0"/>
        <pt x="145" y="84" on="0"/>
        <pt x="161" y="84" on="1"/>
        <pt x="217" y="84" on="0"/>
        <pt x="478" y="121" on="0"/>
        <pt x="517" y="121" on="0"/>
        <pt x="524" y="114" on="0"/>
        <pt x="524" y="103" on="1"/>
        <pt x="524" y="88" on="0"/>
        <pt x="420" y="52" on="0"/>
        <pt x="242" y="26" on="0"/>
        <pt x="153" y="26" on="1"/>
        <pt x="120" y="26" on="0"/>
        <pt x="65" y="76" on="0"/>
        <pt x="65" y="137" on="0"/>
        <pt x="156" y="242" on="0"/>
        <pt x="285" y="352" on="0"/>
        <pt x="349" y="406" on="1"/>
        <pt x="504" y="538" on="0"/>
        <pt x="502" y="594" on="1"/>
        <pt x="501" y="611" on="0"/>
        <pt x="381" y="640" on="0"/>
        <pt x="292" y="636" on="0"/>
        <pt x="197" y="621" on="0"/>
        <pt x="161" y="620" on="0"/>
        <pt x="127" y="652" on="0"/>
        <pt x="126" y="667" on="1"/>
        <pt x="124" y="681" on="0"/>
        <pt x="196" y="693" on="1"/>
        <pt x="232" y="699" on="0"/>
        <pt x="278" y="699" on="1"/>
        <pt x="465" y="699" on="0"/>
        <pt x="532" y="634" on="1"/>
        <pt x="560" y="606" on="0"/>
        <pt x="563" y="548" on="0"/>
        <pt x="474" y="438" on="0"/>
        <pt x="346" y="325" on="0"/>
        <pt x="282" y="270" on="1"/>
        <pt x="128" y="139" on="0"/>
      </contour>
      <contour>
        <pt x="446" y="878" on="0"/>
        <pt x="526" y="931" on="0"/>
        <pt x="567" y="931" on="0"/>
        <pt x="567" y="911" on="1"/>
        <pt x="567" y="897" on="0"/>
        <pt x="543" y="876" on="0"/>
        <pt x="489" y="844" on="0"/>
        <pt x="462" y="824" on="0"/>
        <pt x="442" y="806" on="1"/>
        <pt x="402" y="770" on="0"/>
        <pt x="379" y="770" on="0"/>
        <pt x="306" y="830" on="0"/>
        <pt x="239" y="913" on="0"/>
        <pt x="239" y="938" on="1"/>
        <pt x="239" y="950" on="0"/>
        <pt x="253" y="965" on="0"/>
        <pt x="273" y="965" on="0"/>
        <pt x="296" y="939" on="0"/>
        <pt x="317" y="902" on="0"/>
        <pt x="363" y="847" on="0"/>
        <pt x="392" y="825" on="1"/>
      </contour>
    </TTGlyph>
    <TTGlyph name="Zdotaccent" xMin="65" yMin="26" xMax="562" yMax="906">
      <contour>
        <pt x="406" y="790" on="0"/>
        <pt x="354" y="837" on="0"/>
        <pt x="354" y="872" on="0"/>
        <pt x="380" y="906" on="0"/>
        <pt x="408" y="906" on="0"/>
        <pt x="443" y="826" on="0"/>
        <pt x="443" y="804" on="1"/>
        <pt x="443" y="800" on="0"/>
        <pt x="431" y="790" on="0"/>
        <pt x="425" y="790" on="1"/>
      </contour>
      <contour>
        <pt x="128" y="111" on="1"/>
        <pt x="128" y="102" on="0"/>
        <pt x="145" y="84" on="0"/>
        <pt x="161" y="84" on="1"/>
        <pt x="217" y="84" on="0"/>
        <pt x="478" y="121" on="0"/>
        <pt x="517" y="121" on="0"/>
        <pt x="524" y="114" on="0"/>
        <pt x="524" y="103" on="1"/>
        <pt x="524" y="88" on="0"/>
        <pt x="420" y="52" on="0"/>
        <pt x="242" y="26" on="0"/>
        <pt x="153" y="26" on="1"/>
        <pt x="120" y="26" on="0"/>
        <pt x="65" y="76" on="0"/>
        <pt x="65" y="137" on="0"/>
        <pt x="156" y="242" on="0"/>
        <pt x="285" y="352" on="0"/>
        <pt x="349" y="406" on="1"/>
        <pt x="504" y="538" on="0"/>
        <pt x="502" y="594" on="1"/>
        <pt x="501" y="611" on="0"/>
        <pt x="381" y="640" on="0"/>
        <pt x="292" y="636" on="0"/>
        <pt x="197" y="621" on="0"/>
        <pt x="161" y="620" on="0"/>
        <pt x="127" y="652" on="0"/>
        <pt x="126" y="667" on="1"/>
        <pt x="124" y="681" on="0"/>
        <pt x="196" y="693" on="1"/>
        <pt x="232" y="699" on="0"/>
        <pt x="278" y="699" on="1"/>
        <pt x="465" y="699" on="0"/>
        <pt x="532" y="634" on="1"/>
        <pt x="560" y="606" on="0"/>
        <pt x="563" y="548" on="0"/>
        <pt x="474" y="438" on="0"/>
        <pt x="346" y="325" on="0"/>
        <pt x="282" y="270" on="1"/>
        <pt x="128" y="139" on="0"/>
      </contour>
    </TTGlyph>
    <TTGlyph name="a" xMin="0" yMin="17" xMax="384" yMax="502">
      <contour>
        <pt x="327" y="502" on="0"/>
        <pt x="384" y="416" on="0"/>
        <pt x="384" y="347" on="0"/>
        <pt x="362" y="317" on="1"/>
        <pt x="371" y="307" on="0"/>
        <pt x="371" y="291" on="1"/>
        <pt x="371" y="227" on="0"/>
        <pt x="350" y="113" on="0"/>
        <pt x="344" y="45" on="0"/>
        <pt x="337" y="17" on="0"/>
        <pt x="328" y="17" on="1"/>
        <pt x="311" y="17" on="0"/>
        <pt x="301" y="82" on="0"/>
        <pt x="301" y="150" on="1"/>
        <pt x="270" y="95" on="0"/>
        <pt x="175" y="17" on="0"/>
        <pt x="84" y="17" on="0"/>
        <pt x="0" y="87" on="0"/>
        <pt x="0" y="129" on="1"/>
        <pt x="0" y="193" on="0"/>
        <pt x="89" y="370" on="0"/>
        <pt x="223" y="502" on="0"/>
      </contour>
      <contour>
        <pt x="332" y="329" on="1"/>
        <pt x="331" y="336" on="0"/>
        <pt x="331" y="389" on="0"/>
        <pt x="308" y="443" on="0"/>
        <pt x="285" y="443" on="1"/>
        <pt x="247" y="443" on="0"/>
        <pt x="140" y="328" on="0"/>
        <pt x="62" y="177" on="0"/>
        <pt x="62" y="128" on="1"/>
        <pt x="62" y="106" on="0"/>
        <pt x="103" y="76" on="0"/>
        <pt x="126" y="76" on="1"/>
        <pt x="178" y="76" on="0"/>
        <pt x="286" y="210" on="0"/>
        <pt x="314" y="308" on="1"/>
        <pt x="317" y="325" on="0"/>
      </contour>
    </TTGlyph>
    <TTGlyph name="aacute" xMin="29" yMin="17" xMax="542" yMax="730">
      <contour>
        <pt x="542" y="715" on="0"/>
        <pt x="542" y="678" on="0"/>
        <pt x="533" y="672" on="1"/>
        <pt x="416" y="579" on="1"/>
        <pt x="387" y="558" on="0"/>
        <pt x="359" y="591" on="0"/>
        <pt x="383" y="615" on="1"/>
        <pt x="493" y="730" on="1"/>
        <pt x="512" y="748" on="0"/>
        <pt x="530" y="727" on="1"/>
      </contour>
      <contour>
        <pt x="118" y="370" on="0"/>
        <pt x="252" y="502" on="0"/>
        <pt x="356" y="502" on="0"/>
        <pt x="413" y="416" on="0"/>
        <pt x="413" y="347" on="0"/>
        <pt x="391" y="317" on="1"/>
        <pt x="400" y="307" on="0"/>
        <pt x="400" y="291" on="1"/>
        <pt x="400" y="227" on="0"/>
        <pt x="379" y="113" on="0"/>
        <pt x="373" y="45" on="0"/>
        <pt x="366" y="17" on="0"/>
        <pt x="357" y="17" on="1"/>
        <pt x="340" y="17" on="0"/>
        <pt x="330" y="82" on="0"/>
        <pt x="330" y="150" on="1"/>
        <pt x="299" y="95" on="0"/>
        <pt x="204" y="17" on="0"/>
        <pt x="113" y="17" on="0"/>
        <pt x="29" y="87" on="0"/>
        <pt x="29" y="129" on="1"/>
        <pt x="29" y="193" on="0"/>
      </contour>
      <contour>
        <pt x="361" y="329" on="1"/>
        <pt x="360" y="336" on="0"/>
        <pt x="360" y="389" on="0"/>
        <pt x="337" y="443" on="0"/>
        <pt x="314" y="443" on="1"/>
        <pt x="276" y="443" on="0"/>
        <pt x="169" y="328" on="0"/>
        <pt x="91" y="177" on="0"/>
        <pt x="91" y="128" on="1"/>
        <pt x="91" y="106" on="0"/>
        <pt x="132" y="76" on="0"/>
        <pt x="155" y="76" on="1"/>
        <pt x="207" y="76" on="0"/>
        <pt x="315" y="210" on="0"/>
        <pt x="343" y="308" on="1"/>
        <pt x="346" y="325" on="0"/>
      </contour>
    </TTGlyph>
    <TTGlyph name="abreve" xMin="29" yMin="17" xMax="547" yMax="712">
      <contour>
        <pt x="528" y="682" on="1"/>
        <pt x="547" y="682" on="0"/>
        <pt x="547" y="663" on="1"/>
        <pt x="547" y="636" on="0"/>
        <pt x="454" y="575" on="0"/>
        <pt x="368" y="575" on="0"/>
        <pt x="289" y="638" on="0"/>
        <pt x="289" y="670" on="1"/>
        <pt x="289" y="688" on="0"/>
        <pt x="309" y="712" on="0"/>
        <pt x="329" y="712" on="0"/>
        <pt x="345" y="685" on="0"/>
        <pt x="359" y="653" on="0"/>
        <pt x="394" y="626" on="0"/>
        <pt x="446" y="626" on="0"/>
        <pt x="488" y="654" on="0"/>
        <pt x="517" y="682" on="0"/>
      </contour>
      <contour>
        <pt x="118" y="370" on="0"/>
        <pt x="252" y="502" on="0"/>
        <pt x="356" y="502" on="0"/>
        <pt x="413" y="416" on="0"/>
        <pt x="413" y="347" on="0"/>
        <pt x="391" y="317" on="1"/>
        <pt x="400" y="307" on="0"/>
        <pt x="400" y="291" on="1"/>
        <pt x="400" y="227" on="0"/>
        <pt x="379" y="113" on="0"/>
        <pt x="373" y="45" on="0"/>
        <pt x="366" y="17" on="0"/>
        <pt x="357" y="17" on="1"/>
        <pt x="340" y="17" on="0"/>
        <pt x="330" y="82" on="0"/>
        <pt x="330" y="150" on="1"/>
        <pt x="299" y="95" on="0"/>
        <pt x="204" y="17" on="0"/>
        <pt x="113" y="17" on="0"/>
        <pt x="29" y="87" on="0"/>
        <pt x="29" y="129" on="1"/>
        <pt x="29" y="193" on="0"/>
      </contour>
      <contour>
        <pt x="361" y="329" on="1"/>
        <pt x="360" y="336" on="0"/>
        <pt x="360" y="389" on="0"/>
        <pt x="337" y="443" on="0"/>
        <pt x="314" y="443" on="1"/>
        <pt x="276" y="443" on="0"/>
        <pt x="169" y="328" on="0"/>
        <pt x="91" y="177" on="0"/>
        <pt x="91" y="128" on="1"/>
        <pt x="91" y="106" on="0"/>
        <pt x="132" y="76" on="0"/>
        <pt x="155" y="76" on="1"/>
        <pt x="207" y="76" on="0"/>
        <pt x="315" y="210" on="0"/>
        <pt x="343" y="308" on="1"/>
        <pt x="346" y="325" on="0"/>
      </contour>
    </TTGlyph>
    <TTGlyph name="acircumflex" xMin="29" yMin="17" xMax="529" yMax="726">
      <contour>
        <pt x="462" y="680" on="1"/>
        <pt x="529" y="600" on="0"/>
        <pt x="529" y="565" on="0"/>
        <pt x="491" y="565" on="0"/>
        <pt x="461" y="593" on="0"/>
        <pt x="409" y="667" on="0"/>
        <pt x="404" y="674" on="1"/>
        <pt x="376" y="659" on="0"/>
        <pt x="309" y="608" on="0"/>
        <pt x="264" y="575" on="0"/>
        <pt x="241" y="575" on="0"/>
        <pt x="225" y="587" on="0"/>
        <pt x="225" y="617" on="0"/>
        <pt x="255" y="648" on="0"/>
        <pt x="304" y="676" on="0"/>
        <pt x="336" y="696" on="0"/>
        <pt x="356" y="708" on="0"/>
        <pt x="379" y="720" on="0"/>
        <pt x="396" y="726" on="0"/>
        <pt x="406" y="726" on="0"/>
        <pt x="414" y="724" on="0"/>
        <pt x="421" y="722" on="0"/>
        <pt x="429" y="716" on="0"/>
        <pt x="434" y="713" on="0"/>
        <pt x="443" y="703" on="0"/>
        <pt x="445" y="700" on="1"/>
        <pt x="459" y="683" on="0"/>
      </contour>
      <contour>
        <pt x="118" y="370" on="0"/>
        <pt x="252" y="502" on="0"/>
        <pt x="356" y="502" on="0"/>
        <pt x="413" y="416" on="0"/>
        <pt x="413" y="347" on="0"/>
        <pt x="391" y="317" on="1"/>
        <pt x="400" y="307" on="0"/>
        <pt x="400" y="291" on="1"/>
        <pt x="400" y="227" on="0"/>
        <pt x="379" y="113" on="0"/>
        <pt x="373" y="45" on="0"/>
        <pt x="366" y="17" on="0"/>
        <pt x="357" y="17" on="1"/>
        <pt x="340" y="17" on="0"/>
        <pt x="330" y="82" on="0"/>
        <pt x="330" y="150" on="1"/>
        <pt x="299" y="95" on="0"/>
        <pt x="204" y="17" on="0"/>
        <pt x="113" y="17" on="0"/>
        <pt x="29" y="87" on="0"/>
        <pt x="29" y="129" on="1"/>
        <pt x="29" y="193" on="0"/>
      </contour>
      <contour>
        <pt x="361" y="329" on="1"/>
        <pt x="360" y="336" on="0"/>
        <pt x="360" y="389" on="0"/>
        <pt x="337" y="443" on="0"/>
        <pt x="314" y="443" on="1"/>
        <pt x="276" y="443" on="0"/>
        <pt x="169" y="328" on="0"/>
        <pt x="91" y="177" on="0"/>
        <pt x="91" y="128" on="1"/>
        <pt x="91" y="106" on="0"/>
        <pt x="132" y="76" on="0"/>
        <pt x="155" y="76" on="1"/>
        <pt x="207" y="76" on="0"/>
        <pt x="315" y="210" on="0"/>
        <pt x="343" y="308" on="1"/>
        <pt x="346" y="325" on="0"/>
      </contour>
    </TTGlyph>
    <TTGlyph name="acute" xMin="12" yMin="670" xMax="181" yMax="826">
      <contour>
        <pt x="181" y="811" on="0"/>
        <pt x="181" y="774" on="0"/>
        <pt x="172" y="768" on="1"/>
        <pt x="55" y="675" on="1"/>
        <pt x="26" y="654" on="0"/>
        <pt x="-2" y="687" on="0"/>
        <pt x="22" y="711" on="1"/>
        <pt x="132" y="826" on="1"/>
        <pt x="151" y="844" on="0"/>
        <pt x="169" y="823" on="1"/>
      </contour>
    </TTGlyph>
    <TTGlyph name="adieresis" xMin="29" yMin="17" xMax="500" yMax="692">
      <contour>
        <pt x="416" y="665" on="0"/>
        <pt x="438" y="692" on="0"/>
        <pt x="465" y="692" on="0"/>
        <pt x="500" y="625" on="0"/>
        <pt x="500" y="611" on="1"/>
        <pt x="500" y="586" on="0"/>
        <pt x="484" y="586" on="1"/>
        <pt x="464" y="586" on="0"/>
        <pt x="416" y="633" on="0"/>
      </contour>
      <contour>
        <pt x="118" y="370" on="0"/>
        <pt x="252" y="502" on="0"/>
        <pt x="356" y="502" on="0"/>
        <pt x="413" y="416" on="0"/>
        <pt x="413" y="347" on="0"/>
        <pt x="391" y="317" on="1"/>
        <pt x="400" y="307" on="0"/>
        <pt x="400" y="291" on="1"/>
        <pt x="400" y="227" on="0"/>
        <pt x="379" y="113" on="0"/>
        <pt x="373" y="45" on="0"/>
        <pt x="366" y="17" on="0"/>
        <pt x="357" y="17" on="1"/>
        <pt x="340" y="17" on="0"/>
        <pt x="330" y="82" on="0"/>
        <pt x="330" y="150" on="1"/>
        <pt x="299" y="95" on="0"/>
        <pt x="204" y="17" on="0"/>
        <pt x="113" y="17" on="0"/>
        <pt x="29" y="87" on="0"/>
        <pt x="29" y="129" on="1"/>
        <pt x="29" y="193" on="0"/>
      </contour>
      <contour>
        <pt x="361" y="329" on="1"/>
        <pt x="360" y="336" on="0"/>
        <pt x="360" y="389" on="0"/>
        <pt x="337" y="443" on="0"/>
        <pt x="314" y="443" on="1"/>
        <pt x="276" y="443" on="0"/>
        <pt x="169" y="328" on="0"/>
        <pt x="91" y="177" on="0"/>
        <pt x="91" y="128" on="1"/>
        <pt x="91" y="106" on="0"/>
        <pt x="132" y="76" on="0"/>
        <pt x="155" y="76" on="1"/>
        <pt x="207" y="76" on="0"/>
        <pt x="315" y="210" on="0"/>
        <pt x="343" y="308" on="1"/>
        <pt x="346" y="325" on="0"/>
      </contour>
      <contour>
        <pt x="348" y="586" on="1"/>
        <pt x="328" y="586" on="0"/>
        <pt x="280" y="633" on="0"/>
        <pt x="280" y="665" on="0"/>
        <pt x="302" y="692" on="0"/>
        <pt x="329" y="692" on="0"/>
        <pt x="364" y="625" on="0"/>
        <pt x="364" y="611" on="1"/>
        <pt x="364" y="586" on="0"/>
      </contour>
    </TTGlyph>
    <TTGlyph name="ae" xMin="29" yMin="17" xMax="707" yMax="502">
      <contour>
        <pt x="304" y="443" on="1"/>
        <pt x="258" y="443" on="0"/>
        <pt x="154" y="327" on="0"/>
        <pt x="88" y="178" on="0"/>
        <pt x="88" y="128" on="1"/>
        <pt x="88" y="106" on="0"/>
        <pt x="123" y="77" on="0"/>
        <pt x="142" y="76" on="1"/>
        <pt x="196" y="74" on="0"/>
        <pt x="293" y="187" on="0"/>
        <pt x="342" y="299" on="1"/>
        <pt x="352" y="326" on="0"/>
        <pt x="362" y="341" on="1"/>
        <pt x="360" y="443" on="0"/>
      </contour>
      <contour>
        <pt x="404" y="292" on="1"/>
        <pt x="463" y="278" on="0"/>
        <pt x="577" y="278" on="0"/>
        <pt x="650" y="317" on="0"/>
        <pt x="650" y="380" on="0"/>
        <pt x="596" y="446" on="0"/>
        <pt x="567" y="446" on="1"/>
        <pt x="522" y="446" on="0"/>
        <pt x="433" y="358" on="0"/>
      </contour>
      <contour>
        <pt x="299" y="502" on="1"/>
        <pt x="340" y="502" on="0"/>
        <pt x="398" y="450" on="0"/>
        <pt x="408" y="411" on="1"/>
        <pt x="481" y="502" on="0"/>
        <pt x="561" y="502" on="1"/>
        <pt x="616" y="502" on="0"/>
        <pt x="707" y="397" on="0"/>
        <pt x="707" y="292" on="0"/>
        <pt x="601" y="231" on="0"/>
        <pt x="465" y="231" on="0"/>
        <pt x="387" y="250" on="1"/>
        <pt x="371" y="203" on="0"/>
        <pt x="371" y="119" on="0"/>
        <pt x="427" y="74" on="0"/>
        <pt x="519" y="74" on="0"/>
        <pt x="623" y="112" on="0"/>
        <pt x="630" y="112" on="1"/>
        <pt x="648" y="112" on="0"/>
        <pt x="648" y="96" on="1"/>
        <pt x="648" y="76" on="0"/>
        <pt x="530" y="17" on="0"/>
        <pt x="416" y="17" on="0"/>
        <pt x="321" y="93" on="0"/>
        <pt x="316" y="156" on="1"/>
        <pt x="272" y="86" on="0"/>
        <pt x="196" y="17" on="0"/>
        <pt x="104" y="17" on="0"/>
        <pt x="29" y="86" on="0"/>
        <pt x="29" y="132" on="1"/>
        <pt x="29" y="198" on="0"/>
        <pt x="106" y="371" on="0"/>
        <pt x="236" y="502" on="0"/>
      </contour>
    </TTGlyph>
    <TTGlyph name="agrave" xMin="29" yMin="17" xMax="428" yMax="724">
      <contour>
        <pt x="318" y="724" on="1"/>
        <pt x="419" y="614" on="1"/>
        <pt x="443" y="589" on="0"/>
        <pt x="413" y="558" on="0"/>
        <pt x="387" y="580" on="1"/>
        <pt x="275" y="667" on="1"/>
        <pt x="265" y="674" on="0"/>
        <pt x="264" y="706" on="0"/>
        <pt x="276" y="719" on="1"/>
        <pt x="298" y="744" on="0"/>
      </contour>
      <contour>
        <pt x="118" y="370" on="0"/>
        <pt x="252" y="502" on="0"/>
        <pt x="356" y="502" on="0"/>
        <pt x="413" y="416" on="0"/>
        <pt x="413" y="347" on="0"/>
        <pt x="391" y="317" on="1"/>
        <pt x="400" y="307" on="0"/>
        <pt x="400" y="291" on="1"/>
        <pt x="400" y="227" on="0"/>
        <pt x="379" y="113" on="0"/>
        <pt x="373" y="45" on="0"/>
        <pt x="366" y="17" on="0"/>
        <pt x="357" y="17" on="1"/>
        <pt x="340" y="17" on="0"/>
        <pt x="330" y="82" on="0"/>
        <pt x="330" y="150" on="1"/>
        <pt x="299" y="95" on="0"/>
        <pt x="204" y="17" on="0"/>
        <pt x="113" y="17" on="0"/>
        <pt x="29" y="87" on="0"/>
        <pt x="29" y="129" on="1"/>
        <pt x="29" y="193" on="0"/>
      </contour>
      <contour>
        <pt x="361" y="329" on="1"/>
        <pt x="360" y="336" on="0"/>
        <pt x="360" y="389" on="0"/>
        <pt x="337" y="443" on="0"/>
        <pt x="314" y="443" on="1"/>
        <pt x="276" y="443" on="0"/>
        <pt x="169" y="328" on="0"/>
        <pt x="91" y="177" on="0"/>
        <pt x="91" y="128" on="1"/>
        <pt x="91" y="106" on="0"/>
        <pt x="132" y="76" on="0"/>
        <pt x="155" y="76" on="1"/>
        <pt x="207" y="76" on="0"/>
        <pt x="315" y="210" on="0"/>
        <pt x="343" y="308" on="1"/>
        <pt x="346" y="325" on="0"/>
      </contour>
    </TTGlyph>
    <TTGlyph name="amacron" xMin="29" yMin="17" xMax="549" yMax="641">
      <contour>
        <pt x="306" y="584" on="0"/>
        <pt x="273" y="581" on="0"/>
        <pt x="244" y="581" on="0"/>
        <pt x="210" y="609" on="0"/>
        <pt x="210" y="621" on="1"/>
        <pt x="210" y="647" on="0"/>
        <pt x="493" y="641" on="1"/>
        <pt x="527" y="640" on="0"/>
        <pt x="549" y="632" on="0"/>
        <pt x="549" y="622" on="1"/>
        <pt x="548" y="610" on="0"/>
        <pt x="491" y="600" on="0"/>
        <pt x="367" y="591" on="0"/>
      </contour>
      <contour>
        <pt x="118" y="370" on="0"/>
        <pt x="252" y="502" on="0"/>
        <pt x="356" y="502" on="0"/>
        <pt x="413" y="416" on="0"/>
        <pt x="413" y="347" on="0"/>
        <pt x="391" y="317" on="1"/>
        <pt x="400" y="307" on="0"/>
        <pt x="400" y="291" on="1"/>
        <pt x="400" y="227" on="0"/>
        <pt x="379" y="113" on="0"/>
        <pt x="373" y="45" on="0"/>
        <pt x="366" y="17" on="0"/>
        <pt x="357" y="17" on="1"/>
        <pt x="340" y="17" on="0"/>
        <pt x="330" y="82" on="0"/>
        <pt x="330" y="150" on="1"/>
        <pt x="299" y="95" on="0"/>
        <pt x="204" y="17" on="0"/>
        <pt x="113" y="17" on="0"/>
        <pt x="29" y="87" on="0"/>
        <pt x="29" y="129" on="1"/>
        <pt x="29" y="193" on="0"/>
      </contour>
      <contour>
        <pt x="361" y="329" on="1"/>
        <pt x="360" y="336" on="0"/>
        <pt x="360" y="389" on="0"/>
        <pt x="337" y="443" on="0"/>
        <pt x="314" y="443" on="1"/>
        <pt x="276" y="443" on="0"/>
        <pt x="169" y="328" on="0"/>
        <pt x="91" y="177" on="0"/>
        <pt x="91" y="128" on="1"/>
        <pt x="91" y="106" on="0"/>
        <pt x="132" y="76" on="0"/>
        <pt x="155" y="76" on="1"/>
        <pt x="207" y="76" on="0"/>
        <pt x="315" y="210" on="0"/>
        <pt x="343" y="308" on="1"/>
        <pt x="346" y="325" on="0"/>
      </contour>
    </TTGlyph>
    <TTGlyph name="ampersand" xMin="22" yMin="15" xMax="621" yMax="657">
      <contour>
        <pt x="541" y="80" on="1"/>
        <pt x="588" y="80" on="0"/>
        <pt x="622" y="72" on="0"/>
        <pt x="621" y="61" on="1"/>
        <pt x="619" y="26" on="0"/>
        <pt x="445" y="26" on="0"/>
        <pt x="352" y="112" on="1"/>
        <pt x="194" y="15" on="0"/>
        <pt x="120" y="15" on="1"/>
        <pt x="86" y="15" on="0"/>
        <pt x="22" y="76" on="0"/>
        <pt x="22" y="115" on="1"/>
        <pt x="22" y="132" on="0"/>
        <pt x="43" y="161" on="0"/>
        <pt x="57" y="178" on="0"/>
        <pt x="85" y="205" on="0"/>
        <pt x="104" y="222" on="0"/>
        <pt x="142" y="254" on="0"/>
        <pt x="162" y="271" on="0"/>
        <pt x="206" y="306" on="0"/>
        <pt x="216" y="314" on="1"/>
        <pt x="146" y="500" on="0"/>
        <pt x="240" y="602" on="1"/>
        <pt x="289" y="657" on="0"/>
        <pt x="431" y="657" on="0"/>
        <pt x="482" y="590" on="0"/>
        <pt x="478" y="495" on="0"/>
        <pt x="373" y="374" on="0"/>
        <pt x="285" y="300" on="1"/>
        <pt x="312" y="238" on="0"/>
        <pt x="357" y="184" on="1"/>
        <pt x="402" y="214" on="0"/>
        <pt x="463" y="259" on="1"/>
        <pt x="588" y="351" on="0"/>
        <pt x="598" y="351" on="1"/>
        <pt x="620" y="351" on="0"/>
        <pt x="620" y="330" on="1"/>
        <pt x="620" y="315" on="0"/>
        <pt x="485" y="200" on="0"/>
        <pt x="398" y="142" on="1"/>
        <pt x="470" y="80" on="0"/>
      </contour>
      <contour>
        <pt x="264" y="353" on="1"/>
        <pt x="468" y="523" on="0"/>
        <pt x="404" y="589" on="1"/>
        <pt x="389" y="605" on="0"/>
        <pt x="358" y="605" on="1"/>
        <pt x="312" y="605" on="0"/>
        <pt x="251" y="525" on="0"/>
        <pt x="245" y="413" on="0"/>
      </contour>
      <contour>
        <pt x="239" y="263" on="1"/>
        <pt x="125" y="171" on="0"/>
        <pt x="83" y="120" on="0"/>
        <pt x="83" y="91" on="0"/>
        <pt x="106" y="71" on="0"/>
        <pt x="123" y="71" on="1"/>
        <pt x="180" y="71" on="0"/>
        <pt x="312" y="154" on="1"/>
        <pt x="269" y="205" on="0"/>
      </contour>
    </TTGlyph>
    <TTGlyph name="aogonek" xMin="29" yMin="-221" xMax="429" yMax="502">
      <contour>
        <pt x="429" y="-173" on="1"/>
        <pt x="431" y="-194" on="0"/>
        <pt x="363" y="-221" on="0"/>
        <pt x="302" y="-221" on="0"/>
        <pt x="251" y="-182" on="0"/>
        <pt x="251" y="-155" on="1"/>
        <pt x="251" y="-89" on="0"/>
        <pt x="353" y="-10" on="1"/>
        <pt x="364" y="-2" on="0"/>
        <pt x="393" y="2" on="0"/>
        <pt x="409" y="-11" on="0"/>
        <pt x="398" y="-45" on="0"/>
        <pt x="379" y="-60" on="1"/>
        <pt x="307" y="-116" on="0"/>
        <pt x="307" y="-148" on="1"/>
        <pt x="307" y="-171" on="0"/>
        <pt x="350" y="-171" on="1"/>
        <pt x="366" y="-171" on="0"/>
        <pt x="401" y="-155" on="0"/>
        <pt x="406" y="-155" on="1"/>
        <pt x="426" y="-153" on="0"/>
      </contour>
      <contour>
        <pt x="299" y="95" on="0"/>
        <pt x="204" y="17" on="0"/>
        <pt x="113" y="17" on="0"/>
        <pt x="29" y="87" on="0"/>
        <pt x="29" y="129" on="1"/>
        <pt x="29" y="193" on="0"/>
        <pt x="118" y="370" on="0"/>
        <pt x="252" y="502" on="0"/>
        <pt x="356" y="502" on="0"/>
        <pt x="413" y="416" on="0"/>
        <pt x="413" y="347" on="0"/>
        <pt x="391" y="317" on="1"/>
        <pt x="400" y="307" on="0"/>
        <pt x="400" y="291" on="1"/>
        <pt x="400" y="227" on="0"/>
        <pt x="379" y="113" on="0"/>
        <pt x="373" y="45" on="0"/>
        <pt x="366" y="17" on="0"/>
        <pt x="357" y="17" on="1"/>
        <pt x="340" y="17" on="0"/>
        <pt x="330" y="82" on="0"/>
        <pt x="330" y="150" on="1"/>
      </contour>
      <contour>
        <pt x="155" y="76" on="1"/>
        <pt x="207" y="76" on="0"/>
        <pt x="315" y="210" on="0"/>
        <pt x="343" y="308" on="1"/>
        <pt x="346" y="325" on="0"/>
        <pt x="361" y="329" on="1"/>
        <pt x="360" y="336" on="0"/>
        <pt x="360" y="389" on="0"/>
        <pt x="337" y="443" on="0"/>
        <pt x="314" y="443" on="1"/>
        <pt x="276" y="443" on="0"/>
        <pt x="169" y="328" on="0"/>
        <pt x="91" y="177" on="0"/>
        <pt x="91" y="128" on="1"/>
        <pt x="91" y="106" on="0"/>
        <pt x="132" y="76" on="0"/>
      </contour>
    </TTGlyph>
    <TTGlyph name="approxequal" xMin="58" yMin="153" xMax="560" yMax="539">
      <contour>
        <pt x="268" y="539" on="1"/>
        <pt x="291" y="539" on="0"/>
        <pt x="333" y="503" on="0"/>
        <pt x="362" y="459" on="0"/>
        <pt x="405" y="422" on="0"/>
        <pt x="429" y="421" on="1"/>
        <pt x="454" y="422" on="0"/>
        <pt x="493" y="453" on="0"/>
        <pt x="502" y="471" on="1"/>
        <pt x="528" y="519" on="0"/>
        <pt x="545" y="519" on="1"/>
        <pt x="560" y="519" on="0"/>
        <pt x="560" y="492" on="1"/>
        <pt x="560" y="448" on="0"/>
        <pt x="480" y="361" on="0"/>
        <pt x="425" y="361" on="1"/>
        <pt x="386" y="361" on="0"/>
        <pt x="314" y="420" on="0"/>
        <pt x="268" y="487" on="1"/>
        <pt x="209" y="462" on="0"/>
        <pt x="157" y="388" on="1"/>
        <pt x="142" y="367" on="0"/>
        <pt x="130" y="367" on="1"/>
        <pt x="108" y="367" on="0"/>
        <pt x="108" y="388" on="1"/>
        <pt x="109" y="433" on="0"/>
        <pt x="217" y="539" on="0"/>
      </contour>
      <contour>
        <pt x="218" y="331" on="1"/>
        <pt x="241" y="331" on="0"/>
        <pt x="283" y="295" on="0"/>
        <pt x="312" y="251" on="0"/>
        <pt x="355" y="214" on="0"/>
        <pt x="379" y="213" on="1"/>
        <pt x="404" y="214" on="0"/>
        <pt x="443" y="245" on="0"/>
        <pt x="452" y="263" on="1"/>
        <pt x="478" y="311" on="0"/>
        <pt x="495" y="311" on="1"/>
        <pt x="510" y="311" on="0"/>
        <pt x="510" y="284" on="1"/>
        <pt x="510" y="240" on="0"/>
        <pt x="430" y="153" on="0"/>
        <pt x="375" y="153" on="1"/>
        <pt x="336" y="153" on="0"/>
        <pt x="264" y="212" on="0"/>
        <pt x="218" y="279" on="1"/>
        <pt x="160" y="254" on="0"/>
        <pt x="107" y="180" on="1"/>
        <pt x="92" y="159" on="0"/>
        <pt x="80" y="159" on="1"/>
        <pt x="58" y="159" on="0"/>
        <pt x="58" y="180" on="1"/>
        <pt x="59" y="225" on="0"/>
        <pt x="167" y="331" on="0"/>
      </contour>
    </TTGlyph>
</ttFont>
